<?xml version="1.0" encoding="utf-8"?>
<!-- Generator: Adobe Illustrator 17.0.2, SVG Export Plug-In . SVG Version: 6.00 Build 0)  -->
<!DOCTYPE svg PUBLIC "-//W3C//DTD SVG 1.1//EN" "http://www.w3.org/Graphics/SVG/1.1/DTD/svg11.dtd">
<svg version="1.1" id="Layer_1" xmlns="http://www.w3.org/2000/svg" xmlns:xlink="http://www.w3.org/1999/xlink" x="0px" y="0px"
	 width="64px" height="64px" viewBox="0 0 64 64" enable-background="new 0 0 64 64" xml:space="preserve">
<g>
	<path d="M10.594,63h47.944c0,0-1.634-4.141-8.172-5.285c0,0-0.163-2.888-4.195-2.888c0,0-1.798,0.082-2.615,0.409
		c0,0-0.327-2.084-2.016-2.084c-0.054-1.852,2.234-2.404,2.234-4.038c0.817-0.054,12.803,1.468,12.803-4.689
		c-0.436-2.888-0.817-6.812-0.654-8.991c0.763-0.681,1.689-2.235,1.362-4.087c-0.272-2.07-0.954-2.866-1.444-3.324
		c-0.545-0.327,0.881-0.836,0.881-2.361s-1.162-0.763-1.162-3.669S55.414,8.591,55.777,6.92S53.58,8.3,53.498,8.436
		s-1.199-2.533-1.199-2.533s-1.498,1.062-1.716,2.479s-1.362-2.697-1.771-2.697s-1.771,1.798-1.771,2.506s-0.654-1.961-1.58-2.506
		c-0.681,0-1.689,2.179-1.907,2.724c-0.218,0.545-0.627-2.724-1.825-2.724c-0.926,0-2.152,2.561-2.152,2.942
		c0,0.381-1.117-2.615-1.989-2.615c-0.872,0-2.152,2.642-2.179,3.051s-1.525-2.424-2.561-2.424c-1.035,0-1.662,2.588-1.634,2.942
		c0.027,0.354-1.689-2.315-2.343-2.315c-0.654,0-1.171,3.296-1.144,3.868c0.027,0.572-3.214-2.751-3.65-1.144
		c0.826,2.088,3.514,20.757,3.732,27.295c-1.553,0.899-1.634,2.206-1.689,3.078s1.199,2.833,2.07,2.833
		c0.311,0.767-0.191,7.655-0.3,7.982s-0.953-0.191-1.634,0.708c-0.926-0.981-6.756-3.378-8.036-0.953
		c-4.25-1.171-10.311,0.272-12.095,2.642C4.274,55.754,3.566,60.385,10.594,63z"/>
</g>
</svg>
