<?xml version="1.0" encoding="utf-8"?>
<!-- Generator: Adobe Illustrator 17.0.2, SVG Export Plug-In . SVG Version: 6.00 Build 0)  -->
<!DOCTYPE svg PUBLIC "-//W3C//DTD SVG 1.1//EN" "http://www.w3.org/Graphics/SVG/1.1/DTD/svg11.dtd">
<svg version="1.1" id="Layer_1" xmlns="http://www.w3.org/2000/svg" xmlns:xlink="http://www.w3.org/1999/xlink" x="0px" y="0px"
	 width="64px" height="64px" viewBox="0 0 64 64" enable-background="new 0 0 64 64" xml:space="preserve">
<path d="M59.711,47.198c-0.083,0-0.159,0.004-0.226,0.009c-0.587-0.599-2.518-2.149-7.433-3.08
	c-5.828-1.104-11.147-5.069-11.531-7.072c-0.295-1.537,0.505-4.625,0.953-6.019c0.715,0.351,1.873,0.158,2.158-1.374
	c0.107-0.575,0.391-1.071,0.72-1.645c0.522-0.91,1.113-1.942,1.113-3.545c0-1.483-0.526-2.204-1.608-2.204l-0.259,0.005
	c-0.067-0.378-0.086-1.476,0.361-3.714c0.321-1.601,0.076-2.455-0.295-3.748c-0.179-0.626-0.403-1.404-0.617-2.461
	c-0.57-2.804-3.722-4.338-5.416-5.162c-0.357-0.173-0.694-0.337-0.81-0.424c-0.422-0.316-1.233-0.451-2.715-0.451
	c-0.62,0-1.25,0.024-1.764,0.045C32,6.371,31.711,6.383,31.516,6.383c-0.109,0-0.242-0.011-0.396-0.023
	c-0.248-0.02-0.547-0.042-0.894-0.042c-2.219,0-4.387,0.997-6.625,3.049c-2.584,2.369-2.606,4.458-2.624,6.136
	c-0.01,0.942-0.018,1.686-0.49,2.267c-1.511,1.859-0.742,3.927-0.204,5.107c-0.295,0.238-0.557,0.629-0.752,1.138
	c-0.398,1.039-0.492,2.606,0.556,3.601c0.659,0.627,0.935,1.414,1.179,2.108c0.242,0.693,0.472,1.348,1.084,1.558
	c0.378,0.129,0.745,0.085,1.009-0.06c0.358,1.415,0.909,4.116,0.372,5.685c-0.759,2.219-4.714,6.02-6.462,6.831
	c-1.558,0.957-3.551,1.704-5.479,2.426c-2.71,1.015-5.508,2.063-7.251,3.749c-0.215-0.054-0.423-0.081-0.622-0.081
	c-1.726,0-2.33,1.913-2.417,3.08V64h60h1H62.5V50.856C62.5,47.462,60.366,47.198,59.711,47.198z M32.24,28.573
	c-0.141,0.483-1.203,0.821-2.583,0.821c-1.541,0-3.468-0.458-4.258-1.744c-0.37-0.707-0.703-1.876-0.203-3.45l0.007-0.024
	l0.098,0.022c-0.001,0.01-0.139,1.045,0.085,2.122c0.298,1.433,1.061,2.255,2.268,2.445c0.146,0.02,0.306,0.03,0.473,0.03
	c0.82,0,1.733-0.241,2.468-0.435c0.527-0.139,0.982-0.259,1.278-0.259c0.17,0,0.282,0.04,0.344,0.122
	C32.276,28.303,32.284,28.418,32.24,28.573z M39.299,27.647c-0.792,1.289-2.719,1.747-4.26,1.747c-1.381,0-2.443-0.338-2.583-0.822
	c-0.045-0.155-0.038-0.27,0.023-0.35c0.062-0.082,0.174-0.122,0.344-0.122c0.295,0,0.75,0.12,1.278,0.259
	c0.734,0.193,1.647,0.435,2.468,0.435c0.167,0,0.327-0.01,0.474-0.03c1.207-0.19,1.97-1.014,2.268-2.448
	c0.224-1.077,0.086-2.109,0.084-2.12l0.098-0.022l0.007,0.024C40,25.772,39.667,26.942,39.299,27.647z"/>
</svg>
