<?xml version="1.0" encoding="utf-8"?>
<!-- Generator: Adobe Illustrator 17.0.2, SVG Export Plug-In . SVG Version: 6.00 Build 0)  -->
<!DOCTYPE svg PUBLIC "-//W3C//DTD SVG 1.1//EN" "http://www.w3.org/Graphics/SVG/1.1/DTD/svg11.dtd">
<svg version="1.1" id="Layer_1" xmlns="http://www.w3.org/2000/svg" xmlns:xlink="http://www.w3.org/1999/xlink" x="0px" y="0px"
	 width="64px" height="64px" viewBox="0 0 64 64" enable-background="new 0 0 64 64" xml:space="preserve">
<g>
	<path d="M40.931,51.55c6.646-2.668,7.132-4.059,7.132-4.479c0,0,2.329,0,4.269,1.358c0-3.105,0.906-4.334-2.846-8.603
		c-2.976-4.593-3.17-4.269-6.986-6.339c0,0,0.388-0.744,1.197-0.453c0.259,0.615,1.035,1.552,2.652,0.226
		c0.819-0.861,0.712-1.617,0.582-1.779c0,0,0.759-0.55,0.533-1.472c0,0,0.599-0.243,0.623-1.067c1.067-0.995,1.455-2.498,0.218-2.79
		c0,0-0.291-0.412-0.388-0.679s1.722,0.024,1.649-1.407c0,0-0.024-0.8-0.703-1.164c0,0,0.582,0.218,0.8,0s-1.237-0.558-0.024-2.644
		s-2.038-2.062-1.577-3.032c1.488-1.852,1.035-4.892-1.423-7.932s-5.24-4.011-7.245-3.493c-4.657,0.97-4.787-1.682-8.797-0.776
		s-7.503,4.399-10.738,8.28c-1.617,2.005,0.97,4.269,0.97,4.269s-0.518,0.194-0.679,0.679c-0.162,0.485,1.358,1.552-0.97,2.555
		c-1.326,0.291-0.841-1.294-0.388-1.617s-2.361,0.841-1.003,2.717c0,0-0.776,2.717,1.326,3.364c0,0-0.877,0.679-1.7,0.194
		c0,0,0.665,0.873,1.959,0.97c0,0-0.226,1.229,0.679,1.779c0,0-1.164,0.55-1.714-0.42c-0.55-0.97-0.162,1.552,2.167,1.682
		c0,0,0.647,1.488,1.973,1.747c0,0-0.906,1.358,0.42,1.585c0,0,1.003,0.162,1.294,0.162s-2.426,1.423,0.679,1.811
		c-2.684,2.62-4.431,5.628-6.016,6.857c0,0,1.617,2.361,4.981,1.617c0.993-0.186-0.809,0.647,1.714,3.461s6.501,9.638,6.113,12.452
		C31.665,59.167,34.285,54.218,40.931,51.55z M30.821,9.895l0.153-1.236l-0.931-0.827l1.222-0.236l0.499-1.141l0.602,1.09
		l1.239,0.122l-0.85,0.909l0.267,1.216l-1.128-0.528L30.821,9.895z"/>
</g>
</svg>
