<?xml version="1.0" encoding="utf-8"?>
<!-- Generator: Adobe Illustrator 17.0.2, SVG Export Plug-In . SVG Version: 6.00 Build 0)  -->
<!DOCTYPE svg PUBLIC "-//W3C//DTD SVG 1.1//EN" "http://www.w3.org/Graphics/SVG/1.1/DTD/svg11.dtd">
<svg version="1.1" id="Layer_1" xmlns="http://www.w3.org/2000/svg" xmlns:xlink="http://www.w3.org/1999/xlink" x="0px" y="0px"
	 width="64px" height="64px" viewBox="0 0 64 64" enable-background="new 0 0 64 64" xml:space="preserve">
<g>
	<path d="M34.386,56.12c0.368-2.579,0.268-3.002-0.067-3.873c-0.335-0.871,0.352-1.727,0.938-1.443
		c0.586,0.285,1.524,1.874,3.165,1.455c1.641-0.419,0.134-2.035,1.9-2.621c0.36-0.117,0.636-0.406,0.31-1.018
		c0.779,0.075,0.77-0.036,1.005-0.58c0.377-0.728,0.176-1.483,1.306-1.307c1.13,0.176,1.859,0.401,1.18-2.562
		c-0.678-2.964-0.703-2.838,0.326-3.542c0.126,0.301,0.05,1.13,0.05,1.13c1.532-1.381,2.16-2.738,2.06-3.893
		c0.402-1.256,0.402-2.21,0.218-2.755c1.139-3.751,7.501-8.104,7.501-16.543c0-8.841-3.818-17.213-13.06-16.912
		C28.727-1.457,25.211,4.103,25.211,4.103c5.794-2.512,9.779-0.971,9.779-0.971c-2.679,1.239-3.047,2.713-3.047,2.713
		c4.153-2.512,7.401-1.407,7.401-1.407c6.966,2.947,6.028,18.753,1.273,22.571c-3.952-3.148-10.03-3.834-12.993-3.834
		c-2.964,0-4.697,9.745-3.675,13.111c0.279,0.513,0.519,0.938-0.109,1.599c-0.628,0.661-0.988,0.661-0.988,0.661
		c0.367,0.116,0.435,0.377,0.435,0.377c-0.112,0.36-0.469,0.511-0.728,0.544c0,0.435,0.829,0.888,0.829,0.888
		c-0.419,0.67-1.49-0.251-1.49-0.251c0.134,1.256,0.703,1.557,0.703,1.557c-0.636,0.703-1.674,0.251-1.674,0.251
		c0.318,0.887,1.54,1.088,1.54,1.088c-0.72,1.373-1.708,1.172-1.708,1.172c0.737,0.753,1.758,0.184,1.758,0.184
		c-0.201,1.055-1.356,1.105-1.356,1.105c1.105,0.804,1.959-0.184,1.959-0.184c-0.184,1.507-1.48,1.96-1.859,2.177
		c0.988,0.402,2.076-0.084,2.076-0.084c-0.034,1.005-2.679,4.119-3.282,4.99s-1.507,0.981-1.875,2.689
		C17.81,56.756,15.566,64,15.566,64h20.093C35.659,58.824,34.018,58.699,34.386,56.12z M50.394,15.463
		c-0.067,7.811-2.679,9.167-2.679,9.167c2.461-13.814-1.557-18.335-1.557-18.335S50.402,9.034,50.394,15.463z"/>
</g>
</svg>
