<?xml version="1.0" encoding="utf-8"?>
<!-- Generator: Adobe Illustrator 17.0.2, SVG Export Plug-In . SVG Version: 6.00 Build 0)  -->
<!DOCTYPE svg PUBLIC "-//W3C//DTD SVG 1.1//EN" "http://www.w3.org/Graphics/SVG/1.1/DTD/svg11.dtd">
<svg version="1.1" id="Layer_1" xmlns="http://www.w3.org/2000/svg" xmlns:xlink="http://www.w3.org/1999/xlink" x="0px" y="0px"
	 width="64px" height="64px" viewBox="0 0 64 64" enable-background="new 0 0 64 64" xml:space="preserve">
<path d="M40.572,20.622c0.041,0.419,0.821,2.212,0.237,3.658c0.001-0.001,0.001-0.001,0.001-0.001c0.004,0,0.004,0.027,0.004,0.054
	c0.841,0.545,0.886,1.182,0.805,1.577c0.137,0.293,0.311,0.791,0.162,1.187c-0.048,0.125-0.122,0.232-0.219,0.316
	c-0.047,0.218-0.05,0.447,0.001,0.518c0.287,0.166,0.618,0.596,0.425,1.395l-0.03,0.091c0.991-0.392,3.259-1.532,4.416-2.215
	c-0.35-0.082-0.506-0.289-0.502-0.549C45.883,25.984,47.227,25,47.749,25h0.327l0.175,0.24c0.148,0.339-0.089,0.557-0.297,0.783
	c-0.056,0.061-0.159,0.152-0.238,0.253c0.05,0.007,0.11,0.003,0.184,0.007c0.616,0.086,0.904,0.365,1.045,0.588
	c0.282,0.448,0.201,0.99,0.112,1.333c0.181,0.126,0.371,0.305,0.487,0.603c0.05,0.129,0.077,0.25,0.081,0.366
	c0.218-0.248,0.451-0.407,0.897-0.398c0.034-0.234,0.095-0.431,0.426-0.703C51.115,27.935,51.258,28,51.472,28h0.226l0.163-0.008
	c0.165,0.187,0.138,0.305,0.117,0.473c-0.018,0.136-0.044,0.296-0.019,0.572c0.108,1.194-0.706,1.304-1.144,1.375l-0.15,0.014
	c-0.257,0.047-0.682,0.677-0.696,0.907l-0.016,0.119c-0.036,0.211,0.292,0.304,0.491,0.341c0.381,0.069,0.775,0.14,0.795,0.572
	c0.019,0.419-0.381,0.531-0.552,0.579c-0.212,0.059-0.609,0.17-0.73,0.391c-0.046,0.085-0.096,0.165-0.147,0.24l0.415-0.008
	l0.295,0.468l-0.153,0.328c-0.143,0.299-0.208,0.513-0.192,0.636c0.031,0.245-0.058,0.405-0.138,0.496l-0.1,0.113
	c0.198,0.424,0.158,0.867-0.117,1.371C49.523,37.523,48.937,38,48.392,38h-0.097h-0.18c-0.001,0-0.002,0-0.003,0
	c-0.186,0-0.239,0.412-0.248,0.484c-0.083,0.654-0.354,1.01-0.803,1.01c-0.088,0-0.169-0.002-0.241-0.022
	c0.163,0.147,0.346,0.36,0.485,0.661c0.093,0.201,0.177,0.284,0.281,0.385c0.336,0.324,0.56,0.628,0.613,1.837
	c0.033,0.755,0.079,1.193,0.11,1.486c0.039,0.377,0.061,0.585-0.011,0.899c-0.102,0.447-0.473,0.725-0.967,0.725
	c-0.2,0-0.367-0.043-0.429-0.062l-0.209-0.064l-0.094-0.178c-0.17,0.045-0.36,0.025-0.583-0.071
	c-0.051-0.021-0.098-0.044-0.142-0.066c0.006,0.029,0.013,0.055,0.021,0.076c0.133,0.373-0.03,0.672-0.486,0.895
	c0.13,0.278,0.16,0.581,0.084,0.878c-0.118,0.46-0.474,0.799-1.004,1.041C44.3,48.001,44.173,48,44.039,48h-0.298l-0.1-0.118
	c-0.1,0.104-0.233,0.037-0.414,0.116C42.947,48.121,42.788,48,42.642,48h-0.256l-0.213-0.043c-0.181-0.25-0.092-0.42-0.021-0.633
	c0.138-0.414,0.31-0.882-0.549-1.453c-0.033-0.023-0.066-0.029-0.099-0.062l-0.109,0.135l-0.291,0.031
	c-0.277,0-0.535-0.167-0.927-0.425c-0.194-0.128-0.464-0.305-0.659-0.392c0.197,0.989,0.225,2.448-0.196,4.582l0.057,0.225
	c0.398-0.014,0.909-0.027,1.427-0.027c1.73,0,2.208,0.192,2.466,0.271c0.744,0.229,1.907,0.009,1.907,0.009
	c0.228,0,0.518,0.143,0.586,0.544c0.22,1.293-2.296,8.696-5.872,9.952c-0.195,0.085-0.434,0.134-0.682,0.134
	c-1.472,0-2.917-1.67-4.448-3.437c-1.129-1.304-2.409-2.782-3.2-2.782c-0.763,0-2.247,1.9-3.438,3.427
	c-1.62,2.075-3.151,4.036-4.532,4.036c-0.351,0-0.67-0.121-0.947-0.359c-1.854-1.593-4.972-7.204-4.779-9.092
	c0.047-0.456,0.271-0.671,0.452-0.771c1.038-0.575,4.854-0.979,6.404-0.965c-0.26-0.523-0.561-1.105-0.715-1.32l-0.142-0.199
	l0.069-0.234c0.006-0.019,0.541-1.849,0.401-3.185c-0.022,0.079-0.049,0.159-0.082,0.239c-0.287,0.699-0.819,0.803-1.111,0.803
	c-0.466,0.001-0.933-0.256-1.281-0.488c-0.117,0.271-0.309,0.546-0.663,0.728c-0.175,0.09-0.23,0.152-0.243,0.171
	c0.006,0.001-0.035,0.455-0.597,0.627c-0.718,0.234-1.084-0.196-1.084-0.196c-0.463-0.552-1.303-1.551-0.415-3.006
	c-0.022-0.004-0.042-0.006-0.06-0.009c-0.086-0.012-0.165-0.022-0.228-0.036c-0.477-0.1-0.718-0.548-0.342-2.403
	c-0.469,0.158-1.008,0.161-1.048,0.161c-0.858,0-1.455-0.313-1.637-0.859c-0.044-0.134-0.065-0.261-0.069-0.382
	c-0.42,0.009-1.157-0.308-1.25-1.253c-0.048-0.487,0.066-0.82,0.347-1.011c-0.133-0.383-0.078-0.69,0.033-0.924l-0.219,0.004
	c-0.194,0-0.524,0-0.84-0.096c-0.298,0.368-1.094,0.389-1.104,0.389c-0.355,0-0.659-0.117-0.877-0.338
	c-0.243-0.246-0.364-0.598-0.359-1.047c0.005-0.46,0.064-0.909,0.411-1.142c-0.018-0.1-0.053-0.256-0.116-0.495l-0.066-0.252
	l0.104-0.165c-0.104-0.001-0.248-0.007-0.391-0.062l-0.124,0.42l-0.377,0.002c-0.258,0-0.824-0.281-1.092-0.705
	c-0.214-0.339-0.233-0.733-0.054-1.107c0.125-0.261,0.281-0.47,0.417-0.633c-0.39-0.198-0.585-0.476-0.544-0.773
	c0.048-0.36,0.437-0.681,1.278-0.333c0.308,0.127,0.748,0.308,1.04,0.362c-0.166-0.525-0.393-1.575,0.129-2.31
	c-0.1-0.05-0.2-0.113-0.297-0.199c-0.364-0.322-0.42-0.644-0.461-0.879c-0.025-0.139-0.039-0.223-0.118-0.329l-0.089-0.119
	c-0.201-0.267-0.386-0.519-0.233-0.842C10.708,27.302,11,27.218,11,27.177c0-0.05,0-0.103,0-0.146C11,26.594,10.98,26,11.9,26
	c0.002,0,0.004,0,0.005,0c0.433,0,0.598-0.061,0.672,0.087c0.166,0.328-0.042,0.493-0.18,0.681
	c-0.285,0.389-0.252,0.398-0.149,0.515c0.066,0.075,0.178,0.172,0.284,0.285c0.122-0.358,0.227-0.664,0.406-0.831l0.154-0.325
	c0.129-0.224,0.369-0.372,0.653-0.401c-0.04-0.172-0.046-0.349,0.002-0.522c0.06-0.214,0.225-0.332,0.67-0.484
	C14.81,24.87,14.944,25,15.073,25h0.314l0.149,0.103c0.141-0.159,0.331-0.373,0.596-0.373c0.413,0,0.333,0.316,0.805,1.062
	l0.594,0.821c0.65,0.583,1.269,1.296,1.279,1.308c0.313,0.366,1.234,0.733,1.929,0.946c-0.011-0.135,0.019-0.275,0.093-0.395
	c0.02-0.033,0.043-0.064,0.068-0.092c-0.066-0.231-0.11-0.516,0.033-0.771c0.049-0.089,0.117-0.164,0.199-0.222
	c-0.039-0.335-0.079-0.963,0.634-1.445c0.099-0.067,0.106-0.112,0.108-0.127c0.032-0.208-0.289-0.611-0.394-0.743
	c-0.069-0.085-0.117-0.152-0.139-0.19c-0.112-0.194-0.103-0.432,0.023-0.651c0.064-0.11,0.179-0.24,0.319-0.356
	c-0.146-0.271-0.238-0.608-0.06-0.964c0.029-0.057-0.006-0.135-0.133-0.297l-0.113-0.167c-0.102-0.206-0.074-0.465,0.078-0.712
	c0.085-0.138,0.197-0.249,0.324-0.327c0.052-1.561-0.766-9.17-3.014-10.511c-1.053-0.628-1.621-1.328-1.686-2.079
	c-0.087-0.998,0.74-1.711,1.052-1.98l0.077-0.068c0.116-0.179,1.846-2.338,9.62-2.338c1.358,0,2.842,0.067,4.411,0.201
	c10.928,0.93,11.192,1.378,11.719,2.27c0.028,0.046,0.056,0.096,0.091,0.146c0.468,0.68,0.088,1.217-0.279,1.736
	c-0.333,0.47-0.789,1.115-1.086,2.257c-0.629,2.425-1.427,5.885-1.427,5.885S40.498,19.869,40.572,20.622z"/>
</svg>
