<?xml version="1.0" encoding="iso-8859-1"?>
<!-- Generator: Adobe Illustrator 17.1.0, SVG Export Plug-In . SVG Version: 6.00 Build 0)  -->
<!DOCTYPE svg PUBLIC "-//W3C//DTD SVG 1.1//EN" "http://www.w3.org/Graphics/SVG/1.1/DTD/svg11.dtd">
<svg version="1.1" id="Layer_1" xmlns="http://www.w3.org/2000/svg" xmlns:xlink="http://www.w3.org/1999/xlink" x="0px" y="0px"
	 viewBox="0 0 64 64" style="enable-background:new 0 0 64 64;" xml:space="preserve">
<g>
	<path d="M44.667,56.991c0,0-1.425-4.169-0.773-4.82c0.651-0.651,0.517-1.14,1.47-1.384c0.953-0.244,1.793-1.197,1.915-1.319
		c0.122-0.122,0.213,0.464,0.042,0.782s1.621-0.635,2.158-3.102c0.293,0.55,0.407,0.635,0.994,0.855
		c0.586,0.22-1.812-0.977,1.413-4.201c2.833-2.899,0.421-4.266,0.617-5.96c0,0,0.39,0.537,0.683,0.684
		c-0.228-1.172,1.042-6.872,0.293-8.566c-0.749-1.694-1.108-1.694-0.814-4.234s-1.531-1.466-0.489-4.983
		c0.749-2.247-2.443-2.931-3.192-6.383c-0.423-1.922-2.475-1.335-7.165-5.927c0,0-6.107-4.494-12.164,0.293
		c-3.615-0.586-9.624-1.221-11.334,3.859c-6.953,4.804-6.009,7.735-6.074,10.21c0,0-0.944,2.117-1.075,3.745
		c0.065,3.876-0.749,4.983-0.684,6.351c0.033,2.117,1.205,1.303,1.335,4.56c0.358,1.01,0.782,0.293,0.782,0.293
		s1.01,1.303-2.117,1.889c0,0,0.749,0.586,2.15,0.326c0.195,2.671,2.605,2.899,0.456,4.527c-1.042,0.358,1.922,1.4,1.922,1.4
		s-0.619,0.489-0.879,0.489c-0.261,0,3.452,2.768,5.048,2.964c0.749,0.944,2.41,2.931,2.866,3.192
		c0.456,0.261-0.114,3.765-4.95,4.644C2.735,59.958,3.126,61,3.126,64H61v-4.859C61,59.141,54.893,56.796,44.667,56.991z
		 M39.745,39.752c-2.563,0-4.641-1.777-4.641-3.976c0-0.439,0.086-0.849,0.239-1.245c-0.015-0.003-0.027-0.041-0.043-0.046
		C34.332,34.203,33.338,34,32.345,34h-0.079c-0.993,0-1.988,0.203-2.955,0.486c-0.015,0.005-0.028-0.012-0.043-0.009
		c0.153,0.395,0.239,0.833,0.239,1.272c0,2.199-2.078,3.99-4.641,3.99c-2.487,0-4.512-1.676-4.63-3.785
		c-0.106,0.065-0.238,0.092-0.38,0.025c-0.874-0.414-1.795-0.72-2.614-1.244c-0.423-0.271-0.031-0.947,0.394-0.674
		c0.818,0.525,1.74,0.833,2.614,1.247c0.003,0.001,0.004,0.006,0.006,0.008c0.263-1.984,2.225-3.521,4.609-3.521
		c1.75,0,3.272,0.843,4.063,2.07c0.043-0.038,0.096-0.221,0.164-0.24C30.135,33.32,31.221,33,32.305,33c-0.001,0-0.001,0-0.001,0
		h0.004c-0.001,0-0.001,0-0.002,0c1.083,0,2.17,0.32,3.213,0.624c0.068,0.02,0.121,0.092,0.164,0.131
		c0.791-1.227,2.313-2.015,4.063-2.015c2.384,0,4.345,1.564,4.609,3.548c0.003-0.001,0.004,0.008,0.006,0.006
		c0.874-0.414,1.796-0.716,2.614-1.24c0.426-0.273,0.817,0.407,0.394,0.678c-0.818,0.525-1.74,0.833-2.614,1.248
		c-0.141,0.067-0.273,0.044-0.38-0.021C44.257,38.068,42.232,39.752,39.745,39.752z"/>
</g>
</svg>
