<?xml version="1.0" encoding="utf-8"?>
<!-- Generator: Adobe Illustrator 17.0.2, SVG Export Plug-In . SVG Version: 6.00 Build 0)  -->
<!DOCTYPE svg PUBLIC "-//W3C//DTD SVG 1.1//EN" "http://www.w3.org/Graphics/SVG/1.1/DTD/svg11.dtd">
<svg version="1.1" id="Layer_1" xmlns="http://www.w3.org/2000/svg" xmlns:xlink="http://www.w3.org/1999/xlink" x="0px" y="0px"
	 width="64px" height="64px" viewBox="0 0 64 64" enable-background="new 0 0 64 64" xml:space="preserve">
<g>
	<path d="M46.04,45.665c0,0,0.478-3.163-0.623-3.713c0,0,1.747-3.941-0.708-5.973c0,0,2.104-2.354-0.417-6
		c0,0,2.256-2.231,1.832-3.966c1.82-11.302,0.296-23.406-13.757-23.406c0,0-18.964,0.001-13.63,25.23c0,0,0,1.715,1.397,3.683
		s0.152,1.062-0.113,3.417c-0.167,1.479,0.417,2.292,0.417,2.292s-1.982,0.891-0.521,3.875c-1.651,1.651-0.952,3.877-0.825,4.956
		C14.9,47.013,15,56.855,15,64.03V64h33.707C48.707,64,51.247,47.189,46.04,45.665z M21.743,45.235c0,0,1.27-2.244,0.212-4.021
		c1.649-1.756,1.108-2.297,0.649-4.027c0,0,1.854-1.458,0.748-3.255c0,0,3.894,2.878,6.053,3.513
		C30.124,41.298,28.473,44.219,21.743,45.235z M30.632,51.669c-1.312-2.074-2.159-7.831-2.159-7.831l1.101-1.101l3.683,2.074
		C33.257,44.812,31.944,53.744,30.632,51.669z M34.061,61.533c-0.444,0-0.804-0.36-0.804-0.804s0.36-0.804,0.804-0.804
		s0.804,0.36,0.804,0.804C34.865,61.172,34.505,61.533,34.061,61.533z M34.061,57.977c-0.444,0-0.804-0.36-0.804-0.804
		s0.36-0.804,0.804-0.804s0.804,0.36,0.804,0.804S34.505,57.977,34.061,57.977z M34.061,54.421c-0.444,0-0.804-0.36-0.804-0.804
		s0.36-0.804,0.804-0.804s0.804,0.36,0.804,0.804S34.505,54.421,34.061,54.421z M37.193,51.669
		c-1.312,2.074-2.625-6.858-2.625-6.858l3.683-2.074l1.101,1.101C39.352,43.838,38.506,49.595,37.193,51.669z M43.67,42.018
		c-0.55,0.381-0.381,2.201-0.381,2.201c-8-2.328-6.561-8.043-6.561-8.043l4.36-4.064c1.27,0.762-1.016,1.609,2.032,4.064
		C41.088,39.309,44.22,41.637,43.67,42.018z"/>
</g>
</svg>
