<?xml version="1.0" encoding="utf-8"?>
<!-- Generator: Adobe Illustrator 17.0.2, SVG Export Plug-In . SVG Version: 6.00 Build 0)  -->
<!DOCTYPE svg PUBLIC "-//W3C//DTD SVG 1.1//EN" "http://www.w3.org/Graphics/SVG/1.1/DTD/svg11.dtd">
<svg version="1.1" id="Layer_1" xmlns="http://www.w3.org/2000/svg" xmlns:xlink="http://www.w3.org/1999/xlink" x="0px" y="0px"
	 width="64px" height="64px" viewBox="0 0 64 64" enable-background="new 0 0 64 64" xml:space="preserve">
<g>
	<path d="M32.912,16.026c-1.097,0.275-1.916,1.262-1.916,2.444c0,1.394,1.134,2.528,2.527,2.528c1.395,0,2.528-1.134,2.528-2.528
		c0-1.135-0.756-2.086-1.788-2.405c-0.112,0.26-0.37,0.443-0.671,0.443C33.278,16.509,33.015,16.306,32.912,16.026z M34.334,18.359
		c0,0.447-0.363,0.811-0.811,0.811c-0.446,0-0.81-0.364-0.81-0.811s0.363-0.811,0.81-0.811
		C33.971,17.549,34.334,17.913,34.334,18.359z"/>
	<path d="M46.188,47.215l0.205-12.534c0.597-0.028,1.076-0.355,1.324-0.909c0.091-0.203,0.248-0.413,0.429-0.656
		c0.488-0.657,1.156-1.556,0.971-3.095c-0.213-1.765,0.213-3.782,0.289-3.979c0.164-0.321,0.062-1.046-0.211-1.492
		c-0.379-0.617-1.07-0.75-1.763-0.279c-0.026,0.019-0.053,0.037-0.079,0.055c0.319-3.426,0.491-10.522-2.963-14.064
		C39.883,5.64,35.582,4,33.269,4h-0.283c-2.34,0-6.672,1.64-11.18,6.261c-3.44,3.528-3.28,10.656-2.966,14.112
		c-0.025-0.018-0.051-0.036-0.077-0.054c-0.692-0.472-1.391-0.341-1.769,0.277c-0.273,0.447-0.372,1.148-0.216,1.45
		c0.085,0.215,0.507,2.223,0.295,3.986c-0.186,1.54,0.479,2.437,0.966,3.091c0.18,0.242,0.336,0.452,0.427,0.654
		c0.246,0.551,0.721,0.878,1.309,0.907l0.136,12.531c-1.439,5.405-9.526,8.961-9.608,8.996L10,56.343v0.328V64h21.796h2.719H55h1
		v-7.656l-0.3-0.131C55.62,56.178,47.629,52.621,46.188,47.215z M34.302,15.664c1.233,0.343,2.147,1.465,2.147,2.806
		c0,1.612-1.312,2.924-2.925,2.924S30.6,20.083,30.6,18.47c0-1.395,0.984-2.562,2.294-2.852c0.074-0.326,0.352-0.574,0.7-0.574
		C33.956,15.044,34.246,15.316,34.302,15.664z M32.985,5L32.985,5L32.985,5L32.985,5z"/>
</g>
</svg>
