<?xml version="1.0" encoding="utf-8"?>
<!-- Generator: Adobe Illustrator 17.0.2, SVG Export Plug-In . SVG Version: 6.00 Build 0)  -->
<!DOCTYPE svg PUBLIC "-//W3C//DTD SVG 1.1//EN" "http://www.w3.org/Graphics/SVG/1.1/DTD/svg11.dtd">
<svg version="1.1" id="Layer_1" xmlns="http://www.w3.org/2000/svg" xmlns:xlink="http://www.w3.org/1999/xlink" x="0px" y="0px"
	 width="64px" height="64px" viewBox="0 0 64 64" enable-background="new 0 0 64 64" xml:space="preserve">
<g>
	<g>
		<path d="M49.678,64c-4.914-3.111-9.815-12.205-9.23-12.866s1.425-3.219,1.501-4.045c0.661,0.331,1.348,0.037,1.348,0.037
			c2.34-0.271,0.916-3.049,1.832-5.457c1.357-2.883,0.78-4.357,0.78-4.357s1.662-1.534,1.221-1.907
			c-0.441-0.373-0.271-1.869-0.271-1.564s0.271,1.287,1.051-0.918c1.696-2.612,1.967-4.037,1.594-6.31
			c-0.373-2.273,0.78-1.968-0.305-3.358c-0.543-2.51-1.119-1.527-1.594-3.63c-0.475-2.103-2.069-0.102-1.643-1.187
			c1.189-1.603-1.189-2.798-0.655-3.562c1.475-2.061,0.305-3.918-1.984-6.004s-3.053,3.129-3.536,1.45s1.704-3.333,0-3.612
			c-1.704-0.28-1.196-0.916-1.984-1.272s-1.781,0.331-3.536,2.569s-1.425-0.814-2.239-1.272c-0.814-0.458-1.806,1.297-1.857,1.196
			c-0.051-0.102-0.153-1.119-2.544-0.992s-3.536,3.689-4.579,4.121c-1.043,0.432-1.068,1.755-1.297,1.577s-0.839-1.094-0.839,0
			s-0.159,1.158-1.221,1.662c-3.799,1.798-4.002,0.644-5.834,3.494c-2.68,2.273-0.475,6.173-1.335,8.039s0.827,1.018,0.114,3.731
			c-0.712,2.714,2.137,4.511,2.205,6.547c0.068,2.035,1.425,1.798,1.153,2.002c-0.271,0.204-0.441,1.154-0.136,1.833
			c0.305,0.678,1.459,4.819,1.459,4.819c0.407,3.528,2.355,2.387,3.203,2.116c0.038,0.925,1.071,4.28,1.071,4.28
			C24.438,58.282,14.398,64,14.398,64H49.678z M20.707,35.455C25.232,31.545,31.091,35,31.091,35h0.297
			c0,0,5.859-3.455,10.383,0.455c-2.893-0.757-8.158-0.901-10.383,1.944l-0.297,0.065C28.866,34.619,23.6,34.698,20.707,35.455z"/>
	</g>
	<g>
		<circle cx="43.077" cy="48.54" r="0.661"/>
	</g>
	<g>
		<rect x="41.655" y="50.509" transform="matrix(0.6936 -0.7203 0.7203 0.6936 -24.1478 46.7853)" width="2.543" height="2.543"/>
	</g>
	<g>
		<circle cx="19.062" cy="48.54" r="0.661"/>
	</g>
	<g>
		<rect x="17.64" y="50.509" transform="matrix(0.6936 -0.7203 0.7203 0.6936 -31.5053 29.4866)" width="2.543" height="2.543"/>
	</g>
</g>
</svg>
