<?xml version="1.0" encoding="utf-8"?>
<!-- Generator: Adobe Illustrator 17.0.2, SVG Export Plug-In . SVG Version: 6.00 Build 0)  -->
<!DOCTYPE svg PUBLIC "-//W3C//DTD SVG 1.1//EN" "http://www.w3.org/Graphics/SVG/1.1/DTD/svg11.dtd">
<svg version="1.1" id="Layer_1" xmlns="http://www.w3.org/2000/svg" xmlns:xlink="http://www.w3.org/1999/xlink" x="0px" y="0px"
	 width="64px" height="64px" viewBox="0 0 64 64" enable-background="new 0 0 64 64" xml:space="preserve">
<g>
	<path d="M49.342,23.995c0-3.478-1.206-4.542-2.129-6.955c-0.639-1.277-0.497-4.14-3.099-8.682
		c-5.672-8.416-10.37-6.176-10.676-6.018c-0.306-0.158-5.004-2.398-10.676,6.018c-2.602,4.542-2.46,7.428-3.099,8.706
		c-0.923,2.413-2.129,3.466-2.129,6.943c0,0-0.213,2.478,1.348,5.317s3.655,7.804,3.939,8.549
		c0.284,0.745,4.294,10.679,5.429,12.596s1.987,6.954,2.2,8.019c0.213,1.065,0.674,2.307,1.419,2.696c0,0,1.66,0.78,3.137,0
		c0.816-0.431,1.206-1.632,1.419-2.697s1.065-6.103,2.2-8.02c1.136-1.916,5.145-11.852,5.429-12.597s2.377-5.713,3.939-8.552
		C49.555,26.479,49.342,23.995,49.342,23.995z M33.534,30c0,0,3.004,0.451,2.744,2.06c-0.26,1.609-2.602-0.443-2.768-0.703
		l-0.055-0.304c-0.166,0.26-2.508,2.783-2.768,1.174C30.427,30.618,33.431,30,33.431,30H33.534z M22.857,27.993
		c-2.697-2.791,2.366-4.731,3.478-6.553c0,0,1.81-1.739,2.271-3.868s2.377-1.561,2.59-0.994c0.343,0.509,1.171,1.774-0.532,5.571
		C30.664,22.15,27.21,30.169,22.857,27.993z M37.469,41.431c-0.213,6.245-1.234,17.419-3.17,18.383
		c-0.626,0.312-1.601,0.027-1.601,0.027c-1.981-0.414-2.957-12.177-3.17-18.422c-0.211-6.182,3.887-5.584,3.97-5.572
		C33.583,35.833,37.68,35.251,37.469,41.431z M43.978,27.993c-4.353,2.176-7.807-5.843-7.807-5.843
		c-1.703-3.797-0.875-5.063-0.532-5.571c0.213-0.568,2.129-1.136,2.59,0.994c0.461,2.129,2.271,3.868,2.271,3.868
		C41.613,23.261,46.675,25.201,43.978,27.993z"/>
</g>
</svg>
