<?xml version="1.0" encoding="iso-8859-1"?>
<!-- Generator: Adobe Illustrator 17.1.0, SVG Export Plug-In . SVG Version: 6.00 Build 0)  -->
<!DOCTYPE svg PUBLIC "-//W3C//DTD SVG 1.1//EN" "http://www.w3.org/Graphics/SVG/1.1/DTD/svg11.dtd">
<svg version="1.1" id="Layer_1" xmlns="http://www.w3.org/2000/svg" xmlns:xlink="http://www.w3.org/1999/xlink" x="0px" y="0px"
	 viewBox="0 0 64 64" style="enable-background:new 0 0 64 64;" xml:space="preserve">
<g>
	<g>
		<path d="M54.757,49.362c-0.996-2.912-5.034-3.093-6.254-6.391c-1.151-2.594-5.04-4.094-7.274-3.235c0,0,2.154-2.091,4.044-2.881
			c1.89-0.79,12.25-5.068,2.869-11.408c0,0,1.134-3.299-1.546-6.391c0,0,0.464-3.093-0.979-4.123c0,0,0.954-4.549-3.295-8.069
			c0.107,0.459,0.124,1.089,0.022,1.962c3.015,1.314,3.24,5.147,3.204,6.142c-1.546-2.543-2.199-2.405-4.776-3.556
			c-2.285,0-2.087-1.709-2.087-1.709s-0.541,0.206-1.237,0.155c-0.696-0.052-1.211-0.438-1.211-0.438s-0.335,1.52-2.01,1.52
			c-1.675,0-1.83-1.16-1.83-1.16c-0.954,0.567-3.788,0.747-3.788,0.747c-6.329,0.581-7.263,4.361-7.399,5.591
			c-0.008,0.129-0.02,0.255-0.023,0.388c0,0-0.004-0.145,0.023-0.388c0.503-8.633,10.852-9.701,10.852-9.701
			S31.7,4.288,34.045,4.288s2.551,2.113,2.577,2.036c0.026-0.077,0.206-0.425,1.185-0.425c0.979,0,1.417,0.966,1.417,0.876
			c0-0.089,0.353-1.022,1.457-1.051c-0.505-0.296-1.054-0.579-1.664-0.843C31.03,1.428,20.928,6.273,20.052,14.932
			c0,0-5.567,1.392-5.206,8.762c-3.041,1.289-7.371,3.041-3.608,8.195c3.723,4.661,5.979,6.855,7.113,8.608
			c-3.591-0.619-5.034,1.203-6.305,3.402C8.97,48.76,5.62,49.98,5.774,52.145s1.014,4.192,1.151,4.381c0,0-0.928,1.031-0.43,1.89
			l0.292,0.565L4.125,63h0.361h47.419l-0.876-4h0.464l-0.052-0.902C51.441,58.098,56.956,57.883,54.757,49.362z"/>
	</g>
</g>
</svg>
