<?xml version="1.0" encoding="iso-8859-1"?>
<!-- Generator: Adobe Illustrator 17.1.0, SVG Export Plug-In . SVG Version: 6.00 Build 0)  -->
<!DOCTYPE svg PUBLIC "-//W3C//DTD SVG 1.1//EN" "http://www.w3.org/Graphics/SVG/1.1/DTD/svg11.dtd">
<svg version="1.1" id="Layer_1" xmlns="http://www.w3.org/2000/svg" xmlns:xlink="http://www.w3.org/1999/xlink" x="0px" y="0px"
	 viewBox="0 0 64 64" style="enable-background:new 0 0 64 64;" xml:space="preserve">
<g>
	<g>
		<path d="M17.802,35.566c4.663,0.511,5.557-0.319,5.557-0.319s-1.469,1.533-5.046,1.597c0.894,3.897,6.26,5.43,7.793,5.43
			c1.533,0,1.924-1.334,2.044-1.852c0,0,1.533,1.341,3.066,1.341s2.832-0.49,3.599-1.618c0.788,1.746,1.597,2.896,3.684,2.449
			c2.811-0.575,5.302-2.364,6.643-5.366c0,0-3.13-0.128-4.088-0.703c-0.885-0.531,4.428,1.383,9.828-2.944
			c0.712-3.004,1.165-6.01,1.287-8.874C53.191,0.688,40.516,2.938,31.345,3.115c-9.116,0.177-21.08-1.022-19.675,19.547
			c-0.017,2.898,0.221,5.818,0.67,8.683C13.473,33.204,15.282,35.29,17.802,35.566z M42.779,27.219
			c-3.375,0-6.111-0.963-6.111-2.151c0-1.188,2.736-2.151,6.111-2.151s6.111,0.963,6.111,2.151
			C48.89,26.256,46.154,27.219,42.779,27.219z M42.677,13.911c3.992,0,7.378,3.769,7.634,4.152c0,0-3.513-2.683-6.963-2.683
			s-6.643,4.408-8.304,3.513C33.382,17.999,38.684,13.911,42.677,13.911z M20.805,27.219c-3.375,0-6.111-0.963-6.111-2.151
			c0-1.188,2.736-2.151,6.111-2.151s6.111,0.963,6.111,2.151C26.916,26.256,24.18,27.219,20.805,27.219z M21.923,13.911
			c3.992,0,9.294,4.088,7.634,4.983s-4.855-3.513-8.304-3.513s-6.963,2.683-6.963,2.683C14.545,17.68,17.93,13.911,21.923,13.911z"
			/>
	</g>
	<g>
		<path d="M50.617,34.657c-0.833,0.88-1.994,1.761-3.494,2.122c-0.447,3.961-8.688,12.073-12.967,8.56
			c-1.966-1.676-2.59-2.683-2.59-2.683l-2.009,2.204c0,0-5.685,6.1-13.638-8.304c0,0-1.588-0.078-3.241-3.273
			c2.71,14.186,10.437,26.582,17.588,27.742c-0.36-2.314-1.412-4.088-1.412-5.465c0-1.661,1.086-2.482,1.086-4.27
			S28.534,49,28.534,49h2.811h0.511h2.811c0,0-1.405,0.533-1.405,2.322s1.086,2.486,1.086,4.147c0,1.356-1.021,3.147-1.396,5.416
			C39.879,59.197,47.413,47.099,50.617,34.657z"/>
	</g>
</g>
</svg>
