<?xml version="1.0" encoding="utf-8"?>
<!-- Generator: Adobe Illustrator 17.0.2, SVG Export Plug-In . SVG Version: 6.00 Build 0)  -->
<!DOCTYPE svg PUBLIC "-//W3C//DTD SVG 1.1//EN" "http://www.w3.org/Graphics/SVG/1.1/DTD/svg11.dtd">
<svg version="1.1" id="Layer_1" xmlns="http://www.w3.org/2000/svg" xmlns:xlink="http://www.w3.org/1999/xlink" x="0px" y="0px"
	 width="64px" height="64px" viewBox="0 0 64 64" enable-background="new 0 0 64 64" xml:space="preserve">
<g>
	<path d="M52.905,15.163C51.648,12.261,48.746,5.2,38.396,2.589S23.984,6.168,23.984,6.168C7.638,5.878,5.994,30.784,6.042,32.187
		s-0.177,2.579,0.693,10.188s7.754,11.688,7.48,11.349s-1.209-2.563-0.371-1.467c0.838,1.096,3.676,2.45,3.401,2.176
		c-0.274-0.274-1.145-2.547-0.774-1.951s1.934,1.596,2.998,2.08c1.064,0.484,3.401,3.789,5.562,5.916
		c1.948,1.918,5.354,1.466,5.802,1.23c0.447-0.235,1.623-0.206,3.167,0.083c5.126,1.016,7.152-4.457,8.168-6.029
		c3.095,0.701,4.739-5.271,4.836-4.304S45.19,55.52,45.19,55.52c1.934,0.145,4.909-5.344,5.054-4.788s-0.774,2.055-0.774,2.055
		c5.586-3.24,6.335-8.608,6.335-8.608C59.192,31.413,54.162,18.065,52.905,15.163z M47.083,39.762
		c-3.917,0.967-10.495,1.594-12.139-2.468S31.665,33,31.665,33h-0.329c0,0-1.693,0.15-3.337,4.212
		c-1.644,4.062-8.222,3.274-12.139,2.306C11.942,38.551,13.925,30,13.925,30h17.41h0.387h17.295
		C49.018,30,51.001,38.795,47.083,39.762z"/>
</g>
</svg>
