<?xml version="1.0" encoding="utf-8"?>
<!-- Generator: Adobe Illustrator 17.0.2, SVG Export Plug-In . SVG Version: 6.00 Build 0)  -->
<!DOCTYPE svg PUBLIC "-//W3C//DTD SVG 1.1//EN" "http://www.w3.org/Graphics/SVG/1.1/DTD/svg11.dtd">
<svg version="1.1" id="Layer_1" xmlns="http://www.w3.org/2000/svg" xmlns:xlink="http://www.w3.org/1999/xlink" x="0px" y="0px"
	 width="64px" height="64px" viewBox="0 0 64 64" enable-background="new 0 0 64 64" xml:space="preserve">
<g>
	<path d="M11.03,60.826c0.03-0.87,0.51-0.286,1.32-0.736c0.81-0.45,2.04-2.888,2.7-2.858s0.87,0.234,2.1-0.246S19.52,55,19.52,55
		h0.09c0,0,0.54-0.161,1.08,0.199C20.648,57.787,22.274,61,23.106,64h27.871c0.082-1,0.142-1.185,0.165-1.734
		c0.09-2.19,1.95-1.184,1.293-0.104C52.019,62.848,52.12,63,52.375,64h7.875c-0.048-2-0.164-4.337-1.458-11.904
		c-1.26-10.29-6.27-11.446-7.14-11.236s-7.125-2.183-7.425-2.963c-0.3-0.78-0.9,0.011-0.66-0.754
		c0.24-0.765-0.457-0.737-0.457-0.737c-0.727-3.503,1.935-2.742,4.343-2.742c2.408,0,2.543-1.337,2.273-1.877
		c-0.27-0.54-0.608-1.557-0.315-1.895c0.292-0.338,0.022-0.835,0.022-0.835l6.66,0.479c0.3-0.33,0-0.601,0-0.601l-6.9-0.69
		c0.72-0.63,0.12-0.9,0.03-1.08s-0.12-1.11-0.12-1.11s2.056-1.1,1.47-1.47c-0.593-0.375-1.703-1.875-1.5-1.875
		c0.202,0,3.51-0.608,3.69-2.565c0.18-1.958-3.015-2.25-3.015-2.25s-1.935,0-1.71-1.035c0.225-1.035-0.338-1.822-0.653-2.408
		c-0.315-0.585-0.025-1.063,0.338-0.428c0.363,0.635,1.17,0.394,1.271-0.157s-0.27-0.506-0.416-0.529
		c-0.146-0.022-1.901,0.326-1.215-0.315s-0.349-1.294-0.529-1.001c-0.18,0.293-1.26,0.641-1.058,0.101
		c0.551-1.08-0.934-1.249-0.934-1.249c-0.09-0.27-1.305-2.7-10.755-0.315s-7.335,7.875-7.335,7.875s-2.811,0.829-3.285,2.025
		c-0.54,2.835,3.06,3.938,2.88,4.118c-0.18,0.18-0.09,1.575-0.09,1.575c-1.08,2.363,0.765,4.118,0.765,4.118s-1.088,0.317-0.72,1.62
		c0.855,3.42,3.51,1.845,4.185,0.945c0.495,0.36,1.17,0.36,1.53,0c0.36,0.315,0,1.545,0,1.545c-0.465-0.15,0.15,0.795-0.675,0.66
		s-0.165,1.125-0.6,1.035c-0.9-0.9-0.63,0.57-1.155,0.21c-0.525-0.36-0.465,0.975-0.78,0.66s-0.66,0.255-0.66,0.255
		c-4.5,2.07-5.265,0.945-8.415,3.465s-4.487,1.649-5.355,3.6C13.522,48.134,6.5,52.816,2.99,58.486C1.879,60.282,1.631,62,1.797,64
		h8.349C10.934,62,11.007,61.512,11.03,60.826z M36.359,27.749c0.559,0,1.013,0.453,1.013,1.013c0,0.559-0.453,1.013-1.013,1.013
		s-1.013-0.453-1.013-1.013S35.799,27.749,36.359,27.749z"/>
</g>
</svg>
