<?xml version="1.0" encoding="utf-8"?>
<!-- Generator: Adobe Illustrator 17.0.2, SVG Export Plug-In . SVG Version: 6.00 Build 0)  -->
<!DOCTYPE svg PUBLIC "-//W3C//DTD SVG 1.1//EN" "http://www.w3.org/Graphics/SVG/1.1/DTD/svg11.dtd">
<svg version="1.1" id="Layer_1" xmlns="http://www.w3.org/2000/svg" xmlns:xlink="http://www.w3.org/1999/xlink" x="0px" y="0px"
	 width="64px" height="64px" viewBox="0 0 64 64" enable-background="new 0 0 64 64" xml:space="preserve">
<g>
	<path d="M46.214,22.906c1.535-0.996,0.916-2.935,0.202-3.635c0.592-0.835,1.373-2.558-0.094-2.531
		c0.7-1.616-0.242-1.723,0.162-2.37c0.404-0.646,0.189-1.616-0.11-2.1c-0.299-0.485-0.374-0.377-0.051-2.639
		s-0.996-2.02-0.889-3.555c0.108-1.535-1.212-3.635-2.908-4.255c-1.696-0.619-1.858-1.804-5.116-0.808
		c-4.147,1.104-2.37,2.316-4.174,3.797s-0.808,2.531-0.377,3.366c-0.162,1.077,1.109,1.31,0.646,1.939
		c-1.67,1.939-0.188,2.343-0.889,3.905s-0.054,2.451,0.18,3.142c-1.059-0.664-1.275,1.364-0.126,3.16
		c-0.867,2.481,0.61,2.858,1.545,3.598c-0.685-0.495-2.263-0.743-2.263-0.743c-0.826-1.113-2.262-1.939-2.262-1.939
		c-0.305-0.7-0.7-0.772-0.7-0.772c-0.413-0.054-0.718,0.162-0.718,0.162c-0.628-0.682-2.836-1.652-2.836-1.652
		c-3.465-1.598-2.926,0.682-4.237,0.467c-1.31-0.215-1.275,1.059-2.639,1.059s-1.993,1.005-1.993,1.005
		c-0.754,0-1.213,0.439-2.154,0.916c-1.239,0.539-10.394,5.17-10.125,6.086c0.377,5.332,12.764,10.556,12.764,10.556
		c4.47,2.37,6.409,2.047,8.94,2.963s3.824,3.502,3.824,3.502l-0.108,1.079c0,0.635,1.906,4.112,2.098,4.428
		c-0.427,1.876,0.324,1.725,0.378,3.016c0.054,1.293-0.218,1.416-0.433,2.062s0.48,2.401-1.135,3.909S27.5,64,27.5,64h19.417
		c-0.215-1.023,0.671-4.04,1.317-5.279s0.215-1.993,0.215-1.993s0.485-0.054,0.808-1.293c0.323-1.239,0.215-3.716,0.7-3.86
		s1.113-1.31,1.149-1.131c0.036,0.18,0.197,1.472-0.108,1.741s-0.431,0.485-0.305,0.574c0.126,0.09,0.664,0.736,0.485,0.718
		c-0.18-0.018-0.449,0.215-0.323,0.377s0.592,1.293,0.126,2.038c-0.835,0.727,0.467,1.589,0.359,1.625
		c-0.108,0.036-0.503,0.072-0.503,0.072c0.144,0.215,0.646,1.446,0.215,2.2C50.37,60.975,50.765,64,50.765,64h5.709
		c0.718-3.728-0.287-5.449-0.395-6.239c-0.108-0.79-0.359-3.344,0-4.78c0.359-1.436,0.431-8.101,0.431-8.101
		c0.503-5.099,0.323-8.599-1.418-10.718c-1.741-2.118-6.517-0.144-6.337-1.167s-0.934-0.61-0.934-0.61
		c-0.072-0.682-0.88-0.431-0.88-0.431c-0.036-0.592-0.754-0.485-0.754-0.485c-0.197-0.503-0.79,0.036-1.005-0.144
		c-0.215-0.18-0.305-0.233-0.305-0.233c0.718-0.467,0.933-2.585,0.933-2.585c1.257,1.921,7.666,2.388,7.576-1.67
		c-0.09-4.057-4.255-1.706-3.249-1.508c1.005,0.197,1.759,2.047-0.934,2.047s-2.37-3.088-4.973-2.944
		c0.251-0.144,0.359-0.664,0.359-0.664l16.836-0.633l0.024-0.517c0,0-8.682,0.35-12.372,0.539
		C45.389,23.346,46.214,22.906,46.214,22.906z M31.879,34.862c0,0-1.005,0.287-1.688,0.862c-1.831-1.077-7.145-1.077-10.592-2.729
		c-0.898-0.323-2.513-1.221-3.914-1.616s-2.944-0.969-3.231-1.293c-0.287-0.323,2.011-1.113,2.154-1.831
		c2.765-2.047,2.334-2.872,3.052-3.303s0.682,0,0.934-0.431c0.251-0.431,0.503-0.027,1.149-0.566s1.75-1.225,2.666-1.037
		c0,0,0.31-0.067,0.808,0.377c0.498,0.444,1.104,0.619,1.306,0.619s0.054,0.485-0.256,0.431c-0.31-0.054-2.114-1.36-2.828-0.66
		s1.104,3.541,1.252,3.73c0,0,0.319,0.624,0.319,0.983s0.018,0.359,0.395,0.736s-0.144,0.431,0.467,1.167
		c0.61,0.736,1.436,1.221,2.352,1.257c0.916,0.036,0.682,0.413,1.023,0.736c0.341,0.323,0.934-0.269,1.293,0.664
		c0.287,0.682,0.754-0.61,1.275,0.197s0.718,0.736,1.239,0.592s0.862-0.377,1.041,0.072C32.274,34.27,31.484,33.911,31.879,34.862z"
		/>
</g>
</svg>
