<?xml version="1.0" encoding="utf-8"?>
<!-- Generator: Adobe Illustrator 17.0.2, SVG Export Plug-In . SVG Version: 6.00 Build 0)  -->
<!DOCTYPE svg PUBLIC "-//W3C//DTD SVG 1.1//EN" "http://www.w3.org/Graphics/SVG/1.1/DTD/svg11.dtd">
<svg version="1.1" id="Layer_1" xmlns="http://www.w3.org/2000/svg" xmlns:xlink="http://www.w3.org/1999/xlink" x="0px" y="0px"
	 width="64px" height="64px" viewBox="0 0 64 64" enable-background="new 0 0 64 64" xml:space="preserve">
<path d="M52.87,27.761c-0.406-0.486-0.826-0.99-0.084-4.141c0.234-1.562,0.076-2.601-0.498-3.269
	c-0.208-0.242-0.551-0.52-1.075-0.629c0.172-0.979,0.1-2.417-0.989-4.246c-2.682-4.012-5.584-4.854-7.547-4.854
	c-1.194,0-2.204,0.315-2.845,0.612c-0.391-0.149-0.777-0.241-1.126-0.297c0.125-0.98-0.041-1.942-0.496-2.834
	c-1.025-2.011-3.444-3.541-7.189-4.547c-1.944-0.522-3.586-0.776-5.024-0.776c-2.522,0-4.188,0.759-6.118,1.638
	c-0.657,0.3-1.357,0.62-2.152,0.933c-3.135,1.239-5.574,3.749-7.091,7.281c-1.468-0.05-2.709,0.512-3.349,1.502
	c-0.452,0.699-0.569,1.535-0.347,2.406c-0.359,0.455-0.462,0.914-0.476,1.259c-0.017,0.448,0.11,0.852,0.281,1.188
	c-0.162,0.196-0.261,0.396-0.323,0.571c-0.176,0.502-0.111,0.986,0.006,1.354c-0.445,0.82-0.377,1.568-0.161,2.105
	c-1.043,2.457-0.689,4.229-0.431,4.989c-1.118,4.678,1.383,7.974,2.705,9.331c-1.985,2.947,0.564,5.329,2.137,6.799
	c0.516,0.481,1.379,1.288,1.413,1.583c-0.784,3.564,0.396,4.542,1.562,5.18c0.117,0.063,0.276,0.151,0.293,0.208
	c0.504,2.657,2.009,4.307,3.928,4.307c0.366,0,0.733-0.061,1.098-0.182c0.808,3.465,0.396,7.619,0.391,7.665L19.25,64h22.265
	l-0.791-1.6c-0.598-1.116-0.708-6.401-0.601-10.401c0.015,0,0.029,0,0.044,0c6.185,0,6.498-2.745,6.498-3.321
	c0-0.097-0.013-0.126-0.034-0.329c-0.16-1.527-0.122-3.202,1.366-4.055c2.764-1.584,2.605-3.376,2.45-3.989
	c-0.072-0.869,0.115-1.089,0.511-1.554c0.764-0.898,1.441-1.933,1.36-4.584c0.536-0.461,1.364-1.427,1.404-3.33
	C53.895,29.146,53.418,28.417,52.87,27.761z M21.69,30.334c-0.502,1.281-4.724-1.106-5.78-0.327
	c-1.056,0.779-1.747,2.262-1.747,2.262c0-1.785,1.357-2.84,1.922-3.192C16.749,28.664,22.193,29.052,21.69,30.334z M32.435,44.031
	c-0.312,0-0.566-0.254-0.566-0.566c0-0.312,0.254-0.565,0.566-0.565S33,43.154,33,43.465C33,43.777,32.746,44.031,32.435,44.031z
	 M33.377,28.7c-2.589,0.05-5.027,2.312-5.68,1.458c-0.653-0.854,2.086-2.186,4.75-2.538s4.926,2.437,5.152,3.493
	C35.438,28.574,33.377,28.7,33.377,28.7z"/>
</svg>
