<?xml version="1.0" encoding="utf-8"?>
<!-- Generator: Adobe Illustrator 17.0.2, SVG Export Plug-In . SVG Version: 6.00 Build 0)  -->
<!DOCTYPE svg PUBLIC "-//W3C//DTD SVG 1.1//EN" "http://www.w3.org/Graphics/SVG/1.1/DTD/svg11.dtd">
<svg version="1.1" id="Layer_1" xmlns="http://www.w3.org/2000/svg" xmlns:xlink="http://www.w3.org/1999/xlink" x="0px" y="0px"
	 width="64px" height="64px" viewBox="0 0 64 64" enable-background="new 0 0 64 64" xml:space="preserve">
<g>
	<path d="M22.341,30.924c-3.135,0-5.706,0.878-7.235,2.472c-1.173,1.221-1.728,2.82-1.649,4.75c0.165,4.04,4.068,7.204,8.885,7.204
		c2.698,0,5.22-0.977,6.916-2.679c1.275-1.278,1.973-2.889,1.968-4.535C31.211,33.283,28.305,30.924,22.341,30.924z"/>
	<path d="M43.674,30.47c-3.135,0-5.705,0.877-7.234,2.471c-1.173,1.222-1.728,2.82-1.65,4.751c0.165,4.04,4.068,7.204,8.885,7.204
		c2.699,0,5.221-0.977,6.917-2.68c1.275-1.278,1.973-2.888,1.968-4.534C52.544,32.829,49.638,30.47,43.674,30.47z"/>
	<path d="M58.29,33.885c0-13.939-12.745-27.62-25.729-27.62c-6.206,0-12.631,3.222-17.627,8.84
		c-4.851,5.454-7.721,12.324-7.875,18.845C6.53,45.296,12.296,52.211,24.194,54.503l0.631,0.122l-0.405-0.499
		c-0.019-0.023-1.343-1.669-2.831-4.335c0.831,0.065,2.951,0.443,5.411,2.506c2.257,1.894,4.17,2.854,5.686,2.854l0.227,0.001
		c0.899,0,2.314-0.187,4.207-1.798l0.31-0.264c1.949-1.663,4.35-3.713,5.909-3.908c-1.523,3.146-2.882,5.138-2.913,5.184
		l-0.337,0.488l0.579-0.125C56.416,51.312,58.468,40.199,58.29,33.885z M51.136,42.798c-1.915,1.92-4.759,3.021-7.804,3.021
		c-5.433,0-9.286-3.527-9.645-8.069c-0.063-0.804-1.439-0.895-1.516,0.453c-0.105,1.851-0.936,3.61-2.372,5.049
		c-1.91,1.92-4.754,3.021-7.798,3.021c-5.433,0-9.834-3.566-10.02-8.119c-0.089-2.175,0.536-3.975,1.857-5.351
		c1.725-1.797,4.624-2.786,8.162-2.786c3.391,0,5.879,0.656,7.529,1.995c0.27,0.039,1.722,0.24,3.236,0.24
		c1.32,0,2.319-0.147,2.969-0.438l0.031-0.014c1.76-1.448,4.413-2.237,7.567-2.237c6.819,0,10.003,2.583,10.02,8.128
		C53.358,39.545,52.571,41.358,51.136,42.798z"/>
</g>
</svg>
