<?xml version="1.0" encoding="iso-8859-1"?>
<!-- Generator: Adobe Illustrator 17.1.0, SVG Export Plug-In . SVG Version: 6.00 Build 0)  -->
<!DOCTYPE svg PUBLIC "-//W3C//DTD SVG 1.1//EN" "http://www.w3.org/Graphics/SVG/1.1/DTD/svg11.dtd">
<svg version="1.1" id="Layer_1" xmlns="http://www.w3.org/2000/svg" xmlns:xlink="http://www.w3.org/1999/xlink" x="0px" y="0px"
	 viewBox="0 0 64 64" style="enable-background:new 0 0 64 64;" xml:space="preserve">
<g>
	<path d="M50.319,46.36c-0.179-0.346-0.367-0.691-0.576-1.034c2.972-6.892-1.797-9.486-3.318-11.055
		c1.037-3.412-1.244-3.89-2.189-4.754c1.106-1.001,6.82,0.637,6.82,0.637l-7.235-5.596c0.323-0.864,2.304-9.827,1.797-12.101
		c-3.041-4.003-7.05-6.324-8.802-7.279c-1.751-0.955-9.493-2.093-10.737-0.864c-3.41,3.458-5.507,11.533-5.507,11.533
		s-8.917-0.102-8.295,0c0.622,0.102,5.23,2.343,5.991,3.003c0.242,0.21,0.472,0.441,0.677,0.736
		c-0.651,0.381-1.181,0.892-1.362,1.708c-0.155,0.696-0.205,1.363-0.134,2.073c0.096,0.955,0.362,2.28-0.982,2.476
		c-0.352,0.051-0.202,0.577,0.147,0.526c1.328-0.193,1.553-1.248,1.444-2.428c-0.078-0.839-0.19-1.673,0.059-2.502
		c0.201-0.669,0.598-1.074,1.103-1.381c0.178,0.365,0.324,0.816,0.426,1.394c-0.036,0.084-0.068,0.174-0.092,0.275
		c-0.187,0.796-0.057,1.96-1.059,2.206c-0.346,0.085-0.199,0.611,0.147,0.526c0.62-0.152,0.972-0.563,1.157-1.094
		c-0.059,3.645-3.59,5.207-3.316,5.83c0.564,1.359,3.053,1.35,2.396,1.862c-0.657,0.512-0.709,1.587,0.268,2.107
		c-0.138,0.171-0.925,0.81-0.348,1.132c1.405,0.705,0.422,2.661,0.426,3.355c0.207,1.399,3.629,0.921,5.334,1.649
		c1.705,0.728,0.737,3.048,0.783,4.413c0.046,1.365,1.635,4.066,0.783,4.569c-3.226,1.385-2.442,3.347-2.995,5.03
		c-0.553,1.683-1.014-0.5-1.751-0.5c-0.737,0-1.843,1.41-2.35,5.687c-0.063,0.095-0.115,0.185-0.176,0.279
		c4.053-4.086,9.482-6.833,14.855-8.712C39.059,48.193,44.664,46.975,50.319,46.36z"/>
</g>
</svg>
