<?xml version="1.0" encoding="iso-8859-1"?>
<!-- Generator: Adobe Illustrator 17.1.0, SVG Export Plug-In . SVG Version: 6.00 Build 0)  -->
<!DOCTYPE svg PUBLIC "-//W3C//DTD SVG 1.1//EN" "http://www.w3.org/Graphics/SVG/1.1/DTD/svg11.dtd">
<svg version="1.1" id="Layer_1" xmlns="http://www.w3.org/2000/svg" xmlns:xlink="http://www.w3.org/1999/xlink" x="0px" y="0px"
	 viewBox="0 0 64 64" style="enable-background:new 0 0 64 64;" xml:space="preserve">
<g>
	<g>
		<path d="M47.953,23.208c0,0,3.408-7.987-0.319-12.566c0,0-0.781-0.639-5.573-0.177c-3.585,0.142-6.354-3.834-12.886-3.798
			c-6.532,0.036-11.395,4.402-13.063,11.75C16.111,18.416,39.753,14.156,47.953,23.208z"/>
	</g>
	<g>
		<path d="M62.081,31.941c-14.554-2.414-15.335-4.899-31.025-9.229C15.366,18.381,1.167,17.6,1.167,24.06s9.797,7.809,9.797,7.809
			c-3.976,7.596,1.633,13.17,1.633,13.17c-0.373,2.396,2.13,2.769,2.13,2.769c-0.373,2.13-3.142,1.81-3.142,1.81
			c1.278,1.012,2.662,1.384,2.662,1.384c3.142,2.982,5.484-0.373,5.484-0.373c2.077,1.757,3.94,3.993,3.94,3.993
			c3.621,3.461,3.621,3.408,6.603,3.142c3.248,0.532,5.431-1.597,7.029-3.461c1.597-1.864,3.834-3.674,3.834-3.674
			c3.142,6.23,7.401,1.491,7.401,1.491c-0.692-0.053-0.799-0.745-0.799-0.745c3.142-0.799,3.692-2.822,3.692-2.822
			c-2.414,1.207-3.195-0.426-3.195-0.426c2.911-0.071,3.124-2.201,3.124-2.201c-1.846,1.207-3.053,0.284-3.053,0.284
			c4.544-0.994,5.254-7.667,1.704-11.643c5.041,1.278,2.414,9.513,2.414,9.513c3.337-3.266,0.923-8.023,0.923-8.023
			S66.411,32.509,62.081,31.941z M22.927,49.885c0,0-1.012-3.354,1.97-3.78c2.982-0.426,3.514-3.115,5.085-0.932
			c1.571,2.183-2.636,2.316-3.914,2.662C24.79,48.181,23.22,49.352,22.927,49.885z M30.736,54.411
			c-0.958-0.461-2.627-2.698-2.627-2.698c-0.426-0.603,0.426-1.171,2.804-1.171c2.378,0,2.449,0.781,2.449,1.029
			S31.695,54.872,30.736,54.411z M38.256,49.885c-0.293-0.532-1.864-1.704-3.142-2.05c-1.278-0.346-5.484-0.479-3.914-2.662
			c1.571-2.183,2.103,0.506,5.085,0.932C39.268,46.53,38.256,49.885,38.256,49.885z M47.039,36.855
			c-1.583-0.229-1.823,0.722-1.823,0.722c-0.31,0.654-0.206,5.917-6.192,5.917c-7.19,0-6.365-6.399-6.536-6.674
			c-1.066-0.241-3.234,0-3.234,0c0.103,3.75-2.202,6.64-6.571,6.64s-5.504-2.959-5.952-5.126c-0.447-2.167-1.858-1.239-2.099-1.514
			c-0.344-0.86-0.069-1.858-0.069-1.858c9.77-2.58,13.142-0.138,13.899,0.138c1.032-0.172,2.408-0.241,4.885-0.069
			c2.752-1.892,10.114-1.41,13.876-0.126C47.383,36.534,47.039,36.855,47.039,36.855z"/>
	</g>
	<g>
		<path d="M22.82,34.722c-2.698,0-5.608,0.826-4.713,4.197c0.543,2.048,1.032,3.509,4.747,3.784
			c2.691,0.199,4.998-1.874,5.092-3.991C28.118,34.808,25.518,34.722,22.82,34.722z"/>
	</g>
	<g>
		<path d="M38.783,34.722c-2.89-0.103-5.401,0.791-4.92,4.128c0.303,2.097,2.256,3.853,4.954,3.853s4.998-1.874,5.092-3.991
			C44.081,34.808,41.479,34.819,38.783,34.722z"/>
	</g>
</g>
</svg>
