<?xml version="1.0" encoding="utf-8"?>
<!-- Generator: Adobe Illustrator 17.0.2, SVG Export Plug-In . SVG Version: 6.00 Build 0)  -->
<!DOCTYPE svg PUBLIC "-//W3C//DTD SVG 1.1//EN" "http://www.w3.org/Graphics/SVG/1.1/DTD/svg11.dtd">
<svg version="1.1" id="Layer_1" xmlns="http://www.w3.org/2000/svg" xmlns:xlink="http://www.w3.org/1999/xlink" x="0px" y="0px"
	 width="64px" height="64px" viewBox="0 0 64 64" enable-background="new 0 0 64 64" xml:space="preserve">
<g>
	<path d="M33.016,36h-0.345c0,0-0.829,0.773-4.459,1.342l-0.32,2.397l2.028,2.462c0,0-0.263-3.164,2.751-3.182l0.345,0.003
		c3.014,0.018,2.751,3.185,2.751,3.185l2.028-2.402l-0.32-2.463C33.846,36.773,33.016,36,33.016,36z"/>
	<path d="M46.801,46.336c0,0-0.432-4.697-0.785-6.049l-2.053-1.352l0.738-1.066l0.649-4.552c0,0,1.626,1.853,3.286-2.078
		c1.276-3.21,1.403-2.925,0.873-3.743s-0.027-3.467,0.115-3.894c0.141-0.427-0.869-1.036-1.999-0.894
		C46.493,22.849,50.477,1,32.78,1h-0.706C14.377,1,18.413,22.849,17.283,22.707s-2.115,0.534-1.974,0.961s0.656,3.043,0.126,3.861
		s-0.401,0.517,0.875,3.727c1.66,3.931,3.281,2.069,3.281,2.069l0.634,4.548l0.706,1.064l-2.12,1.351
		c-0.353,1.352-1.131,6.049-1.131,6.049C14.006,49.468,8,52.385,8,52.385V64h24.162h0.424H56V52.385
		C56,52.385,50.474,49.467,46.801,46.336z M39.54,42.308c-0.009,2.13-2.447,5.505-3.728,6.692s-4.507,1.438-6.316,0
		s-3.702-6.065-3.702-6.706c0-0.641-0.44-3.685,1.026-6.176C28.287,33.628,32.538,34,32.538,34h0.336c0,0,4.199-0.372,5.666,2.119
		C40.006,38.61,39.543,41.667,39.54,42.308z M39.359,29.989c-4.758-0.257-5.613-3.107-5.613-5.354c0-0.121,0.01-0.229,0.021-0.337
		c-0.189,0.098-0.421,0.093-0.629-0.006c-0.408-0.195-0.857-0.087-1.268,0.038c-0.153,0.047-0.289,0.037-0.403-0.009
		c0.009,0.101,0.02,0.202,0.02,0.314c0,2.247-0.855,5.097-5.613,5.354c-6.149,0.332-5.312-2.336-5.342-4.583
		c-0.003-0.25,0.004-0.471,0.018-0.678c-0.096,0.234-0.482,0.399-0.751,0.399c-0.354,0-0.799-0.287-0.799-0.641v-0.427
		c0-0.354,0.146-0.641,0.5-0.641s0.5,0.287,0.5,0.641V24.3c1-1.589,1.753-1.704,5.709-1.764c2.451-0.037,4.561-0.246,5.303,0.849
		c0.071-0.128,0.264-0.236,0.443-0.29c0.771-0.235,1.555-0.261,2.292,0.091c0.114,0.054,0.214,0.147,0.266,0.256
		c0.711-1.16,2.708-0.944,5.202-0.906c3.586,0.055,4.905,0.152,5.317,1.352c0.075-0.27,0.427-0.47,0.721-0.47
		c0.354,0,0.747,0.287,0.747,0.641v0.427c0,0.354-0.391,0.641-0.745,0.641c-0.178,0-0.39-0.072-0.506-0.189
		c0.005,0.147-0.02,0.303-0.022,0.468C44.697,27.653,45.508,30.321,39.359,29.989z"/>
	<path d="M26.042,23.134c-4.025,0.06-4.689,0.178-4.66,2.384c0.025,1.867-0.687,4.084,4.545,3.808
		c4.049-0.214,4.776-2.581,4.776-4.448C30.703,22.814,28.711,23.094,26.042,23.134z"/>
	<path d="M39.19,23.134c-2.669-0.04-4.662-0.32-4.662,1.744c0,1.867,0.728,4.235,4.776,4.448c5.232,0.276,4.52-1.941,4.545-3.808
		C43.88,23.312,43.215,23.194,39.19,23.134z"/>
</g>
</svg>
