<?xml version="1.0" encoding="utf-8"?>
<!-- Generator: Adobe Illustrator 17.0.2, SVG Export Plug-In . SVG Version: 6.00 Build 0)  -->
<!DOCTYPE svg PUBLIC "-//W3C//DTD SVG 1.1//EN" "http://www.w3.org/Graphics/SVG/1.1/DTD/svg11.dtd">
<svg version="1.1" id="Layer_1" xmlns="http://www.w3.org/2000/svg" xmlns:xlink="http://www.w3.org/1999/xlink" x="0px" y="0px"
	 width="64px" height="64px" viewBox="0 0 64 64" enable-background="new 0 0 64 64" xml:space="preserve">
<g>
	<g>
		<path d="M25.352,20.973c3.142-1.186,6.568-1.844,9.911-1.351c3.2,0.471,6.237,1.729,9.129,3.196
			c-0.058-1.217,0.087-3.014,0.715-5.81c1.018-4.837,3.942-5.91,2.1-7.701C36.96-0.112,25.504,5.807,24.55,6.634
			c-0.955,0.827,1.909,2.8,1.782,7.383C26.361,16.591,25.845,19.066,25.352,20.973z"/>
	</g>
	<g>
		<ellipse cx="28.312" cy="33.965" rx="4.01" ry="4.284"/>
	</g>
	<g>
		<ellipse cx="39.47" cy="33.965" rx="4.093" ry="4.284"/>
	</g>
	<g>
		<path d="M40.625,51.375L40.615,51c0.128-2-0.106-3.322-0.106-3.322s1.79,1.777,3.389,0.465c4.821-4.344,0.636-13.292,0.636-13.292
			s1.973-0.807,4.137-5.071s-4.344-2.615-3.723-3.426c0.364-0.776-0.085-1.019-0.369-2.167c-2.823-1.5-5.844-2.907-8.972-3.368
			c-3.634-0.535-7.264,0.128-10.627,1.522c-0.383,1.365-0.639,2.213-0.398,2.24c-1.623,0-4.964-2.1-4.837,1.369
			c0.159,3.978,3.214,6.651,3.214,6.651C20,38.934,21.241,45.203,21.241,45.203c0.35,2.068,2.1,3.023,5.314,2.1
			c-0.183,1.307-0.129,2.4,0.085,3.327l-0.153-0.007c0,0-17.32,1.377-16.153,13.377H56C56,64,57.378,52.375,40.625,51.375z
			 M23.213,33.993c0,0-0.414-5.305,4.328-5.305C31.678,28.721,30.977,32,33.778,32h0.118c2.8,0,2.1-3.279,6.237-3.311
			c4.742,0,4.328,5.249,4.328,5.249s-0.095,5.346-5.028,5.346c-4.932,0-4.169-4.391-5.537-4.391l-0.118,0.014
			c-1.368,0-0.605,4.405-5.537,4.405S23.213,33.993,23.213,33.993z"/>
	</g>
</g>
</svg>
