<?xml version="1.0" encoding="utf-8"?>
<!-- Generator: Adobe Illustrator 17.0.2, SVG Export Plug-In . SVG Version: 6.00 Build 0)  -->
<!DOCTYPE svg PUBLIC "-//W3C//DTD SVG 1.1//EN" "http://www.w3.org/Graphics/SVG/1.1/DTD/svg11.dtd">
<svg version="1.1" id="Layer_1" xmlns="http://www.w3.org/2000/svg" xmlns:xlink="http://www.w3.org/1999/xlink" x="0px" y="0px"
	 width="64px" height="64px" viewBox="0 0 64 64" enable-background="new 0 0 64 64" xml:space="preserve">
<path d="M62.445,44.524l-0.031-0.118c-0.944-2.372-3.819-7.888-6.599-13.221c-1.485-2.848-2.888-5.541-3.948-7.658l-0.064-0.386
	c-1.082-6.554-2.564-15.53-9.312-19.884c-1.896-0.991-4.07-1.2-5.559-1.2c-1.22,0-2.168,0.133-2.542,0.195L33.883,2h-3.765
	l-0.519,0.255c-0.837-0.106-4.796-0.54-8.13,1.209c-6.724,4.341-8.201,13.284-9.28,19.813l-0.056,0.34
	c-1.078,2.152-2.508,4.888-4.021,7.784C5.364,36.66,2.522,42.097,1.586,44.45l-0.031,0.118c-0.336,2.496,0.112,4.562,1.333,6.138
	c1.834,2.367,4.728,2.736,4.851,2.751l0.426,0.051l0.826-2.966c0.543-0.35,2.702-1.588,6.018-1.588c0.956,0,1.939,0.105,2.923,0.31
	l2.488,5.162c-0.037,0.308-0.05,0.922,0.319,1.462c0.313,0.46,0.811,0.742,1.503,0.843c0.764,0.074,1.217,0.01,1.499-0.065
	L31.538,62h0.154h0.497h0.154l7.826-5.278c0.255,0.148,0.649,0.291,1.221,0.291c0.114,0,0.236-0.005,0.392-0.021
	c0.644-0.095,1.13-0.373,1.446-0.828c0.408-0.587,0.39-1.281,0.351-1.608l2.49-5.232c0.996-0.208,1.989-0.313,2.956-0.313
	c3.278,0,5.438,1.213,5.985,1.558l0.827,2.936l0.427-0.054c0.122-0.015,3.017-0.401,4.85-2.781
	C62.334,49.087,62.781,47.019,62.445,44.524z M44.235,33.085c-0.047,0.186-0.194,0.482-0.92,0.907
	c-1.506,0.881-3.564,1.698-8.339,1.747c-0.007-0.553,0.152-1.572,1.282-2.236c0.471-0.276,1.058-0.713,1.68-1.177
	c1.353-1.008,3.207-2.389,4.366-2.389c0.378,0,0.636,0.147,0.836,0.479C43.95,31.751,44.365,32.571,44.235,33.085z M29.024,35.739
	c-4.776-0.049-6.834-0.866-8.34-1.747c-0.726-0.425-0.873-0.72-0.92-0.907c-0.13-0.514,0.285-1.334,1.095-2.669
	c0.201-0.332,0.459-0.479,0.837-0.479c1.159,0,3.013,1.38,4.365,2.389c0.623,0.464,1.21,0.902,1.681,1.178
	C28.875,34.169,29.032,35.185,29.024,35.739z"/>
</svg>
