<?xml version="1.0" encoding="utf-8"?>
<!-- Generator: Adobe Illustrator 17.0.2, SVG Export Plug-In . SVG Version: 6.00 Build 0)  -->
<!DOCTYPE svg PUBLIC "-//W3C//DTD SVG 1.1//EN" "http://www.w3.org/Graphics/SVG/1.1/DTD/svg11.dtd">
<svg version="1.1" id="Layer_1" xmlns="http://www.w3.org/2000/svg" xmlns:xlink="http://www.w3.org/1999/xlink" x="0px" y="0px"
	 width="64px" height="64px" viewBox="0 0 64 64" enable-background="new 0 0 64 64" xml:space="preserve">
<g>
	<path d="M51.045,56.161c-3.236-0.292-2.856-1.312-4.81-2.274C44.282,52.925,44,51.7,43,51.583V50h3.219
		c0.043,1,0.109,0.753,0.183,0.753c0.129,0,0.233-0.54,0.233-1.334s-0.104-1.162-0.233-1.162c-0.068,0-0.129,0.743-0.172,0.743
		h-3.167c0,0,0.287-4.948,0.695-8.039c0,0,1.011-1.492,0.739-2.989c0,0,1.963,1.227,2.682-0.251
		c0.719-1.477,1.458-2.944,1.613-3.877s1.496-6.001-1.4-6.254c-0.24-0.021-0.429-0.143-0.215-0.59s0.523-4.144,0.095-5.349
		c-0.428-1.205,0.56-4.124,0.327-5.329s0.576-6.495-2.923-8.283c-1.16-0.593-1.876-1.075-2.383-1.461
		c-0.004,1.68-0.534,3.361-1.542,4.711c-0.109,0.146-0.302,0.115-0.395,0.014c-0.144-0.082-0.263-0.201-0.38-0.317
		c-0.125-0.125-0.061-0.288,0.054-0.36c0.001-0.032,0.009-0.064,0.026-0.098c0.79-1.609,0.78-3.323,0.648-5.058
		c-0.22-0.076-0.481-0.128-0.825-0.157c-0.097-0.008-0.191-0.019-0.283-0.029c-0.079,1.093-0.384,2.131-0.805,3.15
		c-0.113,0.274-0.565,0.154-0.45-0.124c0.412-1,0.719-2.016,0.791-3.092C37.756,4.989,36.8,4.54,34.874,4.606
		c-2.171,0.075-2.935-0.34-3.218-0.371c-0.281,0.031-1.018,0.446-3.189,0.371c-2.011-0.069-2.953,0.44-4.429,0.662
		c-0.255,1.496-0.089,2.929,0.116,4.436c0.022,0.158-0.098,0.223-0.22,0.223h-0.001c-0.191,0-0.389,0.131-0.587,0.131
		c-0.13,0-0.201-0.056-0.218-0.155c-0.014-0.014-0.03-0.01-0.042-0.029c-0.787-1.298-1.098-2.682-0.943-4.133
		c-0.618,0.414-1.193,1.148-3.455,2.305c-3.499,1.788-2.686,7.074-2.919,8.279s0.756,4.12,0.329,5.325
		c-0.428,1.205-0.117,4.898,0.096,5.345c0.214,0.447,0.026,0.562-0.214,0.583c-2.896,0.253-1.555,5.307-1.4,6.24
		s0.894,2.371,1.613,3.849c0.719,1.477,2.682,0.194,2.682,0.194c-0.272,1.497,0.739,3.101,0.739,3.101
		c0.408,3.091,0.417,8.1,0.417,8.1L16.948,49c-0.043,0-0.104-0.691-0.172-0.691c-0.129,0-0.233,0.532-0.233,1.326
		s0.104,1.174,0.233,1.174c0.074,0,0.14,0.191,0.183-0.809H20v1.583c-1,0.117-1.008,1.341-2.962,2.303s-1.564,1.983-4.8,2.274
		S7,57.765,7,57.765V64h24.512h0.233H56v-6.235C56,57.765,54.282,56.453,51.045,56.161z M21.59,40.682
		c-0.075,0.261-0.446,0.184-0.456-0.047c-0.207-0.067-0.405-0.162-0.586-0.28c-0.251-0.164-0.017-0.568,0.235-0.403
		c0.144,0.094,0.295,0.171,0.455,0.227c0.077-0.326,0.132-0.65,0.167-0.971c-0.27-0.074-0.517-0.204-0.742-0.369
		c-0.102-0.075-0.153-0.201-0.084-0.319c0.059-0.101,0.216-0.159,0.319-0.084c0.169,0.124,0.347,0.226,0.544,0.293
		c0.013-0.262,0.016-0.523,0.007-0.783c-0.241-0.036-0.482-0.064-0.726-0.067c-0.301-0.004-0.301-0.47,0-0.467
		c0.234,0.003,0.465,0.028,0.696,0.061c-0.06-0.691-0.189-1.374-0.361-2.052c-0.015,0.003-0.026,0.009-0.043,0.009
		c-0.304,0-0.597-0.019-0.876-0.148c-0.115-0.053-0.143-0.217-0.084-0.319c0.069-0.117,0.204-0.137,0.319-0.084
		c0.173,0.08,0.371,0.085,0.56,0.085c-0.095-0.337-0.197-0.674-0.306-1.01c-0.243,0.097-0.443-0.269-0.198-0.416
		c0.017-0.01,0.034-0.02,0.051-0.03c-0.126-0.375-0.256-0.75-0.386-1.125c-0.12,0.043-0.24,0.084-0.359,0.124
		c-0.286,0.096-0.408-0.355-0.124-0.45c0.11-0.037,0.221-0.074,0.331-0.115c-0.12-0.349-0.238-0.698-0.35-1.049
		c-0.095,0.068-0.188,0.14-0.279,0.212c-0.099,0.079-0.232,0.097-0.33,0c-0.082-0.082-0.1-0.25,0-0.33
		c0.153-0.122,0.306-0.238,0.466-0.342c-0.419-1.391-0.719-2.804-0.651-4.275c0.014-0.3,0.48-0.301,0.467,0
		c-0.064,1.4,0.197,2.743,0.577,4.061c0.021-0.009,0.039-0.02,0.06-0.029c0.118-0.049,0.256,0.052,0.287,0.163
		c0.037,0.134-0.046,0.238-0.163,0.287c-0.018,0.007-0.034,0.017-0.051,0.025c0.113,0.368,0.235,0.735,0.359,1.1
		c0.052-0.029,0.105-0.059,0.154-0.094c0.246-0.175,0.478,0.23,0.235,0.403c-0.075,0.053-0.154,0.1-0.236,0.142
		c0.123,0.356,0.246,0.711,0.367,1.066c0.15-0.09,0.3-0.18,0.45-0.27c0.259-0.155,0.493,0.248,0.235,0.403
		c-0.178,0.107-0.356,0.213-0.534,0.32c0.415,1.259,0.769,2.522,0.876,3.82c0.161,0.065,0.146,0.276,0.023,0.379
		C21.945,38.83,21.861,39.743,21.59,40.682z M25.847,12.575c-0.719,1.853-0.745,3.826-0.408,5.766
		c0.026,0.148-0.076,0.253-0.19,0.284c-0.025,0.091-0.094,0.172-0.21,0.187c-0.845,0.104-1.586,0.309-2.251,0.605
		c0.096,0.119,0.199,0.234,0.317,0.338c0.226,0.2-0.106,0.529-0.33,0.33c-0.158-0.14-0.296-0.293-0.419-0.457
		c-0.388,0.207-0.751,0.445-1.09,0.72c0.048,0.056,0.096,0.112,0.148,0.165c0.21,0.215-0.119,0.545-0.33,0.33
		c-0.06-0.061-0.115-0.125-0.171-0.19c-0.278,0.257-0.542,0.538-0.793,0.843c0.074,0.105,0.154,0.205,0.244,0.299
		c0.209,0.217-0.121,0.547-0.33,0.33c-0.077-0.08-0.144-0.165-0.21-0.251c-0.287,0.385-0.56,0.803-0.823,1.253
		c-0.152,0.26-0.555,0.025-0.403-0.235c0.302-0.518,0.618-0.992,0.953-1.426c-0.13-0.231-0.239-0.475-0.335-0.727
		c-0.108-0.281,0.344-0.402,0.45-0.124c0.06,0.156,0.129,0.309,0.204,0.457c0.243-0.285,0.496-0.548,0.762-0.79
		c-0.104-0.153-0.199-0.313-0.284-0.478c-0.136-0.267,0.266-0.504,0.403-0.235c0.072,0.142,0.153,0.278,0.239,0.409
		c0.348-0.28,0.72-0.524,1.117-0.737c-0.105-0.19-0.193-0.391-0.266-0.601c-0.099-0.285,0.352-0.406,0.45-0.124
		c0.063,0.182,0.146,0.352,0.238,0.516c0.722-0.329,1.525-0.558,2.443-0.677c-0.331-1.985-0.31-4.007,0.426-5.904
		C25.505,12.173,25.956,12.294,25.847,12.575z M43.641,16.536c0.7,0,0.993-0.005,1.458-0.058c0.299-0.035,0.266,0.432-0.029,0.467
		c-0.465,0.054-0.729,0.058-1.429,0.058C43.408,17.003,43.408,16.536,43.641,16.536z M43.762,19.402
		c0.42,0.097,0.824,0.091,1.22-0.093c0.271-0.126,0.508,0.276,0.235,0.403c-0.515,0.239-1.029,0.268-1.579,0.14
		C43.345,19.784,43.469,19.334,43.762,19.402z"/>
</g>
</svg>
