<?xml version="1.0" encoding="iso-8859-1"?>
<!-- Generator: Adobe Illustrator 17.1.0, SVG Export Plug-In . SVG Version: 6.00 Build 0)  -->
<!DOCTYPE svg PUBLIC "-//W3C//DTD SVG 1.1//EN" "http://www.w3.org/Graphics/SVG/1.1/DTD/svg11.dtd">
<svg version="1.1" id="Layer_1" xmlns="http://www.w3.org/2000/svg" xmlns:xlink="http://www.w3.org/1999/xlink" x="0px" y="0px"
	 viewBox="0 0 64 64" style="enable-background:new 0 0 64 64;" xml:space="preserve">
<g>
	<path d="M49.302,64h0.434l0.062-0.429c0.019-0.131,0.435-3.211-1.432-6c-0.144-1.007-0.521-1.519-0.954-2.108
		c-0.395-0.536-0.842-1.144-1.279-2.365c-0.576-1.592-1.706-2.027-2.799-2.448c-0.682-0.262-1.386-0.533-2.025-1.094
		c-0.252-0.228-0.267-0.476-0.247-1.185c0.025-0.96,0.064-2.412-1.106-4.576c-0.492-0.994-1.144-2.217-1.561-2.811
		c0.276-0.125,0.945-0.323,2.456-0.379c0.701-0.104,0.997-0.488,1.214-0.769c0.225-0.291,0.346-0.405,0.888-0.352
		c0.958,0.094,1.283-0.396,1.586-0.82c0.357-0.503,0.802-1.13,2.59-1.562c1.332-0.336,1.774-0.815,1.579-1.709
		c-0.015-0.063-0.037-0.169-0.03-0.196c0.001-0.001,0.047-0.092,0.341-0.223c1.767-0.792,1.816-2.05,1.885-3.793l0.018-0.424
		c0.757-1.301,0.539-2.365,0.38-3.147c-0.11-0.537-0.142-0.771-0.01-0.92c0.735-0.833,1.59-2.504,1.583-3.326
		c0.189-1.135-0.601-2.154-1.298-3.053c-0.927-1.196-1.277-1.78-0.747-2.343c0.027-0.027,2.642-2.71-0.082-5.935
		c-0.092-0.188-0.068-0.307-0.021-0.547c0.074-0.373,0.174-0.883-0.218-1.667c-0.408-0.816-1.311-0.917-1.97-0.992
		c-0.232-0.026-0.621-0.07-0.691-0.199c0.032-0.315,0.135-0.556,0.234-0.789c0.289-0.678,0.436-1.273-0.496-2.226l-0.131-0.096
		c-0.755-0.386-1.249-0.088-1.606,0.203c-0.382,0.312-0.896,0.703-2.461,0.646L43.16,6.361c-3.27,0-3.802,2.817-4.127,4.75
		c-0.128-0.017-0.3-0.05-0.489-0.087c-0.628-0.123-1.577-0.307-2.882-0.307c-0.465,0-0.946,0.024-1.402,0.069
		c-1.144,0.043-1.539,0.382-1.873,0.755c-0.147,0.165-0.175,0.195-0.405,0.195c-0.403,0-1.126-0.175-2.214-0.535
		c-0.535-0.173-0.982-0.257-1.366-0.257c-1.482,0-1.725,1.198-1.846,2.234c-0.204-0.062-0.448-0.13-0.707-0.13
		c-0.351,0-0.944,0.137-1.203,0.993c-0.101,0.026-0.218,0.046-0.339,0.066c-0.51,0.085-1.28,0.213-1.451,1.089
		c-0.053,0.032-0.249,0.057-0.393,0.074c-0.682,0.084-1.821,0.226-2.387,1.941c-0.511,1.549,0.159,2.431,0.806,3.285
		c0.478,0.63,0.972,1.282,1.19,2.332c0.258,1.246-0.087,2.63-0.484,4.233c-0.405,1.629-0.865,3.476-0.832,5.682
		c0.002,0.034,0.114,3.291,0.125,4.029c-0.112,0.154-0.477,0.493-0.769,0.77c-1.122,1.066-2.833,2.677-2.704,4.246
		c0.032,0.398,0.06,0.757,0.117,1.108c0.22,1.336,0.348,2.491-1.353,5.491c-0.477,0.84-1.135,1.629-1.699,2.464
		C12.494,53.781,10,57.102,10,63.5V64h1H49.302z"/>
</g>
</svg>
