<?xml version="1.0" encoding="utf-8"?>
<!-- Generator: Adobe Illustrator 17.0.2, SVG Export Plug-In . SVG Version: 6.00 Build 0)  -->
<!DOCTYPE svg PUBLIC "-//W3C//DTD SVG 1.1//EN" "http://www.w3.org/Graphics/SVG/1.1/DTD/svg11.dtd">
<svg version="1.1" id="Layer_1" xmlns="http://www.w3.org/2000/svg" xmlns:xlink="http://www.w3.org/1999/xlink" x="0px" y="0px"
	 width="64px" height="64px" viewBox="0 0 64 64" enable-background="new 0 0 64 64" xml:space="preserve">
<path d="M48.854,27.847c-0.842-1.145-1.769-1.51-2.378-1.618c1.632-6.145,1.192-11.112-1.309-14.769
	c-3.482-5.091-9.636-5.726-9.945-5.753c0,0-11.862,0.036-13.803,0.036c-1.25,0-2.576,0.909-3.225,2.211
	c-0.623,1.25-0.512,2.65,0.296,3.887c-1.367,2.503-2.091,7.346-2.122,7.559l0.029,0.459l0.42,0.121
	c2.777,0.796,3.359,1.032,3.188,2.953l-0.044,0.494l0.494,0.048c9.128,0.887,14.111,1.799,14.813,2.712
	c0.038,0.051,0.079,0.092,0.077,0.085c0.025,0.074-0.01,0.241-0.061,0.346c-0.014-0.017-0.031-0.037-0.05-0.062
	c-0.362-0.486-0.933-0.743-1.651-0.743c-0.499,0-0.949,0.126-1.138,0.187H19.87l-0.027,0.469c-0.005,0.077-0.071,0.748-0.984,0.748
	c-1.341,0-1.858-1.279-2.216-2.66c-0.132-0.509-0.236-0.911-0.688-0.911l-0.262,0.024l-0.149,0.166
	c-0.055,0.061-0.192,0.175-0.373,0.331c-1.29,1.108-2.665,2.388-2.665,3.543c0,1.617,1.045,1.924,1.737,2.127
	c0.335,0.098,0.624,0.183,0.742,0.367c0.194,0.301-0.077,0.879-0.339,1.439c-0.244,0.519-0.495,1.056-0.495,1.586
	c0,0.57,0.268,0.915,0.582,1.132c-0.214,0.176-0.379,0.443-0.379,0.854c0,0.542,0.332,0.83,0.551,1.019
	c0.263,0.228,0.421,0.365,0.182,1.121c-0.351,1.274-0.238,2.301,0.334,3.052c0.698,0.916,2.017,1.361,4.033,1.361
	c0.641,0,1.248-0.044,1.727-0.079c0.291-0.021,0.532-0.039,0.698-0.039c1.125,0,2.533,0.29,2.926,0.827
	c0.075,0.102,0.148,0.254,0.06,0.531c-0.481,1.514-0.623,7.556-0.645,8.664c-1.077,1.499-4.722,8.97-4.6,9.784
	c0.065,0.432,0.4,0.7,0.873,0.7c0.378,0,0.768-0.167,0.841-0.2l0.129-0.083c17.768-15.97,33.665-17.581,33.824-17.595l0.397-0.036
	l0.054-0.395C56.747,36.443,54.111,30.327,48.854,27.847z M46.849,31.561c2.18,2.824,0.591,7.496-0.292,9.568
	c-0.685-1.644-1.939-4.316-2.664-5.363c0.409-1.011,0.83-3.118,1.027-4.178C45.442,31.742,46.238,31.799,46.849,31.561z"/>
</svg>
