<?xml version="1.0" encoding="utf-8"?>
<!-- Generator: Adobe Illustrator 17.0.2, SVG Export Plug-In . SVG Version: 6.00 Build 0)  -->
<!DOCTYPE svg PUBLIC "-//W3C//DTD SVG 1.1//EN" "http://www.w3.org/Graphics/SVG/1.1/DTD/svg11.dtd">
<svg version="1.1" id="Layer_1" xmlns="http://www.w3.org/2000/svg" xmlns:xlink="http://www.w3.org/1999/xlink" x="0px" y="0px"
	 width="64px" height="64px" viewBox="0 0 64 64" enable-background="new 0 0 64 64" xml:space="preserve">
<g>
	<path d="M31.488,3.736C19.322,3.899,10.107,14.227,10.32,30.19s9.388,30.947,21.554,30.785S53.941,44.68,53.728,28.716
		C53.514,12.753,43.653,3.573,31.488,3.736z M41.14,8.891c0.51-0.007,0.929,0.4,0.936,0.91s-0.4,0.929-0.91,0.936
		c-0.51,0.007-0.929-0.4-0.936-0.91C40.223,9.317,40.63,8.898,41.14,8.891z M41.197,13.093c0.51-0.007,0.929,0.4,0.936,0.91
		s-0.4,0.929-0.91,0.936c-0.51,0.007-0.929-0.4-0.936-0.91C40.278,13.518,40.687,13.1,41.197,13.093z M40.892,18.828
		c0.51-0.007,0.929,0.4,0.936,0.91c0.007,0.51-0.4,0.929-0.91,0.936s-0.929-0.4-0.936-0.91
		C39.973,19.254,40.382,18.835,40.892,18.828z M34.398,18.915c0.51-0.007,0.929,0.4,0.936,0.91c0.007,0.51-0.4,0.929-0.91,0.936
		s-0.929-0.4-0.936-0.91C33.48,19.34,33.888,18.921,34.398,18.915z M42.365,21.868l-10.373,5.233l-10.688-4.95L42.365,21.868z
		 M28.286,18.997c0.51-0.007,0.929,0.4,0.936,0.91c0.007,0.51-0.4,0.929-0.91,0.936s-0.929-0.4-0.936-0.91
		C27.368,19.422,27.776,19.004,28.286,18.997z M21.277,9.158c0.51-0.007,0.929,0.4,0.936,0.91c0.007,0.51-0.4,0.929-0.91,0.936
		c-0.51,0.007-0.929-0.4-0.936-0.91C20.36,9.583,20.767,9.165,21.277,9.158z M21.334,13.359c0.51-0.007,0.929,0.4,0.936,0.91
		c0.007,0.51-0.4,0.929-0.91,0.936c-0.51,0.007-0.929-0.4-0.936-0.91C20.416,13.785,20.824,13.366,21.334,13.359z M21.41,19.09
		c0.51-0.007,0.929,0.4,0.936,0.91c0.007,0.51-0.4,0.929-0.91,0.936c-0.51,0.007-0.929-0.4-0.936-0.91
		C20.493,19.514,20.901,19.096,21.41,19.09z M22.626,26.634c2.584-0.034,5.077,1.122,5.104,3.179
		c0.027,2.057-2.195,4.518-4.779,4.553s-4.867-1.973-4.895-4.03C18.029,28.279,20.042,26.669,22.626,26.634z M27.267,45.443
		c0.055,0.507-0.311,0.962-0.818,1.018c-0.507,0.055-0.962-0.311-1.018-0.818c-0.055-0.507,0.311-0.962,0.818-1.018
		C26.757,44.57,27.212,44.936,27.267,45.443z M15.961,40.111c-0.51,0.007-0.929-0.4-0.936-0.91c-0.007-0.51,0.4-0.929,0.91-0.936
		s0.929,0.4,0.936,0.91C16.879,39.686,16.471,40.105,15.961,40.111z M19.832,46.173l-2.291,0.031l8.216-9.343L19.832,46.173z
		 M21.804,48.438c-0.51,0.007-0.929-0.4-0.936-0.91c-0.007-0.51,0.4-0.929,0.91-0.936c0.51-0.007,0.929,0.4,0.936,0.91
		C22.721,48.012,22.314,48.431,21.804,48.438z M25.504,50.991c-0.055-0.507,0.311-0.962,0.818-1.018
		c0.507-0.055,0.962,0.311,1.018,0.818c0.055,0.507-0.311,0.962-0.818,1.018C26.015,51.864,25.559,51.498,25.504,50.991z
		 M27.27,57.152c-0.51,0.007-0.929-0.4-0.936-0.91c-0.007-0.51,0.4-0.929,0.91-0.936s0.929,0.4,0.936,0.91
		C28.187,56.726,27.78,57.145,27.27,57.152z M32.13,39.767c-0.58,0.008-1.056-0.456-1.064-1.036
		c-0.008-0.58,0.456-1.056,1.036-1.064c0.58-0.008,1.056,0.456,1.064,1.036C33.174,39.283,32.711,39.759,32.13,39.767z
		 M36.819,57.024c-0.51,0.007-0.929-0.4-0.936-0.91s0.4-0.929,0.91-0.936s0.929,0.4,0.936,0.91
		C37.736,56.598,37.329,57.017,36.819,57.024z M37.13,51.671c-0.51,0.007-0.929-0.4-0.936-0.91c-0.007-0.51,0.4-0.929,0.91-0.936
		s0.929,0.4,0.936,0.91C38.047,51.245,37.639,51.664,37.13,51.671z M37.058,46.323c-0.51,0.007-0.929-0.4-0.936-0.91
		c-0.007-0.51,0.4-0.929,0.91-0.936s0.929,0.4,0.936,0.91S37.567,46.316,37.058,46.323z M36.386,29.697
		c-0.027-2.057,2.433-3.28,5.018-3.314c2.584-0.034,4.64,1.521,4.667,3.578s-2.2,4.126-4.785,4.16
		C38.701,34.156,36.414,31.755,36.386,29.697z M42.049,48.166c-0.51,0.007-0.929-0.4-0.936-0.91s0.4-0.929,0.91-0.936
		c0.51-0.007,0.929,0.4,0.936,0.91C42.967,47.74,42.558,48.159,42.049,48.166z M44.979,45.836l-6.172-9.15l8.464,9.119
		L44.979,45.836z M47.666,39.686c-0.51,0.007-0.929-0.4-0.936-0.91s0.4-0.929,0.91-0.936c0.51-0.007,0.929,0.4,0.936,0.91
		C48.583,39.26,48.176,39.679,47.666,39.686z"/>
</g>
</svg>
