<?xml version="1.0" encoding="utf-8"?>
<!-- Generator: Adobe Illustrator 17.0.2, SVG Export Plug-In . SVG Version: 6.00 Build 0)  -->
<!DOCTYPE svg PUBLIC "-//W3C//DTD SVG 1.1//EN" "http://www.w3.org/Graphics/SVG/1.1/DTD/svg11.dtd">
<svg version="1.1" id="Layer_1" xmlns="http://www.w3.org/2000/svg" xmlns:xlink="http://www.w3.org/1999/xlink" x="0px" y="0px"
	 width="64px" height="64px" viewBox="0 0 64 64" enable-background="new 0 0 64 64" xml:space="preserve">
<g>
	<path d="M51.927,53.36C54.193,54.097,55.563,64,55.563,64H60.2c-0.264-2.077-1.107-9.323-1.74-10.851
		c-0.263-1.054-6.218-12.222-11.329-13.012s-5.006-1.423-5.269-2.127c-0.264-0.704-1.265-4.301,1.159-7.305
		c3.794-3.425,3.793-8.906,3.214-11.698s-4.479-9.59-15.294-4.808c-6.56-4.585-12.844,1.699-13.318,7.904
		c-0.137,1.965-0.237,2.766,1.304,3.148c0.066,2.292,2.437,2.187,2.437,2.187c4.69,5.532,12.185,3.873,12.126,4.169
		c-0.059,0.297,0.316,0.514,0.316,0.514c-0.296,1.541,0.514,2.233,0.514,2.233c-0.257,0.454-0.316,1.936,0.099,2.371
		c-0.237,0.237-0.691,1.837-0.395,2.371c-1.107-0.178-1.66,0.533-1.963,0.935c-0.579-0.211-4.123,0.151-4.953,1.528
		c-2.055-0.422-3.372,1.897-3.372,1.897C20.943,44.51,11.537,56.92,11.577,56.327c0.039-0.592-1.305-2.924-1.937-4.742
		s-1.08-7.021-0.606-7.68c0.475-0.659,0.501-1.423,0.501-1.423c0.211-0.316,3.742-3.873,3.926-3.847
		c0.185,0.026,2.24-0.079,2.24-1.713c-0.106-2.213-2.003-0.342-2.319-0.79s-3.346,0.843-3.504,0.527
		c-0.159-0.316-0.448-2.819-0.422-4.4s0.527-2.819,0.527-2.819c1.212-1.686,1.66-2.976,0.527-3.609s-1.792,1.712-2.029,2.055
		s-1.548,3.091-1.475,3.452c0.764,3.373,0.238,2.556-0.606,1.766s-1.897,0.107-1.95,1.266c-0.053,1.159-0.632,2.031-2.371,3.559
		s0.975,2.217,0.896,3.06C2.896,41.832,3.832,43.5,3.832,43.5c0.118,0.592-0.012,6.682,0.252,9.21
		c0.263,2.53,2.186,10.835,5.167,10.835c4.545,0,17.87-14.716,16.447-11.633s-1.093,7.323-0.382,7.56
		C23.893,60.579,24.868,64,24.868,64h27.587c0.685-1.038-0.58-5.411-0.58-5.411c0.737-2.214-0.738-4.516-0.738-4.516
		C51.769,53.915,51.927,53.36,51.927,53.36z M25.339,19.511c0.09-0.327,0.313-1.61-1.709-1.61c-2.318,0-3.214,2.845-3.214,2.845
		c0.105-0.422,0.158-3.636,3.003-3.741C25.991,16.91,25.464,19.091,25.339,19.511z M27.556,20.851c-0.451,0-0.817-0.366-0.817-0.817
		s0.366-0.817,0.817-0.817s0.817,0.366,0.817,0.817S28.007,20.851,27.556,20.851z M30.085,20.851c-0.451,0-0.817-0.366-0.817-0.817
		s0.366-0.817,0.817-0.817s0.817,0.366,0.817,0.817S30.536,20.851,30.085,20.851z M39.755,17.584
		c-2.53-0.58-4.374,1.739-4.374,1.739c0.158-0.421,1.264-3.109,4.585-2.321c3.319,0.787,1.844,4.113,1.844,3.744
		C41.81,20.377,42.284,18.164,39.755,17.584z"/>
	<path d="M4.503,30.003c0.631-0.32,1.235-0.67,1.94-0.798c0.401-0.073,0.231-0.682-0.168-0.61c-0.756,0.138-1.414,0.518-2.091,0.862
		C3.82,29.641,4.14,30.187,4.503,30.003z"/>
	<path d="M6.75,26.557c0.376,0.158,0.538-0.454,0.168-0.61c-0.637-0.267-1.251-0.599-1.797-1.025
		c-0.317-0.248-0.768,0.196-0.447,0.447C5.312,25.868,6.004,26.244,6.75,26.557z"/>
	<path d="M7.944,25.266c0.225,0.337,0.773,0.021,0.546-0.319c-0.398-0.596-0.792-1.195-1.146-1.818
		c-0.201-0.354-0.748-0.036-0.546,0.319C7.152,24.071,7.547,24.67,7.944,25.266z"/>
	<path d="M9.905,23.481c-0.107-0.64-0.153-1.287-0.226-1.932c-0.045-0.4-0.678-0.405-0.632,0c0.08,0.701,0.132,1.404,0.248,2.1
		C9.362,24.05,9.972,23.88,9.905,23.481z"/>
	<path d="M11.854,24.47c0.537-0.378,1.022-0.813,1.447-1.314c0.262-0.309-0.183-0.758-0.447-0.447
		c-0.389,0.459-0.827,0.868-1.319,1.215C11.205,24.157,11.52,24.705,11.854,24.47z"/>
	<path d="M12.998,26.331c0.646-0.076,1.291-0.156,1.937-0.237c0.399-0.05,0.404-0.683,0-0.632c-0.645,0.081-1.291,0.161-1.937,0.237
		C12.598,25.746,12.594,26.379,12.998,26.331z"/>
	<path d="M14.659,28.545c-0.475-0.037-0.947-0.106-1.382-0.313c-0.366-0.174-0.687,0.371-0.319,0.546
		c0.541,0.257,1.108,0.353,1.701,0.399C15.066,29.208,15.063,28.576,14.659,28.545z"/>
	<path d="M12.442,29.887c-0.18-0.366-0.726-0.045-0.546,0.319c0.407,0.826,1.084,1.479,1.967,1.766
		c0.389,0.126,0.555-0.485,0.168-0.61C13.299,31.125,12.776,30.564,12.442,29.887z"/>
</g>
</svg>
