<?xml version="1.0" encoding="utf-8"?>
<!-- Generator: Adobe Illustrator 17.0.2, SVG Export Plug-In . SVG Version: 6.00 Build 0)  -->
<!DOCTYPE svg PUBLIC "-//W3C//DTD SVG 1.1//EN" "http://www.w3.org/Graphics/SVG/1.1/DTD/svg11.dtd">
<svg version="1.1" id="Layer_1" xmlns="http://www.w3.org/2000/svg" xmlns:xlink="http://www.w3.org/1999/xlink" x="0px" y="0px"
	 width="64px" height="64px" viewBox="0 0 64 64" enable-background="new 0 0 64 64" xml:space="preserve">
<g>
	<g>
		<path d="M36.586,15.788c-0.112-0.037-1.797-0.618-2.789,0.094c-0.992,0.711-1.516,0.543-1.516,0.543
			c-1.544-0.14-1.086,1.319-2.939,1.441c-4.886-0.337-5.626,1.919-7.114,1.919s-1.142-1.245-1.797-1.657
			c-0.655-0.412-0.868,0.825-1.479,0.861c-1.252-0.25-3.313-0.016-4.344,0.723c0.078,0.15,0.006,0.391-0.219,0.408
			c-0.393,0.03-0.762,0.173-1.145,0.254c0.398,1.113,1.707,1.497,2.81,1.586c0.013,0.001,0.022,0.007,0.033,0.01
			c0.019-0.003,0.035-0.007,0.054-0.01c0.336-0.04,0.332,0.486,0,0.526c-1.278,0.151-1.706,1.33-1.448,2.432
			c0.222-0.137,0.444-0.274,0.658-0.425c0.077-0.054,0.151-0.055,0.215-0.029c0.146,0.042,0.273,0.207,0.189,0.389
			c-0.129,0.279-0.154,0.559-0.063,0.837c0.322-0.143,0.594-0.362,0.833-0.63c0.033-0.037,0.07-0.058,0.107-0.07
			c0.162-0.088,0.405-0.021,0.385,0.212c-0.051,0.628-0.28,1.172-0.69,1.608c0.176,0.03,0.355,0.045,0.537,0.051
			c0.022-0.015,0.042-0.031,0.064-0.046c0.282-0.191,0.544,0.265,0.265,0.454c-0.496,0.336-0.94,0.74-1.199,1.276
			c0.182,0.032,0.366,0.038,0.558-0.004c0.031-0.007,0.059-0.004,0.086-0.001c0.161-0.024,0.362,0.109,0.325,0.325
			c-0.096,0.567-0.07,1.129,0.097,1.672c0.17-0.161,0.256-0.377,0.262-0.646c0-0.011,0.005-0.019,0.007-0.029
			c-0.001-0.02-0.006-0.038-0.007-0.058c-0.007-0.339,0.519-0.339,0.526,0c0.012,0.575,0.23,1.06,0.668,1.435
			c0.011,0.009,0.014,0.02,0.023,0.029c0.078,0.055,0.126,0.15,0.089,0.27c-0.051,0.167-0.119,0.314-0.206,0.447
			c0.158-0.011,0.314-0.042,0.471-0.084c0.114-0.237,0.534-0.098,0.48,0.207c-0.102,0.582,0.009,1.139,0.324,1.638
			c0.031,0.05,0.038,0.097,0.037,0.143c0.514-0.531,0.696-0.99,0.696-0.99c0.056,1.151,1.516,1.91,2.078,1.966
			c0.352,0.035,0.781,0.335,1.053,0.554c0.002-0.185,0.184-0.365,0.38-0.233c0.344,0.231,0.703,0.344,1.102,0.355
			c-0.03-0.164-0.073-0.323-0.147-0.478c-0.012-0.025-0.014-0.048-0.018-0.072c-0.121-0.183,0.013-0.492,0.271-0.401
			c0.572,0.201,1.056,0.545,1.417,1.016c0.037-0.101,0.071-0.203,0.1-0.307c0.036-0.128,0.189-0.235,0.323-0.184
			c0.448,0.171,0.927,0.284,1.346,0.52l0.039-0.117c0.001-0.004,0.004-0.006,0.006-0.01c-0.007-0.166,0.12-0.335,0.317-0.261
			c0.217,0.081,0.441,0.138,0.657,0.219l0,0c0.067-0.008,0.139,0.01,0.203,0.067c0.632,0.562,1.408,0.807,2.234,0.876
			c0.014-0.101,0.018-0.203-0.001-0.313c-0.008-0.045-0.004-0.085,0.007-0.122c-0.02-0.197,0.174-0.404,0.379-0.262
			c0.945,0.655,1.984,0.944,3.128,0.928c0.465-0.478,0.874-0.989,1.162-1.593c0.014-0.212,0.341-0.347,0.492-0.116
			c0.082,0.124,0.173,0.239,0.258,0.357c0.525-0.277,0.866-0.769,1.014-1.346c0.076-0.296,0.491-0.21,0.512,0.049
			c0.081,0.084,0.158,0.171,0.23,0.26c0.655-0.548,1.055-1.315,1.362-2.106c0.02-0.052,0.054-0.088,0.091-0.116
			c0.052-0.2,0.351-0.309,0.477-0.078c0.139,0.254,0.228,0.522,0.289,0.801c0.795-0.303,1.297-0.961,1.556-1.756
			c-0.033-0.191,0.17-0.38,0.352-0.297c0.103,0.024,0.192,0.1,0.204,0.212c0.111,0.147,0.197,0.306,0.256,0.476
			c0.564-0.7,1.027-1.481,1.375-2.309c0.046-0.108,0.139-0.159,0.234-0.169c0.32-0.789,0.288-1.793,0.288-1.793
			c1.31,0.899,1.91,0,1.91,0c0.29,0.27,1.444,0.674,1.291-1.043c-0.142-0.068-0.238-0.276-0.107-0.44
			c0.325-0.407,0.519-0.885,0.563-1.395c-0.34,0.015-0.669,0.091-0.99,0.231c-0.278,0.121-0.519-0.236-0.335-0.405
			c0.007-0.014,0.008-0.028,0.019-0.042c0.343-0.481,0.625-0.995,0.806-1.558c0.02-0.061,0.057-0.101,0.099-0.131
			c0.03-0.041,0.069-0.077,0.129-0.097c0.289-0.094,0.477-0.275,0.582-0.532c-0.398-0.182-0.794-0.367-1.182-0.57
			c-0.019-0.006-0.038-0.006-0.057-0.012c-0.05-0.016-0.085-0.045-0.114-0.077c-0.283-0.165-0.022-0.607,0.273-0.448
			c0.026,0.014,0.054,0.027,0.08,0.041c0.477,0.133,0.935,0.102,1.384-0.088c-0.409-0.707-1.128-1.057-1.947-1.04
			c-0.23,0.005-0.3-0.234-0.218-0.391c0.005-0.013,0.013-0.025,0.021-0.037c0.005-0.007,0.01-0.013,0.016-0.019
			c0.012-0.015,0.021-0.031,0.039-0.046c0.089-0.069,0.169-0.144,0.243-0.222c-0.416,0.129-0.855,0.165-1.31,0.091
			c-0.242-0.039-0.232-0.315-0.082-0.444c0.019-0.047,0.05-0.092,0.107-0.124c0.458-0.258,0.77-0.651,0.925-1.144
			c-0.155-0.137-0.321-0.173-0.546-0.129c-0.009,0.005-0.016,0.012-0.025,0.017c-0.292,0.174-0.557-0.281-0.265-0.454
			c0.475-0.282,0.76-0.689,0.833-1.183c-0.384,0.228-0.809,0.359-1.27,0.403c-0.265,0.025-0.317-0.29-0.167-0.444
			c0.009-0.016,0.013-0.033,0.025-0.049c0.116-0.145,0.222-0.295,0.32-0.451c-0.229-0.129-0.466-0.23-0.73-0.292
			c-0.278-0.065-0.22-0.431,0.001-0.5c0.04-0.033,0.09-0.059,0.156-0.06c0.326-0.007,0.586-0.112,0.761-0.353
			c-0.516-0.496-1.185-0.661-1.9-0.567c-0.297,0.039-0.326-0.368-0.1-0.492c0.03-0.03,0.066-0.055,0.117-0.068
			c0.35-0.088,0.586-0.271,0.679-0.573c-0.999,0.031-1.895,0.375-2.712,0.966c-0.178,0.128-0.347-0.016-0.374-0.187
			c-0.031-0.052-0.041-0.119-0.012-0.197c0.241-0.655,0.623-1.222,1.152-1.653c-0.399-0.098-0.809-0.118-1.223-0.039
			c-0.203,0.039-0.334-0.137-0.328-0.294C38.193,11.073,36.695,15.825,36.586,15.788z M32.462,32.587
			c-4.929,1.03-6.397-0.438-6.551-1.446c-0.153-1.008,1.49-1.183,1.665-1.994c0.131-1.03,0.789-1.249,0.789-1.249
			c-0.066-0.756,0.69-0.887,0.778-0.997s0.011-0.46,0.712-0.756c0.701-0.296,0.635,0.285,1.271-0.044
			c0.92-0.592,1.161,0.263,1.161,0.263c1.709-0.329,1.577,0.438,2.498,0.351c1.49-0.438,1.994-0.175,1.994-0.175
			C38.268,27.219,37.15,31.448,32.462,32.587z"/>
	</g>
	<g>
		<path d="M53.538,34.669c0.028-1.095-0.618-0.842-0.618-0.842s-1.404,1.039-1.348-0.084c-0.168-2.527-3.342-3.707-4.577-3.931
			c-0.223-0.521-1.048-0.561-1.581-0.529c-0.454,1.06-1.052,2.048-1.834,2.899c-0.186,0.203-0.46-0.004-0.437-0.222
			c-0.004-0.017-0.011-0.032-0.012-0.051c-0.003-0.111-0.024-0.215-0.054-0.315c-0.366,0.795-0.975,1.42-1.848,1.708
			c-0.096,0.032-0.173,0.006-0.229-0.045c-0.12,0.023-0.245-0.025-0.269-0.182c-0.018-0.115-0.047-0.224-0.077-0.334
			c-0.366,0.824-0.843,1.57-1.596,2.112c-0.118,0.085-0.29,0.019-0.36-0.094c-0.041-0.067-0.088-0.124-0.135-0.182
			c-0.271,0.593-0.732,1.055-1.364,1.311c-0.101,0.041-0.251-0.024-0.297-0.121c-0.032-0.068-0.078-0.126-0.12-0.187
			c-0.312,0.56-0.722,1.053-1.176,1.511c-0.072,0.072-0.154,0.085-0.23,0.067c-0.015,0.003-0.027,0.009-0.044,0.01
			c-1.075,0.02-2.092-0.216-3.01-0.742c-0.009,0.109-0.028,0.219-0.067,0.33c-0.042,0.123-0.144,0.177-0.247,0.18
			c-0.028,0.009-0.059,0.016-0.095,0.013c-0.976-0.06-1.877-0.336-2.63-0.963c-0.023-0.002-0.044-0.001-0.069-0.011
			c-0.13-0.049-0.263-0.09-0.395-0.132c-0.023,0.07-0.047,0.141-0.07,0.211c-0.041,0.124-0.144,0.178-0.247,0.18
			c-0.066,0.033-0.145,0.036-0.227-0.023c-0.356-0.257-0.779-0.368-1.19-0.505c-0.042,0.117-0.086,0.233-0.132,0.348
			c-0.035,0.088-0.101,0.137-0.174,0.159c-0.102,0.137-0.329,0.184-0.438-0.009c-0.196-0.35-0.47-0.625-0.795-0.834
			c0.032,0.142,0.054,0.287,0.058,0.438c0.005,0.186-0.15,0.266-0.294,0.248c-0.019,0.005-0.035,0.014-0.056,0.015
			c-0.53,0.033-1.026-0.098-1.474-0.371c-1.755,1.701-2.111,3.595-1.638,5.765c-0.309,1.292-0.084,3.314-0.028,3.117
			s0.505,0.14,0.505,0.14c0.365,1.292,1.46,1.713,1.46,1.713c-0.562,0.674,0.374,1.086,0.374,1.086
			c-0.15,0.973,0.674,1.685,0.674,1.685c0.112,0.974,1.348,2.247,1.348,2.247c-0.599,2.471-2.022,8.35,0.777,8.518
			c0.449,1.208,1.573,0.871,1.573,0.871c0.449,0.477,1.449,0.29,1.449,0.29c0.971,1.086,2.324,0.225,2.324,0.225
			c1.329,1.161,3.052-0.056,3.052-0.056c1.198,0.768,2.658-0.243,2.733-0.861s0.412-0.243,0.412-0.243
			c0.786,1.573,2.696,1.516,3.669,0.693c1.385,0.861,2.144-0.243,2.144-0.243c3.131,0.126,2.106-2.654,1.769-3.328
			c0.365-0.505-0.365-1.264-0.365-1.264c1.615-1.601,0.281-3.721,0.281-3.721c-1.095-1.629,1.208-1.404,1.46-3.314
			c1.264-0.309,0.758-1.91,0.758-1.91c1.348,0.337,2.218-0.562,2.218-0.562c2.527,0.505,3.51-4.212,3.903-4.97
			c1.123,0.056,0.646-1.067,0.309-2.78C56.374,36.662,54.352,35.286,53.538,34.669z"/>
	</g>
	<g>
		<path d="M57.965,5.323c-8.099-2.929-13.962,2.975-15.502,5.002c0.563-0.063,1.123-0.001,1.658,0.209
			c0.047,0.018,0.081,0.047,0.108,0.08c0.14,0.099,0.191,0.331-0.002,0.444c-0.419,0.246-0.743,0.588-0.994,0.985
			c0.763-0.4,1.594-0.612,2.482-0.598c0.024,0,0.042,0.009,0.063,0.014c0.141-0.015,0.292,0.066,0.288,0.249
			c-0.009,0.366-0.13,0.669-0.337,0.901c0.546,0.103,1.049,0.366,1.443,0.797c0.029,0.031,0.048,0.065,0.059,0.099
			c0.048,0.073,0.069,0.165,0.026,0.264c-0.124,0.286-0.331,0.481-0.58,0.608c0.104,0.055,0.211,0.103,0.31,0.171
			c0.078,0.054,0.11,0.13,0.114,0.206c0.019,0.06,0.017,0.127-0.019,0.198c-0.038,0.072-0.084,0.136-0.127,0.204
			c0.242-0.089,0.469-0.215,0.67-0.385c0.098-0.185,0.465-0.14,0.501,0.136c0.084,0.642-0.115,1.222-0.511,1.67
			c0.157,0.057,0.305,0.145,0.434,0.291c0.012,0.013,0.016,0.028,0.024,0.042c0.069,0.057,0.114,0.145,0.087,0.258
			c-0.111,0.474-0.36,0.881-0.699,1.207c0.323-0.047,0.63-0.163,0.916-0.347c0.118-0.255,0.553-0.117,0.484,0.192
			c-0.07,0.308-0.216,0.578-0.411,0.813c0.795,0.14,1.49,0.597,1.874,1.351c0.03,0.058,0.032,0.114,0.022,0.166
			c0.083,0.115,0.088,0.283-0.073,0.369c-0.239,0.128-0.485,0.207-0.734,0.262c0.084,0.039,0.167,0.078,0.252,0.117
			c0.03,0.014,0.051,0.033,0.071,0.052c0.096,0.052,0.166,0.153,0.138,0.289c-0.107,0.511-0.441,0.867-0.91,1.055
			c-0.13,0.38-0.3,0.741-0.501,1.085c0.217-0.046,0.44-0.064,0.667-0.063c0.114-0.061,0.273-0.035,0.353,0.078
			c0.088,0.089,0.104,0.231,0.048,0.333c-0.018,0.61-0.241,1.172-0.588,1.669c6.01-1.246,6.034-5.612,5.759-7.807
			c-0.281-2.247,0.552-1.638,0.796-3.061c0.243-1.423-1.067-0.768,0.019-2.752c1.086-1.984-0.187-1.573-0.225-3.37
			c-0.037-1.797,3.557-2.284,3.557-2.284S60.212,6.164,57.965,5.323z"/>
	</g>
	<g>
		<path d="M18.82,32.463c-0.343,0.067-0.687,0.069-1.041,0.005c-0.229-0.041-0.231-0.291-0.103-0.425
			c0.019-0.036,0.044-0.071,0.084-0.099c0.153-0.109,0.246-0.247,0.313-0.41c-0.232-0.218-0.416-0.466-0.538-0.743
			c-0.123,0.156-0.272,0.292-0.473,0.38c-0.173,0.076-0.329-0.035-0.381-0.17c-0.018-0.022-0.037-0.045-0.049-0.075
			c-0.236-0.592-0.282-1.213-0.218-1.836c-0.261,0.019-0.516-0.013-0.771-0.086c-0.11,0.01-0.222-0.044-0.27-0.141
			c-0.091-0.129-0.051-0.323,0.075-0.395c0.185-0.444,0.469-0.815,0.816-1.133c-0.183-0.03-0.365-0.069-0.545-0.126
			c-0.248-0.079-0.222-0.395-0.05-0.491c0.011-0.011,0.017-0.024,0.031-0.034c0.265-0.193,0.455-0.442,0.587-0.722
			c-0.211,0.14-0.441,0.252-0.691,0.326c-0.175,0.052-0.293-0.072-0.317-0.211c-0.128-0.269-0.174-0.538-0.156-0.807
			c-0.157,0.098-0.315,0.193-0.472,0.291c-0.185,0.115-0.358-0.031-0.384-0.197c-0.001-0.001-0.002-0.002-0.002-0.004
			c-0.419-1.175-0.109-2.41,0.819-3.024c-1.132-0.264-2.203-0.871-2.44-2.102c-0.034-0.176,0.074-0.32,0.254-0.333
			c0.266-0.019,0.521-0.09,0.776-0.16c-8.915-0.596-12.177,7.792-12.396,8.693c-0.225,0.927,0.449,1.619,1.123,0.899
			c0.534-0.73,2.78-1.516,3.426-1.067c0.646,0.449-0.14,2.05,1.544,2.247c0.337,0.168,1.657-0.084,1.582,0.403
			c-0.168,0.88,0.637,1.385,1.142,1.423c0.505,0.037,0.824,0.056,1.348,0.842c0.955,1.236,2.864,2.696,5.56,2.134
			c1.153-0.24,1.945-0.717,2.475-1.184c-0.087,0.007-0.176-0.024-0.236-0.118C18.94,33.532,18.809,33.008,18.82,32.463z"/>
	</g>
	<g>
		<path d="M41.996,10.573c0.107-0.014,0.208-0.038,0.318-0.045c0.044-0.062,0.094-0.13,0.149-0.202
			c-0.093,0.01-0.186,0.016-0.279,0.034C42.056,10.384,42,10.474,41.996,10.573z"/>
	</g>
	<g>
		<ellipse transform="matrix(0.9432 -0.3322 0.3322 0.9432 -7.4934 11.4178)" cx="29.647" cy="27.625" rx="0.537" ry="0.186"/>
	</g>
	<g>
		<ellipse transform="matrix(0.9432 -0.3322 0.3322 0.9432 -7.229 11.9119)" cx="31.225" cy="27.099" rx="0.537" ry="0.186"/>
	</g>
	<g>
		<path d="M34.97,27.625c0,0,0.351-0.044,0.361,0.044c0.011,0.088-0.779,1.444-3.19,1.065c-1.84-0.345-3.059,1.659-3.246,1.805
			c-0.225,0.176-1.019,0.624-1.512,0.197c0,0-0.044-0.277,0.06-0.34c0,0-0.942,0.438-0.394,1.095c0,0,0.104-0.288,0.178-0.312
			c0.074-0.025,0.534,0.149,1.191,0.049c0.879-0.134,2.196-2.06,3.039-2.055s2.481,0.218,3.095-0.06c0,0,0.917-0.555,1.104-1.332
			c0,0,0.299,0.05,0.364,0.203C36.088,28.139,35.967,27.077,34.97,27.625z"/>
	</g>
</g>
</svg>
