<?xml version="1.0" encoding="utf-8"?>
<!-- Generator: Adobe Illustrator 17.0.2, SVG Export Plug-In . SVG Version: 6.00 Build 0)  -->
<!DOCTYPE svg PUBLIC "-//W3C//DTD SVG 1.1//EN" "http://www.w3.org/Graphics/SVG/1.1/DTD/svg11.dtd">
<svg version="1.1" id="Layer_1" xmlns="http://www.w3.org/2000/svg" xmlns:xlink="http://www.w3.org/1999/xlink" x="0px" y="0px"
	 width="64px" height="64px" viewBox="0 0 64 64" enable-background="new 0 0 64 64" xml:space="preserve">
<g>
	<path d="M27.631,29.113c-1.679,0-3.045,1.366-3.045,3.044c0,1.679,1.366,3.045,3.045,3.045s3.045-1.366,3.045-3.045
		C30.676,30.479,29.311,29.113,27.631,29.113z"/>
	<path d="M37.271,29.113c-1.679,0-3.045,1.366-3.045,3.044c0,1.679,1.366,3.045,3.045,3.045c1.68,0,3.046-1.366,3.046-3.045
		C40.317,30.479,38.951,29.113,37.271,29.113z"/>
	<path d="M46.334,17.913c0.14-0.206,0.218-0.478,0.262-0.709c0.245,0.153,0.514,0.23,0.801,0.23c0.71,0,1.274-0.483,1.297-0.504
		l0.354-0.313l-0.466-0.097c-0.005-0.002-0.61-0.138-1.356-1.202c-0.387-0.553-0.377-0.908-0.369-1.221
		c0.008-0.303,0.017-0.646-0.442-0.914c-0.662-0.387-0.82-0.866-0.804-0.955c0.295-1.329-0.5-2.142-1.026-2.681l-0.116-0.12
		c-0.651-2.113-1.756-3.055-3.575-3.055c-0.579,0-1.254,0.092-2.105,0.286c0.28-0.513,1.025-0.787,1.547-0.98
		c0.449-0.166,0.719-0.266,0.739-0.519c0.012-0.142-0.069-0.263-0.29-0.38c-0.548-0.162-1.086-0.244-1.601-0.244
		c-2.604,0-4.061,2.019-4.844,3.104c-0.088,0.122-0.182,0.252-0.261,0.354c-0.001-0.006-0.001-0.014-0.002-0.021
		c-0.062-1.091,0.714-1.483,1.131-1.693c0.208-0.105,0.387-0.195,0.359-0.404c-0.031-0.225-0.287-0.277-0.558-0.333
		c-0.727-0.15-1.609,0.752-2.279,1.471c-0.146,0.157-0.314,0.336-0.436,0.458c0.011-0.084,0.031-0.197,0.065-0.347
		c0.157-0.705,0.027-1.344-0.377-1.847c-0.489-0.61-1.28-0.894-1.66-0.894c-0.259,0-0.323,0.152-0.338,0.217
		c-0.056,0.234,0.201,0.362,0.298,0.41c0.576,0.288,0.499,0.941,0.429,1.239c-0.633,0.056-1.196,0.551-1.568,0.973
		c-0.038-0.87-0.322-1.603-0.848-2.187c-0.822-0.913-1.965-1.154-2.455-1.154c-0.32,0-0.493,0.098-0.516,0.289
		c-0.033,0.277,0.29,0.414,0.787,0.535c0.481,0.118,0.733,0.585,0.749,1.389c0.036,1.801-1.107,4.273-1.524,4.527
		c-0.003-0.006-0.005-0.013-0.007-0.02c-0.436-1.361,1.029-4.036,1.044-4.063l0.252-0.457l-0.51,0.112
		C24.302,6.591,23,9.707,22.383,11.537c0.094-0.584,0.266-1.284,0.467-1.914l0.214-0.672l-0.576,0.408
		c-2.537,1.797-2.621,4.983-2.591,5.881c-2.484,0.272-4.197,2.006-4.755,3.14l0.41,0.232c0.392-0.608,1.616-0.824,2.544-0.824
		c0.543,0,0.931,0.067,1.136,0.13c-0.791,0.382-2.097,1.458-2.38,2.819c-0.167,0.806,0.046,1.566,0.633,2.257
		c-0.101,1.703-1.338,2.744-1.939,3.248c-0.326,0.274-0.49,0.412-0.412,0.625c0.072,0.197,0.306,0.202,0.436,0.197
		c0.48-0.019,0.799-0.247,1.008-0.468c0,0.231-0.012,0.491-0.021,0.699c-0.021,0.468-0.023,0.526,0.061,0.614L16.69,28h0.101
		c0.202,0,0.244-0.206,0.278-0.355c0.052-0.231,0.214-0.462,0.375-0.627c-0.11,0.73-0.511,1.335-0.794,1.761
		c-0.243,0.366-0.389,0.588-0.275,0.801c0.065,0.119,0.188,0.18,0.366,0.18c0.354,0,0.642-0.166,0.859-0.352
		c-0.008,0.099-0.015,0.194-0.02,0.273c-0.881,2.515,0.423,4.685,1.278,5.754c0.283,0.354,0.485,0.778,0.679,1.189
		c0.413,0.876,0.841,1.779,2.047,1.897c0.006,0.061,0.011,0.126,0.016,0.194c0.07,0.897,0.184,2.379,1.748,4.516
		c-0.882,0.462-3.772,2.065-4.481,3.615c-0.266,0.579-0.239,1.033-0.206,1.607c0.073,1.271,0.195,3.4-2.746,9.813l-0.569,1.242
		l0.954-0.979c0.027-0.027,2.663-2.707,4.972-2.744c0.735,2.059,4.289,6.881,8.009,7.89c0.016,0.003,0.398,0.054,1.01,0.054
		c1.227,0,3.583-0.216,5.569-1.658c1.587-1.046,2.229-2.325,2.851-3.561c0.448-0.894,0.913-1.818,1.74-2.675
		c0.127-0.022,0.433-0.067,0.86-0.067c1.268,0,3.717,0.395,5.863,3.038l0.39-0.264c-0.035-0.063-3.494-6.365-2.747-11.538
		l0.018-0.119l-0.087-0.084c-0.107-0.103-2.539-2.452-4.727-3.517c0.021-0.026,0.037-0.049,0.049-0.066
		c1.695-2.428,1.826-4.228,1.809-4.856c1.833-0.259,2.061-0.801,2.273-1.646c0.098-0.396,0.211-0.844,0.652-1.352
		c1.987-2.453,1.642-4.614,1.32-5.588c0.099,0.014,0.203,0.021,0.31,0.021c0.147,0,0.886-0.02,1.016-0.415
		c0.026-0.077,0.058-0.276-0.189-0.458l-0.098-0.042c-0.348-0.064-0.357-0.109-0.173-0.109c0.235,0,0.327-0.118,0.36-0.188
		c0.033-0.069,0.067-0.211-0.056-0.359c-0.752-1.237-0.757-2.114-0.762-2.963c-0.002-0.502-0.005-1.016-0.166-1.581
		c1.418,1.174,1.816,3.672,1.82,3.7l0.205,1.342l0.26-1.332c0.545-2.79-1.235-4.992-2.089-6.05
		c-0.084-0.103-0.173-0.213-0.244-0.307c0.599,0.035,1.072,0.236,1.404,0.599c0.679,0.741,0.581,1.931,0.58,1.943l0.47,0.048
		C49.224,19.657,47.241,18.314,46.334,17.913z M28.039,22h1.239l-0.155,1h0.852l-1.394,2.886L28.707,24H28L28.039,22z
		 M37.239,35.887c-1.763,0-3.271-1.237-3.621-2.954c-0.258-0.077-0.662-0.184-1.172-0.184c-0.421,0-0.836,0.075-1.234,0.222
		c-0.364,1.694-1.871,2.916-3.613,2.916c-2.038,0-3.697-1.659-3.697-3.697s1.659-3.697,3.697-3.697c2.039,0,3.697,1.659,3.697,3.697
		c0,0.016,0,0.032,0,0.049c0.296-0.095,0.736-0.2,1.229-0.2c0.368,0,0.709,0.06,1.019,0.177c0-0.009,0-0.018,0-0.026
		c0-2.038,1.658-3.697,3.696-3.697c2.038,0,3.696,1.659,3.696,3.697C40.936,34.229,39.277,35.887,37.239,35.887z"/>
</g>
</svg>
