<?xml version="1.0" encoding="iso-8859-1"?>
<!-- Generator: Adobe Illustrator 17.1.0, SVG Export Plug-In . SVG Version: 6.00 Build 0)  -->
<!DOCTYPE svg PUBLIC "-//W3C//DTD SVG 1.1//EN" "http://www.w3.org/Graphics/SVG/1.1/DTD/svg11.dtd">
<svg version="1.1" id="Layer_1" xmlns="http://www.w3.org/2000/svg" xmlns:xlink="http://www.w3.org/1999/xlink" x="0px" y="0px"
	 viewBox="0 0 612 792" style="enable-background:new 0 0 612 792;" xml:space="preserve">
<g>
	<path d="M410.528,584.878c-0.163-1.07-0.355-2.166-0.568-3.279c-1.96,3.153-4.325,6.182-7.139,9.036
		c-15.864,37.026-26.851,32.551-26.851,32.551c11.8-51.676-38.958-63.878-38.958-63.878c32.044,36.309,7.019,89.094,4.58,70.179
		c-2.438-18.924-47.899-47.908-32.34-34.482c15.558,13.426,13.426,47.899,9.151,42.104c-17.088-17.088-36.003-22.281-57.365-37.533
		c2.744,9.151,15.558,22.883,15.558,22.883c-58.589-10.375-54.927-54.315-57.671-43.328s-0.918,14.038-0.918,14.038
		c-30.514-43.022-3.662-76.892-11.293-70.791c-7.631,6.101-10.576,19.02-10.576,19.02c-1.42-4.074-2.308-7.988-2.74-11.739
		c-0.073,1.447-0.119,2.914-0.11,4.424c0.411,66.316-20.139,100.234-23.189,109.385C167.047,652.619,157.274,663.75,153,702h312.455
		C465.455,702,415.414,619.868,410.528,584.878z"/>
	<path d="M198.164,377.038c20.139,42.515,56.753,71.805,75.066,85.843c16.17,12.919,17.088,21.965,17.088,25.025
		c-1.184-1.733-2.68-3.318-4.423-4.753c1.815,3.147,2.587,5.356,2.587,5.356c1.023,5.747,0.029,11.886-2.41,16.486
		c16.677-5.489,26.239,18.513,26.239,18.513c3.452-6.101,18.915-5.489,18.915-5.489c-1.282-3.296-5.044-12.222,1.788-23.878
		c1.151-5.729,3.945-11.885,9.983-16.839c15.874-13.024,33.364,4.179,90.318-77.6c26.44-45.565-14.239-75.41-14.239-75.41
		s19.527-0.889,25.226,10.098c0,0-3.557-18.857-18.054-20.837c0,0,13.12-1.54,18.006,2.878c0,0-7.784-23.505-35.544-17.71
		c0,0,10.222-11.599,27.005-11.293c0,0-13.273-3.509-22.73,1.214c0,0,10.528-13.426,22.118-12.814c0,0-21.669-3.815-33.258,14.038
		c0,0-2.438-16.17-11.293-15.711c3.968-11.14-1.071-44.552-18.159-52.632c0,0,30.667,1.071,39.206,45.307
		c0,0-7.478-60.875-51.418-53.55c0,0,28.678-45.164,26.852-56.141c0,0-18.006,10.681-30.208,13.426s40.583-74.148,84.523-20.445
		c-8.176-15.137-47.296-45.307-80.105-1.339c-0.249,0.335-0.507,0.679-0.755,1.033c0,0,0-42.716-10.987-44.552
		c-2.438,76.28-122.056,88.491-124.494,170.26c0,0-21.152-7.526-36.615,1.826c0,0,31.327-4.886,41.501,14.239
		c0,0-26.44-13.015-40.277-3.251c0,0,28.076,1.626,32.952,6.512c0,0-38.852,5.087-35.19,34.788c0,0,6.914-12.412,15.463-11.188
		C188.439,327.953,176.6,363.201,198.164,377.038z"/>
</g>
</svg>
