<?xml version="1.0" encoding="utf-8"?>
<!-- Generator: Adobe Illustrator 17.0.2, SVG Export Plug-In . SVG Version: 6.00 Build 0)  -->
<!DOCTYPE svg PUBLIC "-//W3C//DTD SVG 1.1//EN" "http://www.w3.org/Graphics/SVG/1.1/DTD/svg11.dtd">
<svg version="1.1" id="Layer_1" xmlns="http://www.w3.org/2000/svg" xmlns:xlink="http://www.w3.org/1999/xlink" x="0px" y="0px"
	 width="64px" height="64px" viewBox="0 0 64 64" enable-background="new 0 0 64 64" xml:space="preserve">
<g>
	<path d="M53.62,41.775c0.072-0.108,0.538-0.897-0.394-1.47c-0.932-0.574-1.438,0.364-1.972-0.144
		c-0.717-1.326-2.046,0.544-2.33-0.575c-0.215-3.011-2.581-0.541-2.581-0.541c-5.306-2.509-3.872-10.546-3.226-13.127
		s0-5.819,0-5.819C42.113,2.82,40.32,1.722,40.32,1.722s-1.291,11.615-2.438,10.969C36.735,12.046,35.014,12,35.014,12h-6.029
		c0,0-1.721,0.046-2.868,0.691s-2.438-10.83-2.438-10.83s-1.792,1.028-2.796,18.308c0,0-0.645,3.203,0,5.784
		s2.079,10.6-3.226,13.109c0,0-2.366-2.48-2.581,0.532c-0.285,1.119-1.613-0.756-2.33,0.57c-0.534,0.508-1.04-0.433-1.972,0.141
		c-0.932,0.574-0.466,1.359-0.394,1.467c0.072,0.108-1.434,0.425-1.04,2.791c0,0,0.143,0.314,0.609,0.278
		c-0.825,2.008,2.402,3.842,6.31,4.81C20.149,50.995,26.064,60,31.925,60h0.149c5.861,0,11.777-9.005,15.666-10.349
		c3.908-0.968,7.134-2.916,6.31-4.924c0.466,0.036,0.609-0.221,0.609-0.221C55.054,42.14,53.549,41.883,53.62,41.775z
		 M34.268,56.318c0,0,0.473-0.805-0.12-0.904c-0.38-0.093-0.786,0.408-0.826,0.435c0,0-0.322-0.677-0.639-0.673
		C32.342,55.18,32.162,55.29,31.937,56h-0.025c-0.21-0.676-0.408-0.771-0.746-0.823c-0.338-0.052-0.639,0.435-0.639,0.435
		c-0.04-0.027-0.446-0.408-0.826-0.315c-0.593,0.1-0.12,0.966-0.12,0.966s-1.658-0.56-1.365-1.732
		c0.293-1.172,2.204-1.539,2.204-1.539s-0.693,0.853,0.2,1.199c0.891,0.293,0.936-0.933,0.906-1.282l0.21,0.205l0.378,0.002
		l0.204-0.225c-0.03,0.35,0.021,1.513,0.912,1.22c0.892-0.346,0.2-1.148,0.2-1.148s1.911,0.404,2.204,1.576
		C35.926,55.711,34.268,56.318,34.268,56.318z M32.422,37.781c-0.193,0-1.734,0.051-1.928,0.051c-8.102,0-6.596-9.274-6.596-9.274
		L31.319,29h0.212l7.421-0.442C38.952,28.558,40.524,37.781,32.422,37.781z"/>
</g>
</svg>
