<?xml version="1.0" encoding="utf-8"?>
<!-- Generator: Adobe Illustrator 17.0.2, SVG Export Plug-In . SVG Version: 6.00 Build 0)  -->
<!DOCTYPE svg PUBLIC "-//W3C//DTD SVG 1.1//EN" "http://www.w3.org/Graphics/SVG/1.1/DTD/svg11.dtd">
<svg version="1.1" id="Layer_1" xmlns="http://www.w3.org/2000/svg" xmlns:xlink="http://www.w3.org/1999/xlink" x="0px" y="0px"
	 width="64px" height="64px" viewBox="0 0 64 64" enable-background="new 0 0 64 64" xml:space="preserve">
<g>
	<path fill="none" stroke="#000000" stroke-width="0.6022" stroke-miterlimit="10" d="M18.526,11.426"/>
</g>
<g>
	<path fill="none" stroke="#000000" stroke-width="0.6022" stroke-miterlimit="10" d="M42.953,11.426"/>
</g>
<g>
	<path d="M42.863,38.306c2.943-2.925,10.531-10.752,10.531-13.662c0-2.587-5.688-8.806-7.079-10.287
		c0.636-1.44,2.784-7.246-2.344-10.369c-1.31-0.798-2.661-1.203-4.015-1.203c-3.671,0-6.278,2.89-7.003,4.423
		C32.412,7.129,31.451,7,30.864,7h-0.25c-0.587,0-1.547,0.128-2.088,0.207C27.8,5.66,25.178,2.735,21.495,2.735
		c-1.345,0-2.687,0.401-3.988,1.194c-5.13,3.124-2.979,8.954-2.344,10.395c-1.391,1.484-7.08,7.711-7.08,10.299
		c0,2.905,7.589,10.734,10.531,13.66C11.301,44.048,9.141,52.6,9.051,52.968l-0.574,2.35l1.459-1.929
		c0.056-0.075,5.17-6.8,8.964-8.865c-1.758,4.166-2.839,11.879-0.906,15.002l0.611,0.987l0.298-1.122
		c0.749-2.82,4.028-8.722,6.554-11.014c-0.01,2.449,0.447,8.525,4.782,13.453L30.388,62h0.227h0.25h0.226l0.147-0.172
		c4.332-4.925,4.792-10.997,4.782-13.449c2.511,2.302,5.792,8.275,6.554,11.144l0.298,1.122l0.611-0.987
		c1.943-3.138,0.858-10.887-0.906-15.068c3.793,2.061,8.908,8.761,8.965,8.836l1.454,1.915l-0.57-2.336
		C52.336,52.636,50.176,44.072,42.863,38.306z M37.599,8.059c0.638,0.178,1.221,0.446,1.776,0.76
		c0.223-0.18,0.502-0.292,0.811-0.292c0.718,0,1.299,0.582,1.299,1.299c0,0.139-0.027,0.27-0.068,0.396
		c0.436,0.339,0.87,0.686,1.313,1.022c0.61,0.463,0.011,1.51-0.608,1.04c-0.523-0.397-1.035-0.818-1.556-1.223
		c-0.12,0.037-0.246,0.063-0.379,0.063c-0.685,0-1.24-0.532-1.289-1.205c-0.508-0.29-1.04-0.537-1.619-0.699
		C36.532,9.012,36.85,7.85,37.599,8.059z M18.749,11.245c0.443-0.336,0.876-0.683,1.313-1.022c-0.04-0.125-0.068-0.257-0.068-0.396
		c0-0.718,0.582-1.299,1.299-1.299c0.308,0,0.588,0.112,0.811,0.292c0.555-0.314,1.137-0.582,1.776-0.76
		c0.749-0.21,1.067,0.953,0.32,1.161c-0.58,0.162-1.111,0.409-1.619,0.699c-0.049,0.673-0.604,1.205-1.289,1.205
		c-0.133,0-0.258-0.026-0.379-0.063c-0.521,0.405-1.033,0.826-1.556,1.223C18.738,12.755,18.139,11.708,18.749,11.245z M30.865,41
		h-0.251c-5.094,0-15.306-11.823-17.507-15.323c-0.339,1.186,0.527,3.232,0.527,3.232s-1.129-0.941-1.28-3.557
		c-0.151-2.616,2.127-3.387,1.769-3.161c-0.357,0.225-1.129,1.977-1.129,2.24c0,0.264,1.11,1.188,1.11,1.188
		C25.997,32.695,30.614,33,30.614,33h0.251c0,0,4.617-0.293,16.511-7.368c0,0,1.11-1.065,1.11-1.328c0-0.264-0.771-1.914-1.129-2.14
		c-0.358-0.226,1.92,0.632,1.769,3.248c-0.151,2.616-1.28,3.673-1.28,3.673s0.866-2.232,0.527-3.418
		C46.171,29.167,35.959,41,30.865,41z"/>
	<path d="M30.865,34.197l-0.251,0.099c0.006-0.527-0.834-0.71-1.813-1.011c-0.979-0.301-5.326-1.588-5.326-1.588
		S25.821,40,30.614,40h0.251c4.793,0,7.139-8.302,7.139-8.302s-4.347,1.088-5.326,1.389C31.699,33.388,30.859,33.67,30.865,34.197z"
		/>
</g>
</svg>
