<?xml version="1.0" encoding="utf-8"?>
<!-- Generator: Adobe Illustrator 17.0.2, SVG Export Plug-In . SVG Version: 6.00 Build 0)  -->
<!DOCTYPE svg PUBLIC "-//W3C//DTD SVG 1.1//EN" "http://www.w3.org/Graphics/SVG/1.1/DTD/svg11.dtd">
<svg version="1.1" id="Layer_1" xmlns="http://www.w3.org/2000/svg" xmlns:xlink="http://www.w3.org/1999/xlink" x="0px" y="0px"
	 width="64px" height="64px" viewBox="0 0 64 64" enable-background="new 0 0 64 64" xml:space="preserve">
<g>
	<path d="M59.662,21.01c-1.845,0.237-1.183,3.975-5.962,6.672c-1.849,1.084-3.38,1.364-4.509,1.345
		c-2.683-9.394-7.596-16.392-16.169-16.392c-8.292,0-13.788,6.986-16.614,16.394c-1.115-0.007-2.596-0.307-4.37-1.347
		c-4.779-2.697-4.117-6.435-5.962-6.672S1.959,25.553,3,28.676s2.488-0.496,7.724,1.041c2.559,0.751,4.012,1.638,4.876,2.376
		c-0.132,0.574-0.257,1.154-0.37,1.74C12.846,46.148,16.271,58.06,32.075,58.06c14.574,0,20.786-9.969,18.549-22.713
		c-0.186-1.062-0.395-2.107-0.625-3.133c0.845-0.761,2.313-1.705,5.015-2.498c5.236-1.537,6.683,2.082,7.724-1.041
		C63.778,25.553,61.507,20.774,59.662,21.01z M4.45,28.297l1.743-2.508L5.985,22.24C8.6,26.878,4.45,28.297,4.45,28.297z
		 M59.626,22.241l-0.203,3.549l1.706,2.508C61.129,28.297,57.068,26.878,59.626,22.241z"/>
</g>
</svg>
