<?xml version="1.0" encoding="utf-8"?>
<!-- Generator: Adobe Illustrator 17.0.2, SVG Export Plug-In . SVG Version: 6.00 Build 0)  -->
<!DOCTYPE svg PUBLIC "-//W3C//DTD SVG 1.1//EN" "http://www.w3.org/Graphics/SVG/1.1/DTD/svg11.dtd">
<svg version="1.1" id="Layer_1" xmlns="http://www.w3.org/2000/svg" xmlns:xlink="http://www.w3.org/1999/xlink" x="0px" y="0px"
	 width="64px" height="64px" viewBox="0 0 64 64" enable-background="new 0 0 64 64" xml:space="preserve">
<path d="M49.149,53.016l-0.538,0.041c-0.041,0.003-0.127,0.005-0.251,0.005c-1.732,0-4.919-0.397-5.882-1.887
	c-0.429-0.664-0.694-1.21-0.927-1.691c-0.481-0.992-0.866-1.785-2.25-2.583c-0.6-2.881,0.296-6.088,0.792-6.699
	c0.082,0.014,0.17,0.02,0.266,0.02c0.296,0,2.465-0.344,2.482-1.117l-0.029-0.356c1.228-0.377,3.036-1.036,3.011-1.631l-0.088-0.503
	h-0.477c0.866-0.718,1.305-1.627,1.583-2.204c0.057-0.118,0.107-0.223,0.153-0.306c0.33-0.599,0.737-2.236,0.188-3.307
	c-0.167-0.327-0.408-0.579-0.711-0.749c0.917-1.248,2.003-2.972,1.638-3.718c-0.097-0.198-0.289-0.321-0.501-0.321l-0.233,0.005
	l-0.139,0.139c0.197-0.679,0.436-1.762,0.25-2.059l-0.152-0.238h-0.277c-0.103,0-0.193,0.026-0.271,0.077
	c0.124-0.523,0.212-0.987,0.229-1.079c1.176-6.004-2.877-7.408-4.608-8.008c-0.265-0.091-0.584-0.203-0.611-0.19
	c-0.318-0.574-0.813-0.853-1.511-0.853c-0.175,0-0.368,0.017-0.594,0.053c0.07-0.051,0.139-0.117,0.205-0.203
	c0.244-0.32,0.263-0.616,0.236-0.808c-0.019-0.136-0.065-0.259-0.127-0.369c0.25-0.093,0.412-0.293,0.44-0.543
	c0.09-0.831-2.024-2.239-2.89-2.778c0.035-0.146,0.046-0.328-0.006-0.542c-0.129-0.533-0.638-1.447-3.518-3.191
	c-2.155-1.562-2.399-2.425-2.56-2.995c-0.071-0.254-0.146-0.516-0.298-0.704c-0.089-0.156-0.907-1.527-2.102-1.527
	c-0.366,0-0.715,0.128-1.038,0.38l-4.106,0.22l2.36,0.836c0.436,0.155,0.917,0.4,0.988,0.476c0.121,0.3,0.302,0.755,0.394,2.109
	l0.008,0.125c0.078,1.179,0.276,4.182,1.84,5.817l-0.222-0.11c-0.724-0.356-1.599-0.544-2.529-0.544
	c-1.384,0-2.778,0.401-4.031,1.159c-2.125,1.285-4.188,4.663-4.709,5.92c-0.967,0.526-1.175,1.652-1.315,2.413
	c-0.047,0.254-0.111,0.602-0.165,0.678c-0.054,0.051-0.122,0.077-0.237,0.119c-0.755,0.274-0.919,0.774-0.648,1.985
	c0.105,0.472-0.106,0.799-0.556,1.436c-0.605,0.856-1.432,2.028-1.306,4.172c-0.053,0.408,0.043,0.63,0.18,0.804
	c-0.006,0.028-0.015,0.067-0.03,0.121c-0.073,0.454-0.002,0.877,0.141,1.26c-0.013-0.001-0.026-0.001-0.04-0.001l-0.228,0.002
	l-0.149,0.167c-0.168,0.189-0.155,0.302-0.072,1.032c0.069,0.606,0.303,1.11,0.582,1.518l-0.075,0.091
	c-0.185,0.226-0.131,0.496-0.056,0.871c0.081,0.402,0.345,0.751,0.675,1.052l-0.239-0.055l0.271,0.837
	c0.215,0.668,0.938,0.993,1.673,1.196c-0.05,0.044-0.094,0.101-0.129,0.173c-0.053,0.109-0.114,0.332,0.064,0.6
	c0.1,0.151,0.352,0.345,0.751,0.579c-0.016,0.044-0.027,0.093-0.032,0.15c-0.017,0.197,0.088,0.417,0.317,0.508
	c0.016,0.016,0.036,0.035,0.057,0.056c0.286,0.282,0.881,0.871,2.235,1.068c1.809,0.193,1.91,0.494,1.984,0.715l0.083,0.25
	l0.007,0.002c0.182,0.934,0.27,4.176,0.036,5.13c-1.407,0.214-2.739,1.687-2.895,3.302c-0.057,0.75-0.853,3.714-2.467,3.79
	c-2.279,0.107-3.27,1.155-3.311,1.199L13,53.949v0.195v0.264l0.035,0.181c0.037,0.096,0.939,2.367,3.588,4.647
	c2.422,2.085,6.836,4.57,14.105,4.57c7.055,0,11.637-2.554,14.24-4.691c2.914-2.399,4.208-4.949,4.208-5.513L49.149,53.016z
	 M30.962,38c1.401,0.211,2.788,0.713,2.863,1.041c0.095,0.409,0.154,0.928,0.185,1.247c-0.166,0.084-0.425,0.18-0.745,0.18
	c-0.64,0-1.295-0.365-1.947-1.087l-0.106-0.117l-0.607-0.139l-0.196,0.219c-0.63,0.697-1.256,1.051-1.861,1.051
	c-0.352,0-0.626-0.121-0.79-0.218c0.021-0.319,0.072-0.869,0.188-1.274c0.125-0.439,1.609-0.829,2.832-0.903
	C30.778,38,30.962,38,30.962,38z M38.66,13.829c-1.449-0.266-3.471-0.992-6.033-2.166c0.187-0.193,0.375-0.403,0.559-0.627
	c0.208-0.034,0.512-0.11,0.779-0.285c0.559,0.327,1.74,0.997,2.717,1.413c0.47,0.2,0.89,0.634,1.261,1.016
	C38.192,13.437,38.421,13.674,38.66,13.829z"/>
</svg>
