<?xml version="1.0" encoding="iso-8859-1"?>
<!-- Generator: Adobe Illustrator 17.1.0, SVG Export Plug-In . SVG Version: 6.00 Build 0)  -->
<!DOCTYPE svg PUBLIC "-//W3C//DTD SVG 1.1//EN" "http://www.w3.org/Graphics/SVG/1.1/DTD/svg11.dtd">
<svg version="1.1" id="Layer_1" xmlns="http://www.w3.org/2000/svg" xmlns:xlink="http://www.w3.org/1999/xlink" x="0px" y="0px"
	 viewBox="0 0 64 64" style="enable-background:new 0 0 64 64;" xml:space="preserve">
<g>
	<g>
		<path d="M10.645,44.839c-0.637-0.647-1.25-1.322-1.837-2.028c-0.476,0.697-0.823,1.455-1.037,2.315
			c0.314,0.57,0.654,1.121,1.017,1.659C9.239,46.013,9.914,45.41,10.645,44.839z"/>
	</g>
	<g>
		<path d="M11.195,45.383c-0.789,0.593-1.526,1.249-1.901,2.123c1.248,1.694,2.755,3.214,4.523,4.539
			c0.076-1.308,0.422-2.544,1.094-3.686C13.576,47.489,12.343,46.488,11.195,45.383z"/>
	</g>
	<g>
		<path d="M5.223,37.788c0.063,0.348,0.129,0.693,0.205,1.034c0.046-0.157,0.089-0.316,0.141-0.471
			C5.45,38.167,5.339,37.975,5.223,37.788z"/>
	</g>
	<g>
		<path d="M7.246,35.156c0.309-0.406,1.007-0.007,0.693,0.405c-0.639,0.84-1.138,1.774-1.504,2.759
			c0.095,0.152,0.194,0.303,0.291,0.454c0.794,0.134,1.591,0.173,2.405,0.129c0.517-0.028,0.515,0.775,0,0.803
			c-0.614,0.033-1.221,0.015-1.824-0.046c0.448,0.667,0.921,1.314,1.407,1.951c0.508-0.599,1.109-1.166,1.805-1.72
			c0.4-0.319,0.972,0.245,0.568,0.568c-0.732,0.582-1.355,1.172-1.869,1.805c0.611,0.76,1.256,1.491,1.942,2.183
			c0.324-0.244,0.65-0.488,0.966-0.743c0.398-0.322,0.97,0.242,0.568,0.568c-0.304,0.246-0.635,0.484-0.971,0.727
			c1.103,1.041,2.269,1.94,3.496,2.708c0.007-1.054-0.287-2.033-0.747-2.981c-0.225-0.464,0.467-0.871,0.693-0.405
			c0.544,1.12,0.902,2.291,0.857,3.547c0,0.006-0.003,0.01-0.004,0.016c0.032,0.084,0.028,0.181-0.029,0.281
			c0.743,0.424,1.51,0.797,2.296,1.132c0.279-1.002,0.81-1.981,1.6-2.984c0.32-0.406,0.884,0.166,0.568,0.568
			c-0.724,0.919-1.188,1.812-1.418,2.724c1.441,0.556,2.954,0.968,4.533,1.26c-0.14-1.001-0.658-1.998-1.27-2.861
			c-0.301-0.423,0.396-0.823,0.693-0.405c0.741,1.043,1.287,2.23,1.386,3.409c1.281,0.204,2.569,0.373,3.861,0.513
			c-0.161-1.255-0.372-2.509-0.244-3.787c0.051-0.51,0.854-0.515,0.803,0c-0.131,1.306,0.092,2.586,0.254,3.869
			c1.506,0.148,3.018,0.256,4.531,0.324c0.333-0.949,0.692-1.897,0.766-2.922c0.037-0.513,0.84-0.517,0.803,0
			c-0.074,1.028-0.437,1.99-0.772,2.952c1.045,0.038,2.091,0.056,3.136,0.059c-0.193-0.905-0.361-1.814-0.291-2.743
			c0.039-0.513,0.842-0.517,0.803,0c-0.07,0.932,0.082,1.838,0.264,2.74c0.905-0.006,1.809-0.021,2.711-0.054
			c0.931-0.034,1.857-0.102,2.778-0.191c-0.349-0.798-0.879-1.512-1.675-2.082c-0.417-0.298-0.017-0.995,0.405-0.693
			c1.028,0.734,1.678,1.66,2.082,2.691c1.01-0.111,2.015-0.248,3.018-0.393c0.019-1.164,0.101-2.333,0.048-3.489
			c-0.024-0.518,0.779-0.515,0.803,0c0.052,1.113-0.032,2.246-0.055,3.372c0.868-0.13,1.735-0.266,2.603-0.399
			c-0.288-0.746-0.463-1.536-0.593-2.331c-0.083-0.506,0.69-0.723,0.774-0.213c0.137,0.832,0.318,1.652,0.639,2.42
			c0.25-0.038,0.5-0.073,0.75-0.109c0.873-0.963,1.66-1.997,2.36-3.092c-1.081-0.249-2.051-0.773-2.881-1.57
			c-0.374-0.359,0.194-0.926,0.568-0.568c0.784,0.753,1.713,1.231,2.758,1.415c0.376-0.636,0.727-1.288,1.047-1.959
			c-1.01-0.174-1.948-0.585-2.82-1.166c-0.428-0.285-0.027-0.981,0.405-0.693c0.854,0.569,1.76,0.968,2.758,1.1
			c1.563-3.573,2.357-7.565,2.357-11.66c0-14.184-11.858-25.678-27.188-25.678S4.75,18.165,4.75,32.349
			c0,0.063,0.003,0.125,0.004,0.188c0.699,0.064,1.39,0.184,2.076,0.361c0.501,0.129,0.288,0.903-0.213,0.774
			c-0.612-0.158-1.226-0.266-1.847-0.328c0.025,0.835,0.081,1.654,0.169,2.458c0.318,0.554,0.64,1.106,0.972,1.654
			C6.261,36.641,6.706,35.865,7.246,35.156z M33.693,25.41c0,0,4.013,0.702,8.578-4.966c3.762-4.331,7.875-1.354,8.176-1.304
			c0,0-2.458-0.334-3.561,0.234c3.11,0.368,7.374,5.577,3.01,13.004c-3.561,5.873-10.233,4.067-10.233,4.067
			s0.803,1.354,3.411,2.006C36.201,39.556,33.242,28.32,33.693,25.41z M24.499,30.784c-0.331,1.359-1.083,2.53-2.191,3.383
			c-0.287,0.221-0.685-0.142-0.589-0.453c0.41-1.333,1.072-2.579,2.043-3.588c0.287-0.299,0.699,0.005,0.673,0.329
			C24.499,30.54,24.532,30.651,24.499,30.784z M27.583,30.413c0.049,0.007,0.098,0.021,0.143,0.052
			c1.594,1.075,2.812,2.661,2.525,4.667c-0.035,0.248-0.236,0.322-0.425,0.276c-0.104,0.012-0.214-0.014-0.313-0.099
			c-1.315-1.133-2.367-2.797-2.645-4.524C26.798,30.341,27.381,30.119,27.583,30.413z M17.424,14.358c0,0,0.134-2.207,0.602-2.475
			c0.468-0.268-0.602,5.284,7.023,13.376c-2.006-0.635-3.01,2.608-4.08,4.147c-1.321,2.136-5.752,7.324-11.27,1.739
			c0,0,1.848,0.886,3.127,0.786C10.017,30.426,8.813,16.682,17.424,14.358z"/>
	</g>
	<g>
		<path d="M6.339,39.515c-0.087-0.017-0.174-0.033-0.26-0.052c-0.088,0.342-0.159,0.688-0.217,1.036
			c0.369,1.258,0.828,2.464,1.383,3.609c0.255-0.702,0.598-1.347,1.035-1.951C7.605,41.309,6.958,40.428,6.339,39.515z"/>
	</g>
	<g>
		<path d="M44.044,52.514c-1.451,0.152-2.91,0.257-4.386,0.279c-0.403,0.006-0.807,0.002-1.21,0.003
			c0.209,1.032,0.383,2.066,0.23,3.136c-0.073,0.511-0.846,0.293-0.774-0.213c0.141-0.986-0.021-1.953-0.224-2.92
			c-1.186-0.003-2.374-0.017-3.562-0.059c-0.251,0.823-0.42,1.659-0.308,2.551c0.065,0.513-0.739,0.506-0.803,0
			c-0.115-0.914,0.058-1.759,0.314-2.588c-1.396-0.061-2.791-0.144-4.181-0.274c0.064,0.704,0.083,1.412-0.012,2.126
			c-0.067,0.505-0.87,0.512-0.803,0c0.098-0.74,0.074-1.472,0.004-2.202c-1.327-0.139-2.649-0.313-3.963-0.532
			c-0.084,0.797-0.4,1.574-1.041,2.283c-0.348,0.385-0.914-0.185-0.568-0.568c0.524-0.579,0.771-1.209,0.829-1.853
			c-0.284-0.051-0.57-0.096-0.853-0.151c-1.361-0.267-2.639-0.645-3.845-1.118c-0.11,1.118,0.118,2.28,0.66,3.567
			c0.201,0.477-0.576,0.683-0.774,0.213c-0.626-1.486-0.848-2.823-0.665-4.103c-0.878-0.385-1.717-0.821-2.519-1.304
			c-0.684,1.182-0.988,2.447-0.99,3.821c4.216,2.901,9.792,4.773,16.767,5.36c5.001,0.421,9.338-0.25,13.006-1.728
			C44.423,54.98,44.385,53.684,44.044,52.514z"/>
	</g>
	<g>
		<path d="M44.83,52.426c0.299,1.096,0.37,2.282,0.35,3.469c0.946-0.423,1.846-0.901,2.697-1.431
			c-0.186-0.793-0.257-1.596-0.27-2.405C46.683,52.191,45.758,52.318,44.83,52.426z"/>
	</g>
	<g>
		<path d="M48.398,51.945c0.009,0.69,0.061,1.376,0.196,2.052c1.024-0.694,1.976-1.462,2.852-2.299
			c-0.036-0.064-0.073-0.128-0.107-0.194C50.358,51.65,49.379,51.8,48.398,51.945z"/>
	</g>
</g>
</svg>
