<?xml version="1.0" encoding="iso-8859-1"?>
<!-- Generator: Adobe Illustrator 17.1.0, SVG Export Plug-In . SVG Version: 6.00 Build 0)  -->
<!DOCTYPE svg PUBLIC "-//W3C//DTD SVG 1.1//EN" "http://www.w3.org/Graphics/SVG/1.1/DTD/svg11.dtd">
<svg version="1.1" id="Layer_1" xmlns="http://www.w3.org/2000/svg" xmlns:xlink="http://www.w3.org/1999/xlink" x="0px" y="0px"
	 viewBox="0 0 64 64" style="enable-background:new 0 0 64 64;" xml:space="preserve">
<g>
	<g>
		<path d="M23.482,20.172c0.835-1.106,1.735-2.281,2.923-3.031c1.972-1.245,4.549-1.841,6.775-1.042
			c0.053-0.631,0.042-1.193-0.255-1.701c-1.116-1.908-0.363-2.016-0.111-2.591c0.084-0.191-0.033-0.338-0.204-0.456
			c-1.555-0.396-3.041,0.029-4.594,0.45c-1.182,0.32-2.385,0.687-3.431,1.342c-2.028,1.27-3.571,3.338-4.366,5.61
			c0.305,1.315,0.747,2.691,1.378,4.234C22.167,22.014,22.796,21.081,23.482,20.172z"/>
	</g>
	<g>
		<path d="M25.956,8.455c1.403-0.386,2.919-0.525,4.34-0.132c0.887,0.246,1.631,0.645,2.318,1.16
			c0.962-0.592,4.607-3.081,2.673-5.918c-2.16-3.167-8.188-0.648-8.188-0.648c-8.862-0.207-7.583,9.161-7.46,9.948
			C21.276,10.858,23.459,9.142,25.956,8.455z"/>
	</g>
	<g>
		<path d="M40.235,49.249c-2.538,2.295-4.319,2.78-4.319,2.187c0-0.594-0.918-5.534,0.648-6.803c2.457-2.052,2.43-3.104,2.43-3.104
			c2.268-0.783,1.62-1.647,1.62-1.647c2.915-1.62,5.939-6.209-0.729-7.801c0.621-4.238-1.296-5.642-1.296-5.642
			c3.239-0.243,2.915-2.079,2.915-2.079c0-0.486-0.514-1.431-5.589-1.071c-1.381-1.246-2.118-2.353-2.499-3.344
			c-1.996-0.427-4.113,0.515-5.731,1.664c-2.024,1.437-3.221,3.153-4.257,5.323c0.365,0.718,0.755,1.464,1.187,2.261
			c-2.538,0-2.394,0.918-2.394,0.918c1.386,0.558,0.936,1.53,0.936,1.53s-2.807,2.34-1.998,3.779
			c1.674,2.484,3.554-1.692,3.986-1.368c0.372,0.279,0.962,0.118,1.119,0.068c-1.841,0.539-1.469,4.734-1.416,4.278
			c0.054-0.459,0.702-3.32,0.567-0.891c-0.135,2.43,0.837,3.725,0.837,3.617s0-2.322,0.378-0.702
			c0.378,1.62,1.471,2.632,1.377,2.281c-0.094-0.351,0.279-0.553,0.279-0.553c3.275,2.376,3.959,9.844,3.257,9.808
			s-2.052-0.288-5.381-2.052c-3.329-1.764-2.807,0.27-2.807,0.27c0,0.756,1.296,1.08,0.864,3.959
			c-0.324,4.931,8.026-0.988,6.119,0.739C25.73,58.51,26.629,64,26.629,64h12.31c0.108-3-1.944-8.334-2.133-8.577
			c-0.054-0.216-1.728-2.655,1.053-0.847c2.78,1.809,5.318,1.318,4.643-0.977s1.755-2.54,1.998-5.212
			C44.743,45.715,42.772,46.955,40.235,49.249z"/>
	</g>
</g>
</svg>
