<?xml version="1.0" encoding="utf-8"?>
<!-- Generator: Adobe Illustrator 17.0.2, SVG Export Plug-In . SVG Version: 6.00 Build 0)  -->
<!DOCTYPE svg PUBLIC "-//W3C//DTD SVG 1.1//EN" "http://www.w3.org/Graphics/SVG/1.1/DTD/svg11.dtd">
<svg version="1.1" id="Layer_1" xmlns="http://www.w3.org/2000/svg" xmlns:xlink="http://www.w3.org/1999/xlink" x="0px" y="0px"
	 width="64px" height="64px" viewBox="0 0 64 64" enable-background="new 0 0 64 64" xml:space="preserve">
<g>
	<path d="M40.588,53.876c-0.594-0.594-2.996-2.605-2.996-2.605c0.054-2.456-1.808-2.544-1.7-2.841
		c0.108-0.297,0.036-1.223,0.036-1.223c1.835-1.475,2.915-5.249,3.059-6.112c1.187,0.252,1.682-2.579,1.952-2.579
		s0.648-0.673,0.729-1.402s-0.162-0.836,0.378-0.674s0.486-0.378,0-0.836c-0.486-0.459-0.243-0.675,0.297-0.756
		s0.999-0.54,0.621-0.81c-0.378-0.27-0.108-0.486,0.459-0.729s0.54,0.108,0.918-0.378s-0.054-1.376,0.243-1.43
		s2.969-0.621,3.94-3.104c1.457-3.4-4.048-4.372-4.021-5.02s1.862-5.721,1.862-5.721C48.577,9.885,39.693,7.31,34.219,5.729
		C26.5,3.5,22.668,9.075,20.213,16.227c-10.228,0.027-6.99,5.991-6.45,6.612c0.324,0.459,0.594,0.243,0.972,0.945
		s0.648,0.648-0.054,1.295c-0.702,0.648,0.297,0.621,0.648,1.161s0.108,0.486-0.675,1.188s-0.27,0.81,0.405,1.673
		c0.675,0.864-0.351,0.054,0.27,1.377c0.621,1.322,1.862,0.703,1.862,0.703c-2.024,0.918-1.781,4.023-0.594,6.371
		c0.756,2.078,1.376,1.92,1.952,1.722c-0.144,4.534,1.871,6.556,3.095,7.275c0.486,0.216,1.835,1.471-0.432,2.442
		c-2.861,1.403-3.131,2.402-3.131,2.564s1.244,1.759-1.241,3.267C11.118,57.52,9.121,63,9.121,63h41.453
		C47.911,54.721,41.182,54.47,40.588,53.876z M25.167,40.178l1.928-2.064c1.026,0.648,3.346,0.756,3.346,0.756l0.702,2.411
		C27.256,41.577,25.167,40.178,25.167,40.178z"/>
</g>
</svg>
