<?xml version="1.0" encoding="utf-8"?>
<!-- Generator: Adobe Illustrator 17.0.2, SVG Export Plug-In . SVG Version: 6.00 Build 0)  -->
<!DOCTYPE svg PUBLIC "-//W3C//DTD SVG 1.1//EN" "http://www.w3.org/Graphics/SVG/1.1/DTD/svg11.dtd">
<svg version="1.1" id="Layer_1" xmlns="http://www.w3.org/2000/svg" xmlns:xlink="http://www.w3.org/1999/xlink" x="0px" y="0px"
	 width="64px" height="64px" viewBox="0 0 64 64" enable-background="new 0 0 64 64" xml:space="preserve">
<g>
	<path d="M42.71,19.006c0,0,0.025,1.174,2.099,2.199c1.274,0.725-1.549,1.474-1.849,1.599c0,0-0.212,0.899,1.074,0.75
		c0.824-0.062-0.887,1.449-0.962,1.524c0,0,0.625,0.987-0.462,0.999s-0.687,1.099-0.662,1.299c0.104,0.333,0.287,2.715-3.127,1.399
		c0,0-2.107-1.199-3.056,0.625c1.041,0.558,1.174,1.99,1.141,2.573c-0.033,0.583,3.914,1.799,4.414,5.263
		c0.15,1.782,1.449,2.432,1.982,2.582c0,0-0.916,0.45-2.282-0.949c0,0,0.266,1.174,2.365,2.773c1.399,1.174,1.349,2.498,1.574,3.248
		c0.225,0.75,0.775,1.324,1.874,0.65c0,0-0.525,1.599-1.999,0.425c0.35,0.325,1.824,1.424,1.524,3.223
		c-0.225,1.924-0.999,5.122,2.673,3.698c0,0-1.824,2.373-3.123,0.075c-1.299-2.299,0.799-2.623-0.65-5.172
		c0.25,1.049,0.25,1.174-0.15,2.548s-0.125,3.106,1.757,4.322c0.879,0.525-0.4,1.532-0.383,2.282c0,0-0.075,1.516,1.749,1.94
		c-0.237,0.062-1.524,0.337-2.648-1.474c0,0-0.974,2.498,1.836,3.335c-2.761-0.087-2.498-3.273-3.423-4.522
		c0,0,0.062,1.087-1.274,1.824c0.775-1.549,0.312-3.26-0.775-4.16c0.462,1.437-0.737,2.249-0.737,2.723c0,0-0.271,1.195,1.352,2.532
		c0.012,0.01,0.023,0.019,0.035,0.029c-0.4-0.125-1.324-0.662-1.811-1.911c0,0-0.4,1.574,1.599,2.736c0,0-1.861,0.1-2.324-2.461
		c0,0-0.858,0.924,0.691,3.256c0,0-1.416-0.849-1.432-2.565c0,0-1.407-0.741-1.049-1.924s1.091-1.728-0.125-3.256
		c0.516,2.14-0.258,3.639-0.383,4.414s1.424,2.036,1.449,4.022c-1.099-2.548-2.398-2.748-2.448-4.272
		c0.425-2.798-1.174-4.222-1.324-5.197c-0.15-0.974,0.725-1.924,0.675-2.798s-0.949-0.65-1.349-4.472
		c-0.35,0.55-0.325,2.423-0.15,2.898s1.099,1.524,0.799,2.498c-0.625-1.699-1.649-1.149-1.324-4.572s-4.297-5.471-4.872-6.696
		c-0.575-1.224-1.89-1.666-2.623-1.699s-2.165-0.033-3.964,2.931c0.366,0.733-0.2,2.065-0.999,2.332
		c-0.633,2.465-2.299,4.197-2.032,4.497c0,0,0.6,1.965-0.466,3.631s0.6,2.432,0.366,4.231c-0.233,1.799-0.233,2.099,0.333,4.097
		C20.4,60.887,20.2,61.42,20.2,61.42s-3.764-1.699-2.398-5.796c0.312-1.041-0.966-0.266-0.833-1.899
		c0.133-1.632-0.716-1.166-0.554-1.791s-1.424-1.299-0.737-3.435c0.45-1.561,1.074-2.074,1.324-2.398
		c-0.316-1.087-0.466-3.385,0.7-4.585c-0.35-0.883,0.083-0.933,0.4-1.499c-0.883-0.899-0.45-2.815,0.75-3.748
		c1.149-1.432-0.183-2.032,0.983-4.497s0-3.265,1.399-5.93s2.332-1.599,2.931-4.197s-2.732-3.864-0.4-8.128
		c-0.466-3.065,0.133-3.598,1.266-5.063s4.597-6.329,10.726-4.864c4.464,1.066,6.929,3.664,7.462,4.93
		c0.533,1.266-0.358,1.041-0.633,1.316c-0.275,0.275,1.699,0.75,1.274,3.673c0,0-0.225,1.949-0.525,2.748l0.325,0.874l-0.924,0.899
		c0,0-0.075,0.6,1.224,0.6C43.659,18.956,42.71,19.006,42.71,19.006z"/>
</g>
</svg>
