<?xml version="1.0" encoding="utf-8"?>
<!-- Generator: Adobe Illustrator 17.0.2, SVG Export Plug-In . SVG Version: 6.00 Build 0)  -->
<!DOCTYPE svg PUBLIC "-//W3C//DTD SVG 1.1//EN" "http://www.w3.org/Graphics/SVG/1.1/DTD/svg11.dtd">
<svg version="1.1" id="Layer_1" xmlns="http://www.w3.org/2000/svg" xmlns:xlink="http://www.w3.org/1999/xlink" x="0px" y="0px"
	 width="64px" height="64px" viewBox="0 0 64 64" enable-background="new 0 0 64 64" xml:space="preserve">
<g>
	<path d="M20.5,25.308c-0.164,0.03-0.328,0.051-0.493,0.065c0.061,0.512,0.152,1.023,0.266,1.532c0.385-0.251,0.881-0.4,1.536-0.4
		c2.024-0.001,4.947,2.6,6.763,5.247c-0.095-0.267-0.166-0.544-0.195-0.843c-0.026-0.274,0.4-0.271,0.426,0
		c0.031,0.326,0.117,0.633,0.243,0.923c0.674-0.183,1.328-0.432,1.955-0.733c-0.178-0.209-0.327-0.446-0.432-0.719
		c-0.098-0.257,0.314-0.367,0.411-0.113c0.092,0.24,0.227,0.457,0.398,0.64c0.717-0.38,1.389-0.839,2-1.377
		c-0.199-0.076-0.393-0.176-0.579-0.301c-0.227-0.152-0.014-0.522,0.215-0.368s0.468,0.272,0.717,0.339
		c0.507-0.494,0.967-1.044,1.359-1.659c0.001-0.002,0.002-0.003,0.003-0.005c-0.267-0.015-0.535-0.043-0.804-0.097
		c-0.27-0.054-0.155-0.464,0.113-0.411c0.313,0.062,0.622,0.092,0.931,0.094c0.375-0.657,0.658-1.332,0.858-2.015
		c-0.306,0.05-0.618,0.068-0.94,0.048c-0.273-0.017-0.275-0.443,0-0.426c0.364,0.022,0.714-0.003,1.056-0.078
		c0.165-0.694,0.242-1.395,0.244-2.096c-0.313,0.105-0.64,0.171-0.98,0.202c-0.274,0.025-0.271-0.402,0-0.426
		c0.34-0.031,0.663-0.105,0.97-0.224c-0.023-0.51-0.088-1.018-0.189-1.522c-0.32,0.09-0.651,0.141-0.993,0.147
		c-0.275,0.005-0.275-0.421,0-0.426c0.31-0.006,0.608-0.052,0.896-0.135c-0.352-1.442-1.009-2.844-1.932-4.127
		c-0.091-0.057-0.184-0.109-0.276-0.166c-0.14,0.209-0.311,0.402-0.508,0.582c-0.203,0.185-0.505-0.116-0.301-0.301
		c0.17-0.154,0.315-0.323,0.44-0.502c-0.381-0.231-0.761-0.465-1.145-0.687c-0.134-0.078-0.271-0.156-0.406-0.234
		c-0.17,0.203-0.366,0.386-0.602,0.533c-0.234,0.146-0.448-0.223-0.215-0.368c0.172-0.107,0.315-0.239,0.443-0.381
		c-0.482-0.278-0.967-0.558-1.454-0.846c-0.151,0.194-0.325,0.371-0.532,0.53c-0.218,0.168-0.43-0.203-0.215-0.368
		c0.147-0.113,0.272-0.242,0.384-0.381c-0.596-0.358-1.19-0.724-1.766-1.113c-0.158,0.16-0.33,0.306-0.534,0.424
		c-0.239,0.137-0.453-0.231-0.215-0.368c0.147-0.084,0.274-0.187,0.393-0.298c-0.56-0.39-1.102-0.799-1.612-1.235
		c-0.14,0.153-0.301,0.291-0.484,0.409c-0.232,0.149-0.446-0.22-0.215-0.368c0.145-0.093,0.272-0.2,0.382-0.32
		c-0.577-0.521-1.112-1.078-1.58-1.685c-0.28,0.556-0.559,1.122-0.833,1.695c0.169,0.094,0.347,0.176,0.544,0.235
		c0.263,0.079,0.151,0.491-0.113,0.411c-0.218-0.066-0.42-0.157-0.613-0.261c-0.278,0.59-0.548,1.188-0.809,1.793
		c0.232,0.175,0.496,0.312,0.789,0.401c0.262,0.08,0.15,0.492-0.113,0.411c-0.307-0.094-0.593-0.232-0.848-0.408
		c-0.354,0.841-0.683,1.696-0.98,2.56c0.204,0.098,0.428,0.165,0.663,0.208c0.27,0.049,0.155,0.46-0.113,0.411
		c-0.241-0.044-0.472-0.117-0.688-0.215c-0.325,0.981-0.601,1.974-0.817,2.972c0.184,0.076,0.383,0.122,0.602,0.128
		c0.274,0.007,0.275,0.433,0,0.426c-0.245-0.006-0.474-0.054-0.688-0.133c-0.18,0.914-0.305,1.833-0.363,2.754
		c0.206,0.024,0.414,0.042,0.625,0.044c0.275,0.003,0.275,0.43,0,0.426c-0.218-0.003-0.433-0.02-0.646-0.044
		c-0.03,0.747-0.012,1.493,0.056,2.238c0.143-0.012,0.286-0.03,0.427-0.056C20.656,24.848,20.771,25.259,20.5,25.308z"/>
	<path d="M40.805,9.108c-0.152-0.027-0.3-0.062-0.446-0.102c0.026,0.848,0.13,1.687,0.302,2.51c0.119-0.011,0.239-0.026,0.358-0.048
		c0.269-0.05,0.383,0.361,0.113,0.411c-0.128,0.024-0.254,0.039-0.381,0.051c0.244,1.009,0.607,1.987,1.096,2.916
		c0.129-0.096,0.251-0.205,0.356-0.339c0.17-0.216,0.469,0.088,0.301,0.301c-0.131,0.167-0.283,0.306-0.449,0.422
		c0.334,0.582,0.72,1.144,1.165,1.677c0.185,0.222,0.377,0.435,0.572,0.644c0.111-0.143,0.206-0.303,0.274-0.5
		c0.089-0.258,0.501-0.147,0.411,0.113c-0.095,0.275-0.23,0.498-0.392,0.692c0.531,0.539,1.102,1.029,1.697,1.489
		c0.016-0.105,0.032-0.21,0.034-0.319c0.006-0.274,0.433-0.275,0.426,0c-0.005,0.209-0.038,0.411-0.083,0.608
		c0.778,0.569,1.6,1.076,2.454,1.53c-0.007-1.714-0.055-2.788-0.055-2.788L50.543,4l-5.822,5.384c0,0-1.514-1.76-4.211-3.132
		c-0.106,0.767-0.161,1.537-0.161,2.303c0.186,0.057,0.374,0.107,0.569,0.142C41.188,8.745,41.073,9.156,40.805,9.108z"/>
	<path d="M40.383,41.247c0.317,0.04,0.628,0.043,0.933,0.006c0.12-0.471,0.204-0.95,0.246-1.439c-0.218,0.092-0.45,0.162-0.697,0.2
		c-0.267,0.041-0.381-0.362-0.119-0.409c-1.308-0.023-2.576-0.214-3.598-0.656c-0.063,0.104-0.218,0.169-0.342,0.066
		c-0.119-0.098-0.248-0.172-0.382-0.232c0.025,0.444,0.078,0.884,0.149,1.321c0.11-0.004,0.22-0.014,0.331-0.014
		c0.275-0.002,0.275,0.424,0,0.426c-0.088,0.001-0.175,0.008-0.262,0.011c0.099,0.494,0.244,0.981,0.423,1.464
		c0.77,0.167,1.564,0.356,2.324,0.541c0.046-0.049,0.113-0.077,0.198-0.052c0.396,0.117,0.792,0.196,1.195,0.236
		c0.161-0.337,0.304-0.679,0.414-1.03c-0.267,0.02-0.538,0.022-0.813-0.013C40.114,41.639,40.111,41.213,40.383,41.247z"/>
	<path d="M24.123,6.876c0.208-0.178,0.511,0.101,0.301,0.28c-0.171,0.146-0.353,0.261-0.539,0.376
		c0.152,0.269,0.317,0.523,0.493,0.775c0.047,0.032,0.082,0.077,0.096,0.134c0.476,0.655,1.032,1.248,1.639,1.801
		c0.033-0.071,0.065-0.143,0.087-0.223c0.072-0.265,0.483-0.153,0.411,0.113c-0.04,0.147-0.101,0.279-0.172,0.403
		c0.517,0.445,1.071,0.859,1.644,1.254c0.121-0.166,0.226-0.345,0.302-0.545c0.097-0.254,0.509-0.144,0.411,0.113
		c-0.093,0.244-0.218,0.464-0.364,0.668c0.564,0.377,1.146,0.732,1.732,1.081c0.053-0.101,0.1-0.206,0.139-0.317
		c0.09-0.258,0.502-0.147,0.411,0.113c-0.052,0.148-0.115,0.286-0.187,0.417c0.493,0.289,0.987,0.572,1.476,0.853
		c0.087-0.149,0.164-0.306,0.218-0.477c0.082-0.261,0.494-0.15,0.411,0.113c-0.065,0.207-0.158,0.395-0.263,0.575
		c0.516,0.297,1.024,0.594,1.516,0.892c0.067-0.16,0.12-0.327,0.14-0.511c0.029-0.27,0.455-0.273,0.426,0
		c-0.028,0.267-0.096,0.512-0.198,0.739c1.142,0.706,2.276,1.473,3.299,2.356c0.103-0.15,0.196-0.309,0.264-0.487
		c0.097-0.254,0.509-0.144,0.411,0.113c-0.091,0.24-0.215,0.452-0.356,0.65c0.546,0.497,1.051,1.035,1.504,1.619
		c0.141-0.121,0.272-0.253,0.381-0.409c0.156-0.224,0.526-0.011,0.368,0.215c-0.142,0.204-0.314,0.376-0.498,0.531
		c0.024,0.034,0.051,0.066,0.074,0.1c0.325,0.468,0.602,0.953,0.839,1.451c0.103-0.099,0.197-0.208,0.282-0.326
		c0.16-0.22,0.53-0.008,0.368,0.215c-0.14,0.194-0.297,0.364-0.469,0.511c0.237,0.56,0.417,1.137,0.556,1.725
		c0.095-0.077,0.186-0.163,0.271-0.257c0.185-0.204,0.486,0.098,0.301,0.301c-0.144,0.159-0.304,0.286-0.472,0.399
		c0.113,0.583,0.179,1.177,0.207,1.777c0.194-0.085,0.378-0.199,0.55-0.346c0.208-0.178,0.511,0.122,0.301,0.301
		c-0.262,0.224-0.545,0.387-0.843,0.493c0.002,0.171-0.002,0.343-0.004,0.515c0.608-0.302,1.192-0.478,1.715-0.478
		c3.141,0,2.776,3.258,2.776,6.246c0,2.567-1.418,5.804-3.809,6.665c-0.088,0.073-0.178,0.141-0.273,0.202
		c-0.032,0.535-0.111,1.059-0.23,1.573c0.18-0.051,0.358-0.115,0.532-0.205c0.244-0.126,0.459,0.242,0.215,0.368
		c-0.279,0.144-0.568,0.235-0.862,0.297c-0.11,0.381-0.247,0.754-0.412,1.121c0.122,0.001,0.244,0.004,0.367-0.004
		c0.217-0.013,0.259,0.249,0.132,0.368c0.572,0.136,1.05,0.242,1.381,0.297c0.287,0.053-1.192,1.241-4.192,4.753
		c-3,3.512-4.317,5.122-6.694,5.122c-2.378,0-4.207-2.671-5.67-4.427s-4.317-4.792-4.317-4.792c0.274,0,1.098-0.128,4.427-1.061
		c4.896-1.672,6.176-1.699,6.452-1.636c0.176-0.002,0.301,0.07,0.481,0.075c-0.176-0.004,1.554,0.159,2.957,0.45
		c-0.152-0.442-0.269-0.888-0.357-1.339c-0.301,0.02-0.602,0.046-0.903,0.076c-0.273,0.027-0.271-0.399,0-0.426
		c0.277-0.028,0.553-0.053,0.83-0.073c-0.075-0.485-0.121-0.974-0.144-1.467c-0.205-0.034-0.416-0.043-0.629-0.012
		c-0.269,0.038-0.385-0.372-0.113-0.411c0.248-0.035,0.489-0.04,0.722-0.011c-0.679-0.599-1.093-1.422-1.093-2.528
		c0-2.373,3.335-6.79,6.281-8.508c0.006-0.213,0.009-0.425,0.007-0.637c-0.29,0.046-0.594,0.042-0.909-0.016
		c-0.27-0.05-0.155-0.461,0.113-0.411c0.272,0.051,0.537,0.048,0.789-0.001c-0.024-0.571-0.082-1.137-0.183-1.692
		c-0.224,0.095-0.46,0.165-0.716,0.193c-0.273,0.03-0.27-0.396,0-0.426c0.228-0.025,0.435-0.093,0.628-0.186
		c-0.129-0.584-0.299-1.156-0.526-1.709c-0.268,0.156-0.567,0.261-0.901,0.297c-0.273,0.029-0.27-0.397,0-0.426
		c0.269-0.029,0.514-0.122,0.733-0.258c-0.251-0.545-0.551-1.071-0.91-1.572c-0.225,0.138-0.465,0.254-0.725,0.33
		c-0.265,0.077-0.377-0.334-0.113-0.411c0.207-0.06,0.4-0.151,0.583-0.258c-0.078-0.098-0.154-0.198-0.236-0.294
		c-0.376-0.44-0.785-0.842-1.208-1.229c-0.17,0.172-0.356,0.332-0.573,0.466c-0.235,0.145-0.449-0.224-0.215-0.368
		c0.178-0.11,0.334-0.24,0.476-0.382c-0.65-0.564-1.338-1.084-2.054-1.567c0.655,1.067,1.144,2.217,1.442,3.399
		c0.155-0.065,0.307-0.138,0.456-0.225c0.238-0.138,0.453,0.23,0.215,0.368c-0.186,0.108-0.377,0.195-0.572,0.273
		c0.103,0.484,0.175,0.971,0.21,1.46c0.123-0.07,0.244-0.147,0.36-0.236c0.218-0.167,0.43,0.203,0.215,0.368
		c-0.175,0.135-0.362,0.242-0.553,0.336c0.018,0.71-0.037,1.42-0.177,2.119c0.083-0.034,0.167-0.063,0.249-0.106
		c0.244-0.126,0.459,0.242,0.215,0.368c-0.19,0.099-0.385,0.172-0.582,0.234c-0.187,0.72-0.459,1.426-0.835,2.105
		c0.205-0.025,0.409-0.06,0.614-0.118c0.265-0.075,0.377,0.336,0.113,0.411c-0.327,0.093-0.654,0.137-0.983,0.153
		c-0.135,0.215-0.28,0.428-0.436,0.636c-0.289,0.385-0.602,0.743-0.93,1.08c0.104-0.005,0.209-0.016,0.317-0.042
		c0.267-0.064,0.381,0.347,0.113,0.411c-0.289,0.069-0.569,0.073-0.84,0.029c-0.648,0.598-1.356,1.112-2.111,1.534
		c0.091,0.059,0.185,0.115,0.287,0.158c0.25,0.105,0.14,0.517-0.113,0.411c-0.22-0.092-0.409-0.219-0.584-0.36
		c-0.662,0.335-1.351,0.612-2.066,0.815c0.074,0.124,0.156,0.244,0.247,0.361c0.13,0.167-0.023,0.385-0.177,0.372
		c0.571,1.034,0.92,2.015,0.92,2.781c0,2.987-3.006,3.916-6.146,3.916c-0.081,0-0.158-0.013-0.238-0.018
		c-0.13,0.103-0.263,0.203-0.39,0.31c0.048,0.017,0.097,0.026,0.145,0.045c0.253,0.099,0.143,0.511-0.113,0.411
		c-0.136-0.053-0.274-0.095-0.413-0.131c-0.503,0.443-0.977,0.916-1.417,1.414c0.116,0.083,0.227,0.176,0.332,0.278
		c0.198,0.192-0.104,0.493-0.301,0.301c-0.097-0.094-0.2-0.176-0.307-0.251c-0.311,0.376-0.595,0.771-0.86,1.178
		c0.169,0.256,0.269,0.497,0.453,0.716l0.17,0.233c0,0,0.898,1.049,2.076,2.413c-0.353,0.495-1.409,1.707-3.898,2.804
		c0.064,0.17,0.129,0.34,0.199,0.506c0.081-0.048,0.157-0.101,0.228-0.168c0.2-0.188,0.502,0.112,0.301,0.301
		c-0.11,0.104-0.228,0.189-0.352,0.261c0.184,0.397,0.386,0.781,0.606,1.153c0.158-0.094,0.305-0.216,0.439-0.366
		c0.184-0.205,0.485,0.098,0.301,0.301c-0.153,0.17-0.327,0.313-0.514,0.426c0.154,0.24,0.312,0.477,0.481,0.704
		c0.64-0.356,1.289-0.694,1.943-1.022c-0.16-0.226-0.274-0.489-0.348-0.77c-0.07-0.266,0.341-0.379,0.411-0.113
		c0.069,0.262,0.176,0.493,0.33,0.687c0.936-0.46,1.885-0.89,2.844-1.292c0.101,0.114,0.197,0.223,0.295,0.334
		c-0.943,0.391-1.875,0.81-2.795,1.257c0.051,0.031,0.095,0.068,0.152,0.094c0.25,0.114,0.033,0.481-0.215,0.368
		c-0.142-0.065-0.268-0.146-0.379-0.241c-0.667,0.333-1.33,0.676-1.982,1.039c0.631,0.79,1.356,1.493,2.158,2.1
		c0.128-0.145,0.245-0.305,0.34-0.489c0.126-0.244,0.494-0.029,0.368,0.215c-0.1,0.194-0.22,0.371-0.356,0.53
		c0.596,0.418,1.237,0.777,1.907,1.084c0.167-0.213,0.302-0.451,0.404-0.713c0.098-0.253,0.511-0.143,0.411,0.113
		c-0.111,0.284-0.256,0.541-0.427,0.776c0.632,0.262,1.293,0.472,1.977,0.628c0.141-0.245,0.248-0.512,0.312-0.808
		c0.058-0.269,0.469-0.155,0.411,0.113c-0.061,0.281-0.164,0.539-0.29,0.784c0.635,0.122,1.289,0.199,1.961,0.222
		c0.184,0.006,0.368,0.001,0.553,0.001c0.057-0.205,0.106-0.412,0.136-0.624c0.039-0.271,0.449-0.155,0.411,0.113
		c-0.025,0.174-0.062,0.343-0.106,0.511c0.747-0.021,1.492-0.103,2.228-0.231c-0.065-0.322-0.164-0.637-0.31-0.94
		c-0.118-0.247,0.249-0.463,0.368-0.215c0.168,0.35,0.283,0.711,0.358,1.082c0.671-0.136,1.329-0.323,1.975-0.548
		c-0.123-0.329-0.302-0.636-0.536-0.915c-0.176-0.209,0.124-0.512,0.301-0.301c0.276,0.329,0.491,0.688,0.635,1.074
		c0.678-0.258,1.339-0.561,1.972-0.92c0.138-0.078,0.271-0.161,0.405-0.243c-0.24-0.263-0.531-0.477-0.876-0.62
		c-0.25-0.104-0.14-0.517,0.113-0.411c0.453,0.189,0.819,0.464,1.117,0.808c0.718-0.468,1.379-0.99,1.992-1.557
		c-0.346-0.25-0.772-0.385-1.247-0.395c-0.274-0.006-0.275-0.432,0-0.426c0.602,0.013,1.126,0.195,1.547,0.522
		c0.417-0.406,0.811-0.833,1.186-1.277c-0.321-0.22-0.681-0.379-1.084-0.46c-0.269-0.054-0.155-0.465,0.113-0.411
		c0.455,0.092,0.87,0.28,1.239,0.539c0.33-0.409,0.64-0.837,0.942-1.272c-0.42-0.183-0.887-0.232-1.399-0.134
		c-0.269,0.051-0.383-0.36-0.113-0.411c0.636-0.121,1.23-0.06,1.757,0.186c0.239-0.358,0.467-0.725,0.691-1.096
		c-2.123-1.056-2.972-2.114-3.21-2.461c0.619-0.654,1.306-1.37,2.095-2.175l0.701-0.682c0.001-0.001,0.314-0.375,0.314-0.375
		c3.445-4.541,3.901-15.831,3.902-21.442c-0.9-0.464-1.771-0.983-2.591-1.569c-0.102,0.263-0.232,0.517-0.395,0.758
		c-0.153,0.226-0.523,0.013-0.368-0.215c0.172-0.254,0.31-0.519,0.407-0.798c-0.675-0.508-1.315-1.06-1.903-1.666
		c-0.177,0.131-0.371,0.245-0.608,0.327c-0.261,0.09-0.372-0.322-0.113-0.411c0.166-0.057,0.305-0.134,0.431-0.221
		c-0.317-0.346-0.619-0.706-0.902-1.084c-0.324-0.435-0.612-0.882-0.874-1.339c-0.259,0.114-0.542,0.179-0.837,0.186
		c-0.275,0.007-0.274-0.419,0-0.426c0.225-0.006,0.431-0.059,0.624-0.14c-0.524-0.992-0.907-2.029-1.162-3.097
		c-0.335,0.004-0.671-0.022-1.01-0.075c-0.271-0.043-0.156-0.453,0.113-0.411c0.271,0.043,0.542,0.067,0.813,0.068
		c-0.181-0.874-0.287-1.765-0.307-2.668c-0.304-0.113-0.598-0.253-0.884-0.421c-0.237-0.139-0.022-0.508,0.215-0.368
		c0.216,0.127,0.437,0.232,0.662,0.325c0.006-0.777,0.069-1.391,0.183-2.177C38.451,5.443,36.388,5,33.983,5h-3.071
		c-3.075,0-5.592,0.831-7.416,1.911c0.061,0.137,0.123,0.19,0.19,0.323C23.837,7.139,23.984,6.995,24.123,6.876z"/>
	<path d="M20.277,42.785c0.228-0.339,0.466-0.67,0.725-0.987c-0.173-0.071-0.353-0.12-0.548-0.125c-0.274-0.008-0.275-0.434,0-0.426
		c0.299,0.008,0.575,0.081,0.831,0.202c0.396-0.453,0.82-0.883,1.268-1.292c-0.32-0.035-0.646-0.029-0.976,0.017
		c-0.269,0.037-0.385-0.374-0.113-0.411c0.51-0.07,1.008-0.064,1.498,0.033c0.102-0.088,0.21-0.17,0.314-0.256
		c-2.655-0.601-4.246-4.07-4.246-6.79c0-2.14-0.18-4.413,0.868-5.533c-0.146-0.607-0.253-1.217-0.325-1.828
		c-0.37,0.003-0.74-0.025-1.108-0.082c-0.271-0.042-0.155-0.452,0.113-0.411c0.312,0.048,0.63,0.074,0.948,0.073
		c-0.07-0.771-0.086-1.544-0.053-2.316c-0.304-0.054-0.604-0.127-0.902-0.223c-0.261-0.084-0.149-0.495,0.113-0.411
		c0.268,0.086,0.539,0.153,0.811,0.204c0.064-0.964,0.198-1.926,0.393-2.884c-0.247-0.153-0.47-0.35-0.665-0.587
		c-0.174-0.21,0.126-0.514,0.301-0.301c0.14,0.17,0.292,0.32,0.459,0.443c0.221-0.997,0.501-1.987,0.827-2.966
		c-0.269-0.187-0.498-0.428-0.662-0.735c-0.129-0.242,0.238-0.458,0.368-0.215c0.115,0.216,0.265,0.39,0.44,0.53
		c0.307-0.882,0.644-1.754,1.008-2.613c-0.266-0.252-0.486-0.552-0.643-0.899c-0.112-0.248,0.255-0.465,0.368-0.215
		c0.118,0.261,0.272,0.493,0.456,0.694c0.252-0.581,0.513-1.156,0.78-1.723c-0.306-0.232-0.562-0.524-0.751-0.887
		c-0.127-0.243,0.241-0.459,0.368-0.215c0.149,0.285,0.343,0.517,0.571,0.706c0.298-0.624,0.602-1.238,0.907-1.841
		c-0.178-0.254-0.345-0.517-0.5-0.788c-0.217,0.105-0.441,0.197-0.679,0.265c-0.265,0.076-0.377-0.336-0.113-0.411
		c0.206-0.059,0.402-0.137,0.591-0.227c-0.065-0.127-0.124-0.258-0.184-0.388c-1.908,1.201-2.958,2.421-2.958,2.421l-5.822-5.125
		l1.984,14.247C16.339,18.509,16.208,35.941,20.277,42.785z"/>
	<path d="M11.176,62.089c-0.235,0.032-0.475,0.119-0.724,0.104c-0.273-0.016-0.275-0.443,0-0.426
		c0.19,0.011,0.374,0.005,0.553-0.016c-0.14-0.348-0.272-0.697-0.386-1.051c-0.156-0.016-0.285-0.218-0.14-0.362
		c0.009-0.008,0.017-0.017,0.026-0.025c-0.162-0.548-0.288-1.104-0.397-1.664c-0.278,0.011-0.562-0.016-0.849-0.086
		c-0.267-0.065-0.154-0.476,0.113-0.411c0.223,0.055,0.441,0.077,0.653,0.074c-0.116-0.671-0.201-1.349-0.26-2.032
		c-0.264-0.026-0.529-0.091-0.79-0.188c-0.255-0.095-0.145-0.507,0.113-0.411c0.214,0.08,0.429,0.137,0.643,0.166
		c-0.056-0.77-0.086-1.545-0.096-2.322c-0.238,0.042-0.486,0.046-0.745,0.018c-0.27-0.03-0.273-0.457,0-0.426
		c0.254,0.028,0.504,0.03,0.741-0.019c-0.001-0.188,0.003-0.375,0.003-0.563c-2.488,1.158-3.822,2.474-4.233,4.158
		c-0.661,2.71,0.192,5.799,0.39,6.976h6.196C11.682,63.583,11.41,62.62,11.176,62.089z"/>
	<path d="M10.531,53.036c-0.151,0.119-0.309,0.208-0.472,0.276c0.008,0.823,0.036,1.645,0.096,2.46
		c0.257-0.019,0.51-0.087,0.757-0.229c0.239-0.137,0.453,0.231,0.215,0.368c-0.301,0.173-0.616,0.26-0.936,0.284
		c0.059,0.668,0.143,1.331,0.257,1.987c0.336-0.068,0.657-0.214,0.961-0.437c0.222-0.163,0.434,0.207,0.215,0.368
		c-0.341,0.25-0.71,0.409-1.094,0.486c0.091,0.463,0.193,0.923,0.32,1.378c0.654-0.633,1.329-1.244,2.018-1.837
		c-0.091-0.272-0.139-0.559-0.144-0.849c-0.005-0.275,0.421-0.275,0.426,0c0.003,0.187,0.03,0.368,0.073,0.543
		c0.591-0.499,1.195-0.982,1.81-1.452c-0.134-0.23-0.247-0.473-0.313-0.74c-0.066-0.267,0.346-0.38,0.411-0.113
		c0.053,0.214,0.141,0.413,0.246,0.602c0.653-0.49,1.32-0.959,1.996-1.417c-0.109-0.28-0.167-0.586-0.173-0.904
		c-0.005-0.275,0.421-0.275,0.426,0c0.004,0.229,0.038,0.452,0.106,0.66c0.946-0.63,1.913-1.23,2.901-1.792
		c-0.176-0.238-0.341-0.485-0.5-0.737c-0.251,0.084-0.52,0.12-0.802,0.092c-0.271-0.027-0.274-0.453,0-0.426
		c0.202,0.02,0.391,0.004,0.569-0.042c-0.217-0.37-0.417-0.752-0.599-1.147c-0.238,0.078-0.49,0.119-0.751,0.123
		c-0.275,0.005-0.275-0.422,0-0.426c0.2-0.003,0.394-0.033,0.578-0.087c-0.071-0.169-0.137-0.341-0.202-0.514
		c-0.94,0.386-2.064,0.751-3.409,1.056c-2.208,0.501-4.008,1.061-5.457,1.689c-0.001,0.197-0.005,0.395-0.004,0.592
		c0.06-0.035,0.118-0.072,0.174-0.116C10.443,52.567,10.747,52.867,10.531,53.036z"/>
	<path d="M59.528,56.603c-0.661-2.71-3.718-4.83-10.129-6.284c-1.741-0.395-3.116-0.865-4.198-1.365
		c-0.227,0.379-0.46,0.763-0.703,1.131c0.2,0.138,0.389,0.312,0.562,0.514c0.178,0.207-0.122,0.512-0.301,0.304
		c-0.156-0.181-0.323-0.331-0.501-0.454c-0.313,0.455-0.635,0.904-0.978,1.333c0.128,0.118,0.25,0.245,0.359,0.385
		c0.167,0.214-0.133,0.518-0.301,0.302c-0.101-0.129-0.211-0.244-0.326-0.351c-0.382,0.456-0.783,0.894-1.207,1.31
		c0.188,0.213,0.348,0.461,0.467,0.752c0.105,0.254-0.308,0.364-0.411,0.113c-0.09-0.22-0.21-0.409-0.35-0.572
		c-0.633,0.59-1.314,1.131-2.053,1.607c0.096,0.152,0.184,0.311,0.256,0.486c0.106,0.254-0.307,0.363-0.411,0.113
		c-0.056-0.133-0.125-0.256-0.2-0.375c-0.221,0.133-0.446,0.261-0.677,0.382c-0.597,0.314-1.217,0.586-1.849,0.826
		c0.051,0.217,0.083,0.441,0.089,0.673c0.006,0.275-0.42,0.274-0.426,0c-0.004-0.18-0.027-0.355-0.063-0.525
		c-0.663,0.232-1.34,0.427-2.027,0.57c0.016,0.149,0.028,0.3,0.03,0.452c0.004,0.275-0.422,0.275-0.426,0
		c-0.002-0.127-0.012-0.251-0.024-0.375c-0.8,0.144-1.609,0.231-2.422,0.242c-0.084,0.249-0.18,0.494-0.283,0.738
		c-0.107,0.252-0.474,0.035-0.368-0.215c0.073-0.173,0.14-0.348,0.202-0.524c-0.294-0.006-0.587-0.013-0.88-0.038
		c-0.587-0.049-1.155-0.143-1.713-0.261c-0.171,0.242-0.369,0.465-0.614,0.655c-0.214,0.166-0.518-0.133-0.301-0.301
		c0.175-0.135,0.32-0.288,0.452-0.449c-0.693-0.171-1.361-0.394-2-0.665c-0.16,0.167-0.334,0.323-0.538,0.454
		c-0.232,0.15-0.445-0.219-0.215-0.368c0.126-0.081,0.241-0.172,0.348-0.27c-0.676-0.315-1.32-0.679-1.921-1.1
		c-0.234,0.19-0.506,0.333-0.821,0.41c-0.267,0.065-0.38-0.346-0.113-0.411c0.217-0.053,0.398-0.15,0.564-0.265
		c-0.827-0.626-1.574-1.351-2.222-2.167c-1.014,0.575-2.004,1.192-2.973,1.84c0.115,0.182,0.266,0.342,0.461,0.472
		c0.228,0.151,0.015,0.521-0.215,0.368c-0.249-0.165-0.445-0.37-0.594-0.602c-0.66,0.449-1.312,0.909-1.95,1.389
		c0.142,0.177,0.3,0.342,0.486,0.48c0.218,0.162,0.006,0.532-0.215,0.368c-0.233-0.173-0.434-0.377-0.61-0.598
		c-0.645,0.494-1.278,1.001-1.897,1.526c0.048,0.094,0.104,0.185,0.17,0.273c0.166,0.219-0.204,0.431-0.368,0.215
		c-0.049-0.065-0.086-0.137-0.127-0.206c-0.708,0.613-1.4,1.244-2.069,1.899c0.13,0.413,0.283,0.821,0.449,1.225
		c0.388-0.103,0.755-0.277,1.113-0.509c0.231-0.15,0.445,0.219,0.215,0.368c-0.37,0.24-0.757,0.354-1.162,0.469
		c0.252,0.559,0.543,1.582,0.879,1.582h19.947h26.724C59.347,62.403,60.189,59.313,59.528,56.603z"/>
</g>
</svg>
