<?xml version="1.0" encoding="utf-8"?>
<!-- Generator: Adobe Illustrator 17.0.2, SVG Export Plug-In . SVG Version: 6.00 Build 0)  -->
<!DOCTYPE svg PUBLIC "-//W3C//DTD SVG 1.1//EN" "http://www.w3.org/Graphics/SVG/1.1/DTD/svg11.dtd">
<svg version="1.1" id="Layer_1" xmlns="http://www.w3.org/2000/svg" xmlns:xlink="http://www.w3.org/1999/xlink" x="0px" y="0px"
	 width="64px" height="64px" viewBox="0 0 64 64" enable-background="new 0 0 64 64" xml:space="preserve">
<g>
	<path d="M50.5,34h2.389l0.03-3H55v-5h-2v-3h-2.953l0.03-1H52v-2h-1.766c0-18-17.852-16-17.852-16h-0.866c0,0-18.735-2-18.735,16H11
		v2h1.939l0.03,1H10v3H8v5h2.096l0.03,3h2.813c0,0-5.093,2.033-5.804,7.175s1.836,7.893,3.198,9.268
		c0.118,2.272,1.54,7.444,8.351,9.178s8.985-1.211,9.34-1.869L30,57.718V60h1.891H33v-2.282l2.484,0.02
		c0.355,0.658,2.899,3.588,9.71,1.854s8.301-6.876,8.42-9.148c1.362-1.375,3.964-4.126,3.253-9.268C56.156,36.033,50.5,34,50.5,34z
		 M15.387,26.967C14.191,23.698,15.866,24,15.866,24h4.783c0,0,6.139-0.142,7.175-0.143c1.036-0.001,1.036,0.958-3.906,4.147
		C18.975,31.192,16.583,30.236,15.387,26.967z M21.805,56.681c-1.299,0-2.352-1.053-2.352-2.352s1.053-2.352,2.352-2.352
		s2.352,1.053,2.352,2.352S23.104,56.681,21.805,56.681z M32.188,38.424c-3.726-0.04-10.524,4.186-10.524,4.186
		s6.638-8.451,10.943-8.371c3.269,0,9.924,8.052,10.104,8.371C42.892,42.929,35.915,38.464,32.188,38.424z M42.852,56.681
		c-1.299,0-2.352-1.053-2.352-2.352s1.053-2.352,2.352-2.352s2.352,1.053,2.352,2.352S44.151,56.681,42.852,56.681z M48.99,26.967
		c-1.196,3.269-3.588,4.154-8.53,0.965s-4.943-4.042-3.906-4.04C37.589,23.893,43.728,24,43.728,24h4.783
		C48.511,24,50.185,23.698,48.99,26.967z"/>
</g>
</svg>
